<svg xmlns="http://www.w3.org/2000/svg" width="60" height="60"><defs><clipPath id="b"><path d="M0 0h29v51H0z" fill="none"/></clipPath><clipPath id="c"><path d="M0 51h29V0H0z" fill="none"/></clipPath><clipPath id="a"><path d="M0 0h60v60H0z"/></clipPath></defs><g clip-path="url(#a)"><path d="M20.6 50.3a7 7 0 0 1-11.3-4.8L5.7 10A7 7 0 0 1 15.4 3L47 16.3a7 7 0 0 1 1.6 11.9z" fill="#934aef" opacity=".1"/><path fill="#7231e5" d="M21.5 48h26v6h-26z"/><path d="M37.7 8h-8.3a1 1 0 0 0-.9 1 1 1 0 0 0 .9 1h8.3a1 1 0 0 0 .8-1 1 1 0 0 0-.8-1M44.5 8h-1a1 1 0 1 0 0 2h1a1 1 0 0 0 0-2M35.1 54H33a2.4 2.4 0 0 1-2.5-2.3v-.4A2.4 2.4 0 0 1 33 49H35a2.4 2.4 0 0 1 2.4 2.3v.4a2.4 2.4 0 0 1-2.4 2.3zM33 50.7a.7.7 0 0 0-.7.6v.4a.6.6 0 0 0 .7.6H35a.6.6 0 0 0 .7-.6v-.4a.7.7 0 0 0-.7-.6z"/><path d="M19.5 6h29v51h-29z" fill="none"/><g clip-path="url(#b)" transform="translate(19.5 6)"><path d="M25.8 51H3.1A3 3 0 0 1 0 48V3a3 3 0 0 1 3-3h22.8A3 3 0 0 1 29 3v45a3 3 0 0 1-3 3zM3.1 1.7a1.4 1.4 0 0 0-1.4 1.4v44.8a1.4 1.4 0 0 0 1.4 1.4h22.7a1.4 1.4 0 0 0 1.4-1.4V3.1a1.4 1.4 0 0 0-1.4-1.4z"/></g><path d="M19.5 57h29V6h-29z" fill="none"/><g clip-path="url(#c)" transform="translate(19.5 6)"><path d="M28.1 42H1a.8.8 0 0 1-.9-.8V5.8A.8.8 0 0 1 .9 5H28a.8.8 0 0 1 .9.8v35.4a.8.8 0 0 1-.9.8zM1.7 6.7v33.6h25.6V6.7z"/></g></g></svg>