<svg width="60" height="60" xmlns="http://www.w3.org/2000/svg" xmlns:xlink="http://www.w3.org/1999/xlink"><defs><path id="a" d="M0 0h52.3v23.3H0z"/><path id="c" d="M0 53.3h52.4V0H0z"/></defs><g fill="none" fill-rule="evenodd"><path d="M7.8 44.8L4.4 11.1A7 7 0 0 1 14.1 4l30 12.7a7 7 0 0 1 1.5 12l-26.5 21a7 7 0 0 1-11.3-4.9z" fill="#934AEF" opacity=".1"/><g transform="translate(4.2 5)"><g transform="translate(0 30)"><mask id="b" fill="#fff"><use xlink:href="#a"/></mask><path d="M49.6 5L30.8 16H20.5l-3-8.2 5.9-3.3h13A1.7 1.7 0 0 1 38 5.7v.6c0 1-.7 1.7-1.7 1.7h-9.6v1.8h9.6c1.8 0 3.3-1.3 3.5-3.1l8-4.7a1.7 1.7 0 0 1 2.7 1.5c0 .7-.3 1.3-.9 1.6zM12.8 20.6L8 7.2l6.6-2.4 4.8 13.3-6.6 2.4zm-7.2.8L2 11.3l5-1.8 3.6 10-5 1.8zM51.8 1.8A3.5 3.5 0 0 0 47 .5l-7.5 4.3-.7-1c-.6-.7-1.5-1-2.5-1H22.7L17 6.2l-1-2.7a.9.9 0 0 0-1-.5l-8.3 3A.9.9 0 0 0 6 7l.3.8L.6 10a.9.9 0 0 0-.5 1l4.2 11.7c.1.4.6.7 1 .5l5.9-2 .3.7c.1.5.6.7 1 .6l8.3-3c.5-.2.7-.7.6-1.2l-.3-.6h10.4l19-11.1c1.1-.6 1.8-1.8 1.8-3 0-.7-.2-1.3-.5-1.8z" fill="#000" mask="url(#b)"/></g><path fill="#000" d="M20.4 20.1L30.8 9.7l1.2 1.2-10.4 10.4zM31.4 20.8a.8.8 0 1 1-1.7 0 .8.8 0 0 1 1.7 0m-3.3 0a2.4 2.4 0 1 0 4.9 0 2.4 2.4 0 0 0-4.9 0M22.8 10.3a.8.8 0 1 1 0 1.7.8.8 0 0 1 0-1.7m0 3.3a2.4 2.4 0 1 0 0-4.9 2.4 2.4 0 0 0 0 4.9"/><path d="M27.2 4.7a10.8 10.8 0 1 1 0 21.6 10.8 10.8 0 0 1 0-21.6m0 23.4a12.6 12.6 0 1 0 0-25.2 12.6 12.6 0 0 0 0 25.2" fill="#000"/><mask id="d" fill="#fff"><use xlink:href="#c"/></mask><path fill="#000" mask="url(#d)" d="M25.2 2h2V0h-2zM21.3.6l2.3-.6.6 2.3-2.3.6zM17.5 3l1.8-1 1 1.8-1.8 1zM14.5 5.3L16 4l1.5 1.4L16 6.8zM12.6 8.6l1-1.8 2 1-1.2 1.9zM10.7 12l.6-2.3 2.3.6-.6 2.3zM10.7 16.5h2v-2h-2zM10.7 18l2.3-.5.6 2.2-2.3.7zM12.6 23.4l1.9-1.1 1 1.8-1.8 1.1zM14.5 26.7l1.5-1.5 1.5 1.5L16 28zM17.5 29l1-1.8 1.9 1-1.1 1.9zM21.3 31.4L22 29l2.3.6-.6 2.3zM25.2 32h2v-2h-2zM29 29.7l2.4-.6.6 2.3-2.3.6zM32 28.2l1.8-1L35 29l-1.8 1zM35.9 26.7l1.4-1.5 1.5 1.5-1.5 1.4zM38.8 24.1l1-1.8 1.9 1-1 2zM39.8 19.7l.6-2.2 2.3.6-.6 2.3zM39.8 16.5h1.9v-2h-2zM39.8 10.3l2.3-.6.6 2.3-2.3.6zM38.8 7.9l1.8-1.1 1.1 1.8-1.8 1.1zM35.9 5.3L37.3 4l1.5 1.4-1.5 1.5zM32 3.8l1-1.9L35 3l-1.2 1.8zM29 2.3l.7-2.3 2.3.6-.6 2.3z"/></g><path fill="#7231E5" d="M12 42.1l6.3-2.3L23 52.6l-6.4 2.3z"/></g></svg>