<svg width="60" height="60" xmlns="http://www.w3.org/2000/svg" xmlns:xlink="http://www.w3.org/1999/xlink"><defs><path id="a" d="M0 0h12.3v18H0z"/><path id="c" d="M0 0h12.3v24.6H0z"/><path id="e" d="M0 0h12.3v21.3H0z"/><path id="g" d="M0 0h38.5v18H0z"/></defs><g transform="translate(-1 3)" fill="none" fill-rule="evenodd"><rect stroke="#7231E5" x="28" y="27.6" width="7" height="19" rx="2"/><path d="M15.3 44.6L11.8 9.1A7 7 0 0 1 21.5 2L53 15.4a7 7 0 0 1 1.6 11.9l-28 22.1a7 7 0 0 1-11.3-4.8z" fill="#934AEF" opacity=".1"/><path fill="#7231E5" d="M26.5 27.1h9v19h-9z"/><g transform="translate(8.5 29.4)"><mask id="b" fill="#fff"><use xlink:href="#a"/></mask><path d="M10.9 16c0 .3-.3.7-.7.7H2a.7.7 0 0 1-.6-.7V2c0-.4.3-.7.6-.7h8.2c.4 0 .7.3.7.7V16zm-.7-16H2a2 2 0 0 0-2 2.1V16c0 1.1 1 2 2 2h8.2c1.1 0 2-.9 2-2V2c0-1.1-.9-2-2-2z" fill="#000" mask="url(#b)"/></g><g transform="translate(37.2 22.8)"><mask id="d" fill="#fff"><use xlink:href="#c"/></mask><path d="M11 22.6c0 .3-.4.6-.7.6H2a.7.7 0 0 1-.7-.6V2c0-.4.3-.7.7-.7h8.2c.3 0 .6.3.6.7v20.5zM10.2 0H2a2 2 0 0 0-2 2v20.6c0 1 .9 2 2 2h8.2c1 0 2-1 2-2V2c0-1.1-1-2-2-2z" fill="#000" mask="url(#d)"/></g><g transform="translate(23.3 26.1)"><mask id="f" fill="#fff"><use xlink:href="#e"/></mask><path d="M10.9 19.3c0 .3-.3.6-.7.6H2.1a.7.7 0 0 1-.7-.6V2c0-.4.3-.7.7-.7h8.1c.4 0 .7.3.7.7v17.2zM10.2 0H2.1a2 2 0 0 0-2 2.1v17.2c0 1.1.9 2 2 2h8.1c1.1 0 2-.9 2-2V2c0-1.1-.9-2-2-2z" fill="#000" mask="url(#f)"/></g><g transform="translate(10.2 8)"><mask id="h" fill="#fff"><use xlink:href="#g"/></mask><path d="M24.3 14.3c.3.3.7.3 1 0l11.9-12v1.2c0 .4.3.7.6.7.4 0 .7-.3.7-.7V.7a.7.7 0 0 0-.1-.5L38 .1h-3c-.4 0-.7.2-.7.6 0 .4.3.7.7.7h1L24.9 12.9l-6-6.1a.7.7 0 0 0-1 0l-7.1 7.1-3.3-3.3a.7.7 0 0 0-1 0L.2 16.8A.7.7 0 0 0 .5 18c.3 0 .5 0 .7-.2l5.7-5.7 3.3 3.3c.3.3.7.3 1 0l7-7.1 6 6z" fill="#000" mask="url(#h)"/></g></g></svg>