<svg width="60" height="60" xmlns="http://www.w3.org/2000/svg" xmlns:xlink="http://www.w3.org/1999/xlink"><defs><path id="a" d="M0 0h41.5v22H0z"/><path id="c" d="M0 22h41.5V0H0z"/></defs><g fill="none" fill-rule="evenodd"><g transform="translate(5.1 14)" stroke="#000" stroke-width="1.3"><circle cx="16" cy="16" r="16"/><path d="M28.4 27.5l8.2 7.3" stroke-linecap="round"/></g><g transform="translate(15 17.6)"><g><mask id="b" fill="#fff"><use xlink:href="#a"/></mask><path d="M40 5H1.5V2.2c0-.4.3-.7.6-.7h37.3c.3 0 .6.3.6.7V5zM1.5 15.6H40V6.5H1.5v9.1zM40 20c0 .4-.3.7-.6.7H2a.6.6 0 0 1-.6-.7v-2.8H40v2.8zM39.4 0H2C1 0 0 1 0 2.2v17.7C0 21.1 1 22 2.1 22h37.3c1.2 0 2.1-1 2.1-2V2.1c0-1.2-1-2.2-2.1-2.2z" fill="#000" mask="url(#b)"/></g><path d="M4.5 12.6l.6-3.8.6 3.8H4.5zM6 7.4H4.3L3 15.1h1l.3-1.4h1.4L6 15h1.2L6 7.4z" fill="#000"/><path fill="#7231E5" d="M1.8 1.8h38.8v2.7H1.8z"/><path d="M10.7 13.2c0 .6-.2.8-.6.8h-.7v-2.4h.5c.6 0 .8.2.8 1v.6zM9.4 8.5h.6c.4 0 .6.3.6.8v.4c0 .6-.3.8-.7.8h-.5v-2zM11 11c.6-.3.8-.8.8-1.5v-.3c0-1.2-.5-1.8-1.8-1.8H8.2v7.7h1.9c1.2 0 1.8-.7 1.8-1.9v-.6c0-.8-.2-1.4-.9-1.6zM16.5 10v-.7c0-1.3-.6-2-1.8-2-1.1 0-1.7.7-1.7 2v4c0 1.1.6 1.8 1.7 1.8 1.2 0 1.8-.7 1.8-1.9v-1h-1.1v1.1c0 .5-.2.7-.6.7-.4 0-.7-.2-.7-.7V9.2c0-.6.3-.8.7-.8.4 0 .6.2.6.8v.8h1.1z" fill="#000"/><mask id="d" fill="#fff"><use xlink:href="#c"/></mask><path fill="#000" mask="url(#d)" d="M19.7 11.8H22v-1.1h-2.2zM27.3 7.4c-.2.5-.4 1-1.3 1v.8h.9v5.9H28V7.4h-.8zM31.1 14v-.2c0-1.2 2.4-2.1 2.4-4.5 0-1.3-.6-2-1.8-2-1.1 0-1.8.7-1.8 2v.7h1.2v-.8c0-.6.2-.8.6-.8.4 0 .6.2.6 1 0 2.1-2.4 2.5-2.4 4.7v1h3.5V14h-2.3zM38.2 9.5v-.2c0-1.3-.6-2-1.8-2-1.2 0-1.8.7-1.8 2v.4h1.1v-.5c0-.6.3-.8.7-.8.3 0 .6.2.6 1v.3c0 .6-.3.8-.7.8h-.5v1.1h.4c.5 0 .8.3.8 1v.6c0 .7-.3.9-.6.9-.4 0-.7-.3-.7-.8v-.7h-1v.6c0 1.2.5 2 1.7 2s1.8-.8 1.8-2v-.6c0-.7-.3-1.3-.9-1.6.6-.2.9-.7.9-1.5M8.7 2.5a.8.8 0 1 1 0 1.6.8.8 0 0 1 0-1.6M8.7 18a.8.8 0 1 1 0 1.7.8.8 0 0 1 0-1.6M32.8 2.5a.8.8 0 1 1 0 1.6.8.8 0 0 1 0-1.6M32.8 18a.8.8 0 1 1 0 1.7.8.8 0 0 1 0-1.6"/></g><path d="M5.7 43l-3-29.6a7 7 0 0 1 9.7-7.2l26.4 11.2a7 7 0 0 1 1.6 12L17 47.7A7 7 0 0 1 5.7 43z" fill="#934AEF" opacity=".1"/></g></svg>