<svg width="60" height="60" xmlns="http://www.w3.org/2000/svg"><g transform="translate(2 5)" fill="none" fill-rule="evenodd"><circle fill="#7231E5" cx="15.5" cy="29.5" r="7.5"/><g fill="#000" fill-rule="nonzero"><path d="M23.37 28.23c0-5-4.1-9.07-9.12-9.07a9.1 9.1 0 0 0-9.12 9.07c0 5 4.1 9.07 9.12 9.07a9.1 9.1 0 0 0 9.12-9.07zm-16.8 0a7.67 7.67 0 0 1 7.68-7.65 7.67 7.67 0 0 1 7.68 7.65 7.67 7.67 0 0 1-7.68 7.64 7.67 7.67 0 0 1-7.69-7.64z"/><path d="M15.48 32.12c.4 0 .71-.32.71-.72 0-.4-.32-.71-.71-.71h-.49v-5.63a.72.72 0 0 0-1.05-.63l-1.25.64a.71.71 0 0 0-.3.97c.18.35.61.48.96.3l.21-.1v4.45h-.48c-.4 0-.72.32-.72.71 0 .4.32.72.72.72h2.4zM27.98 21.25h.96c.4 0 .71-.32.71-.72 0-.4-.32-.7-.71-.7h-.96c-.4 0-.72.3-.72.7 0 .4.32.72.72.72zM32.69 21.25h.96c.4 0 .72-.32.72-.72 0-.4-.33-.7-.72-.7h-.96a.71.71 0 1 0 0 1.42zM37.4 21.25h.96c.4 0 .72-.32.72-.72 0-.4-.32-.7-.72-.7h-.96a.71.71 0 1 0 0 1.42zM42.11 21.25h.96c.4 0 .72-.32.72-.72 0-.4-.32-.7-.72-.7h-.96a.71.71 0 1 0 0 1.42zM27.98 24.92h.96c.4 0 .71-.32.71-.71 0-.4-.32-.71-.71-.71h-.96c-.4 0-.72.31-.72.7 0 .4.32.72.72.72zM32.69 24.92h.96c.4 0 .72-.32.72-.71 0-.4-.33-.71-.72-.71h-.96a.71.71 0 1 0 0 1.42zM37.4 24.92h.96c.4 0 .72-.32.72-.71 0-.4-.32-.71-.72-.71h-.96a.71.71 0 1 0 0 1.42zM42.11 24.92h.96c.4 0 .72-.32.72-.71 0-.4-.32-.71-.72-.71h-.96a.71.71 0 1 0 0 1.42zM27.98 28.6h.96c.4 0 .71-.32.71-.72 0-.39-.32-.7-.71-.7h-.96c-.4 0-.72.31-.72.7 0 .4.32.72.72.72zM32.69 28.6h.96a.71.71 0 1 0 0-1.43h-.96a.71.71 0 1 0 0 1.43zM37.4 28.6h.96a.71.71 0 1 0 0-1.43h-.96a.71.71 0 1 0 0 1.43zM42.11 28.6h.96a.71.71 0 1 0 0-1.43h-.96a.71.71 0 1 0 0 1.43zM27.98 32.27h.96c.4 0 .71-.32.71-.71 0-.4-.32-.71-.71-.71h-.96c-.4 0-.72.32-.72.71 0 .4.32.71.72.71zM32.69 32.27h.96c.4 0 .72-.32.72-.71 0-.4-.33-.71-.72-.71h-.96a.71.71 0 1 0 0 1.42zM37.4 32.27h.96c.4 0 .72-.32.72-.71 0-.4-.32-.71-.72-.71h-.96a.71.71 0 1 0 0 1.42zM42.11 32.27h.96c.4 0 .72-.32.72-.71 0-.4-.32-.71-.72-.71h-.96a.71.71 0 1 0 0 1.42zM27.98 35.95h.96c.4 0 .71-.32.71-.71 0-.4-.32-.72-.71-.72h-.96a.71.71 0 1 0 0 1.43zM32.69 35.95h.96a.71.71 0 1 0 0-1.43h-.96a.71.71 0 1 0 0 1.43zM37.4 35.95h.96a.71.71 0 1 0 0-1.43h-.96a.71.71 0 1 0 0 1.43zM42.11 35.95h.96a.71.71 0 1 0 0-1.43h-.96a.71.71 0 1 0 0 1.43zM19.9 9.88a1.9 1.9 0 0 0 1.9-1.9V6.32a1.9 1.9 0 0 0-1.9-1.9h-.94a1.9 1.9 0 0 0-1.9 1.9v1.68c0 1.04.85 1.89 1.9 1.89h.94zm-1.4-1.9V6.32c0-.26.2-.47.46-.47h.94c.26 0 .47.21.47.47v1.68c0 .25-.2.46-.47.46h-.94A.47.47 0 0 1 18.5 8zM24.3 5.84h.93c.21 0 .4.14.46.35a.72.72 0 0 0 1.38-.38 1.9 1.9 0 0 0-1.84-1.4h-.94a1.9 1.9 0 0 0-1.9 1.9v1.68c0 1.04.85 1.89 1.9 1.89h.94c.73 0 1.4-.42 1.72-1.08a.71.71 0 0 0-.34-.95.72.72 0 0 0-.95.34.47.47 0 0 1-.43.26h-.94a.47.47 0 0 1-.47-.46V6.3c0-.26.21-.47.47-.47zM29.63 9.88c.4 0 .71-.32.71-.71V5.84h.8a.71.71 0 1 0 0-1.42h-3.03a.71.71 0 1 0 0 1.42h.8v3.33c0 .39.32.7.72.7zM7 38.33c-.39 0-.71.31-.71.7 0 .4.31.72.7.72h.02c.4 0 .72-.31.72-.7 0-.4-.32-.72-.71-.72H7zM8.99 38.33c-.4 0-.72.31-.73.7 0 .4.32.72.71.72H9c.4 0 .71-.31.72-.7 0-.4-.32-.72-.71-.72h-.01z"/></g><path d="M5.17.55A4.62 4.62 0 0 0 .55 5.18v38.75c0 .84.68 1.52 1.52 1.52h44.78c.84 0 1.52-.68 1.52-1.52V5.17A4.62 4.62 0 0 0 43.74.55H5.17z" stroke="#000" stroke-width="1.1"/><path d="M14.72 44.55l-3.5-35.5a7 7 0 0 1 9.69-7.13l31.5 13.36a7 7 0 0 1 1.61 11.94L26.03 49.35a7 7 0 0 1-11.3-4.8z" fill="#934AEF" opacity=".06"/></g></svg>