<svg width="60" height="60" xmlns="http://www.w3.org/2000/svg" xmlns:xlink="http://www.w3.org/1999/xlink"><defs><path id="a" d="M0 0h21v18.3H0z"/></defs><g transform="translate(-5 3)" fill="none" fill-rule="evenodd"><g transform="translate(41.6 27.5)"><mask id="b" fill="#fff"><use xlink:href="#a"/></mask><path d="M18.3 10.6c-.8 1-2 1.7-3.3 2.3a12 12 0 0 1-6 .7h-.7l-.5.4c-1 .8-2 1.5-3.2 2l.8-2 .3-1.2-1-.6c-1-.6-1.8-1.2-2.4-2-.5-.9-.8-1.7-.8-2.6 0-1 .4-2 1.2-3 .8-1 2-1.7 3.3-2.3a12 12 0 0 1 4.5-.8c1.6 0 3 .3 4.5.8 1.4.6 2.5 1.3 3.3 2.3.8 1 1.2 2 1.2 3s-.4 2.1-1.2 3m1.3-6.8c-1-1.2-2.2-2.1-3.8-2.8-1.6-.7-3.4-1-5.3-1-2 0-3.7.3-5.3 1a9.5 9.5 0 0 0-3.8 2.8 5.8 5.8 0 0 0-.3 7.2c.7 1 1.6 1.9 2.9 2.6a7.7 7.7 0 0 1-1.4 2.6 190.8 190.8 0 0 0-1 1.1v.4c-.1 0-.1 0 0 .1l.1.3.3.2 1.4-.3c2-.5 3.9-1.5 5.4-2.9l1.7.1c2 0 3.7-.3 5.3-1a9.5 9.5 0 0 0 3.8-2.8A6 6 0 0 0 21 7.6a6 6 0 0 0-1.4-3.8" fill="#000" mask="url(#b)"/></g><g fill="#000"><path d="M11.6 23l2.4-1.8V16c0-.2.2-.4.4-.4h6.8l6-4.6h.5l6 4.6h6.8c.2 0 .3.2.3.4v5l2.4 2c.2 0 .2.1.2.2v19.3c0 .2-.2.4-.4.4H11.8a.4.4 0 0 1-.3-.4V23.3l.1-.3zm2.4-1l-1.6 1.3 1.6 1.2v-2.4zm.8 3.1l12.6 9.7L40.1 25v-8.7H14.8v8.7zm26-.6l1.6-1.2-1.6-1.2v2.4zm-18.4-8.8h10l-5-3.8-5 3.8zm19.7 26.5l-10-10-4.4 3.3c-.2.1-.4.2-.5 0l-4.4-3.3-10 10H42zm-9.4-10.5l10 10V24.1l-10 7.6zm-20.5-7.6v17.6l10-10-10-7.6z" stroke="#000" stroke-width=".2" fill-rule="nonzero"/><text font-family="Helvetica-Bold, Helvetica" font-size=".1" font-weight="bold" transform="translate(8.7 11)"><tspan x="0" y="34.7">Created by </tspan> <tspan x="0" y="34.7">Danishicon</tspan></text><text font-family="Helvetica-Bold, Helvetica" font-size=".1" font-weight="bold" transform="translate(8.7 11)"><tspan x="0" y="34.7">from the Noun </tspan> <tspan x="0" y="34.7">Project</tspan></text></g><path d="M13.8 39.6l-3-30.2a7 7 0 0 1 9.7-7.2l27 11.4a7 7 0 0 1 1.5 12L25.1 44.4a7 7 0 0 1-11.3-4.8z" fill="#934AEF" opacity=".1"/><ellipse fill="#7231E5" cx="53" cy="34.8" rx="8.7" ry="5.5"/></g></svg>