<svg width="60" height="60" xmlns="http://www.w3.org/2000/svg"><g fill="none" fill-rule="evenodd"><text font-family="Roboto-Medium, Roboto" font-size="6.7" font-weight="400" fill="#000" transform="translate(-6 2)"><tspan x="24" y="15">КТ 1.2</tspan> <tspan x="24" y="23">КБМ 0.9</tspan> <tspan x="24" y="31">КМ 0.7</tspan> <tspan x="24" y="39">КВС 1</tspan></text><g stroke="#000" stroke-width="1.2"><path d="M40.6 2.6H17.8a4.2 4.2 0 0 0-4.2 4.2v37.4c0 2.3 1.9 4.2 4.2 4.2h30.4c2.3 0 4.2-1.9 4.2-4.2v-28L40.6 2.6z"/><path d="M40.6 16.7V2.6v14h-.4.4zm0 0l11.8-.2-11.8.2z"/></g><path d="M10.3 52.5L7.5 21.7a7 7 0 0 1 9.7-7L44 26a7 7 0 0 1 1.7 12l-24 19.3a7 7 0 0 1-11.4-4.8z" fill="#934AEF" opacity=".1"/><path fill="#7231E5" d="M42 4l.5 12H52z"/></g></svg>