<svg xmlns="http://www.w3.org/2000/svg" width="55" height="56" fill="none"><path fill="#934AEF" fill-rule="evenodd" d="M35.85 33.03c-4.342 3.433-10.764.707-11.308-4.802l-1.718-17.364c-.523-5.29 4.807-9.209 9.7-7.134l15.41 6.537c4.894 2.077 5.778 8.637 1.608 11.935L35.85 33.03z" clip-rule="evenodd" opacity=".06"/><path fill="#7231E5" d="M11.16 15.85h22.756l6.651 1.24-22.93-.056-6.477-1.184zM19.84 47.781h5.758l1.683 5.89-5.801-.265-1.64-5.625z"/><path fill="#000" d="M42.693 14h-31.27a.892.892 0 00-.886.897c0 .495.397.897.886.897h31.27c.488 0 .886.402.886.897H1.772c0-.495.397-.897.885-.897h2.657c.49 0 .886-.402.886-.897A.891.891 0 005.314 14H2.657C1.192 14 0 15.207 0 16.69V45.394c0 1.483 1.192 2.69 2.657 2.69h15.34l-1.328 5.382h-2.057a.892.892 0 00-.886.897c0 .495.397.897.886.897h16.126c.49 0 .886-.402.886-.897a.892.892 0 00-.886-.897h-2.057l-1.329-5.382h15.34c1.466 0 2.658-1.207 2.658-2.69V16.69c0-1.484-1.192-2.691-2.657-2.691zM1.772 18.485h41.807v24.471H27.686c-.187 0-.37.06-.52.172l-.64.47h-7.701l-.64-.47a.879.879 0 00-.52-.172H1.771V18.485zm16.723 34.98l1.329-5.382h5.702l1.33 5.382h-8.36zm25.084-8.072a.893.893 0 01-.886.896H2.657a.892.892 0 01-.885-.896v-.643h15.604l.64.471a.878.878 0 00.521.172h8.276c.187 0 .37-.06.52-.172l.64-.47H43.58v.642z"/><path fill="#000" d="M36.108 20.579c-.012-.033-.02-.064-.036-.093a.449.449 0 00-.059-.083.55.55 0 00-.079-.081c-.011-.01-.017-.022-.029-.03-.017-.012-.038-.015-.056-.024a.57.57 0 00-.218-.068c-.02-.002-.04-.011-.062-.011h-2.275c-.313 0-.568.24-.568.538 0 .298.255.538.569.538h1.156l-6.946 9.018-3.048-1.171c-.026-.01-.052-.008-.08-.014-.04-.01-.081-.021-.124-.022-.037 0-.072.009-.108.015-.036.005-.07.008-.104.02-.04.015-.074.038-.11.06-.022.015-.047.022-.068.04l-4.087 3.486-3.023-.736c-.023-.005-.045 0-.068-.003a.52.52 0 00-.115-.006c-.037.004-.07.012-.105.02-.035.01-.069.018-.102.034a.55.55 0 00-.096.059c-.018.013-.04.02-.058.036l-3.602 3.41a.518.518 0 000 .76.589.589 0 00.805 0l3.372-3.192 3.003.73a.58.58 0 00.335-.017c.018-.007.033-.019.05-.027a.535.535 0 00.12-.069c.006-.004.012-.006.018-.011l4.049-3.454 3.129 1.202.018.003c.063.023.13.036.195.036.08 0 .154-.02.225-.05.016-.008.033-.012.046-.02a.539.539 0 00.178-.144c.004-.004.008-.005.01-.009L35 22.377v.412c0 .297.255.538.568.538.315 0 .569-.24.569-.539v-2.063c0-.014-.007-.026-.008-.04a.482.482 0 00-.021-.106z"/><path fill="#000" d="M35.25 27.461L31.6 29.83c-.013.01-.021.023-.035.033a.619.619 0 00-.142.162.49.49 0 00-.038.094.441.441 0 00-.023.105c-.001.017-.011.032-.011.049v8.937h-2.464v-3.32c0-.299-.254-.538-.569-.538-.314 0-.569.24-.569.538v3.32h-1.848v-2.714c0-.298-.254-.538-.569-.538-.314 0-.569.24-.569.538v2.715h-2.109v-2.715c0-.298-.254-.538-.569-.538-.313 0-.568.24-.568.538v2.715h-1.019v-2.715c0-.298-.254-.538-.569-.538-.314 0-.569.24-.569.538v2.715h-1.706v-2.715c0-.298-.254-.538-.568-.538-.314 0-.57.24-.57.538v2.715h-6.255v-5.384h1.09c.314 0 .569-.24.569-.538 0-.3-.255-.539-.569-.539h-1.09v-1.715h2.748c.315 0 .57-.24.57-.539 0-.299-.255-.538-.57-.538h-2.748v-1.515h2.748c.315 0 .57-.24.57-.538 0-.298-.255-.539-.57-.539h-2.748v-2.422h16.777c.315 0 .57-.241.57-.539 0-.298-.255-.538-.57-.538H9.692c-.314 0-.569.24-.569.538V39.75c0 .298.255.539.569.539h22.23c.314 0 .568-.241.568-.539v-9.192l3.401-2.208a.521.521 0 00.148-.749.587.587 0 00-.79-.139z"/></svg>