<svg width="60" height="60" xmlns="http://www.w3.org/2000/svg" xmlns:xlink="http://www.w3.org/1999/xlink"><defs><path id="a" d="M0 0h34v49H0z"/></defs><g fill="none" fill-rule="evenodd"><path d="M15.27 46.55l-3.52-35.5a7 7 0 0 1 9.7-7.13l31.5 13.36a7 7 0 0 1 1.61 11.94L26.57 51.35a7 7 0 0 1-11.3-4.8z" fill="#934AEF" opacity=".06"/><path d="M27.54 15.35c1-3.64 2.28-5.67 3.86-6.1 2.37-.64 5.75-.07 6.8 1.96.7 1.35.34 3.61-1.05 6.79l-9.6-2.65z" fill="#7231E5"/><g transform="translate(11.54 6)"><mask id="b" fill="#fff"><use xlink:href="#a"/></mask><path d="M26.81 33.66c-.58 0-1.05-.46-1.05-1.04 0-.57.47-1.03 1.05-1.03.58 0 1.05.46 1.05 1.03 0 .58-.47 1.04-1.05 1.04zm0-3.88a2.86 2.86 0 0 0-2.87 2.84 2.86 2.86 0 0 0 2.87 2.85 2.86 2.86 0 0 0 2.87-2.85 2.86 2.86 0 0 0-2.87-2.84zm-16.53-3.96l-2.32-4.14 2.32-4.13 2.32 4.13-2.32 4.14zm4.16-4.57l-3.37-6a.91.91 0 0 0-1.59 0l-3.36 6a.9.9 0 0 0 0 .87l3.36 6a.91.91 0 0 0 1.6 0l3.36-6a.9.9 0 0 0 0-.87zM18.7 40a.91.91 0 0 0-.78.45.9.9 0 0 0 0 .89c.08.16.13.33.13.5 0 .58-.47 1.05-1.05 1.05a1.05 1.05 0 0 1-.92-1.55.9.9 0 0 0 0-.9.91.91 0 0 0-.78-.44c-.57-.01-1.03-.48-1.03-1.04 0-.58.47-1.04 1.05-1.04.37 0 .7.19.9.5a.91.91 0 0 0 1.56 0c.2-.31.53-.5.9-.5.58 0 1.05.46 1.05 1.04 0 .56-.46 1.03-1.03 1.04zm-.02-3.89c-.6 0-1.2.2-1.68.55a2.86 2.86 0 0 0-4.56 2.3c0 1.15.7 2.14 1.7 2.59l-.01.3A2.86 2.86 0 0 0 17 44.69a2.86 2.86 0 0 0 2.86-3.14c1-.45 1.7-1.44 1.7-2.6a2.86 2.86 0 0 0-2.88-2.84zm2.72-14.43l2.32-4.13 2.32 4.13-2.32 4.14-2.32-4.14zm3.12 6.43l3.36-5.99a.9.9 0 0 0 0-.87l-3.36-6a.91.91 0 0 0-1.6 0l-3.36 6a.9.9 0 0 0 0 .87l3.37 6a.91.91 0 0 0 1.59 0zm-14.24-7.44c.5 0 .91.4.91.9v.22c0 .5-.4.9-.91.9a.9.9 0 0 1-.91-.9v-.21c0-.5.4-.9.9-.9zm14.35.9v.22a.9.9 0 0 1-1.82 0v-.21c0-.5.4-.9.91-.9.5 0 .91.4.91.9zM17 47.2c-8.37 0-15.18-8.93-15.18-19.91 0-8.15 3.85-15.53 9.61-18.52l13.97 4.52a1.29 1.29 0 0 0 .05.02l3.04.99a23.8 23.8 0 0 1 3.69 12.99c0 10.98-6.81 19.9-15.18 19.9zm-.58-41.5l9.54 3.1-.83 2.5-9.55-3.08.84-2.52zm2.37-3.47a3.96 3.96 0 0 1 3-.23l2.04.66c1.9.61 3 2.52 2.66 4.4L17.02 4a3.9 3.9 0 0 1 1.77-1.76zm12.3 12.91l1.5.49c.47.15.99-.1 1.15-.58a.9.9 0 0 0-.59-1.14l-3.77-1.22-.04-.01-2.48-.81 1.23-3.72c.99-3-.67-6.23-3.7-7.2L22.37.27a5.78 5.78 0 0 0-7.28 3.66l-1.23 3.71-6.3-2.04a.91.91 0 0 0-1.14.58.9.9 0 0 0 .58 1.14l2.15.7a19.08 19.08 0 0 0-6.1 6.84C1.06 18.52 0 22.82 0 27.3c0 5.75 1.74 11.17 4.9 15.26C8.12 46.71 12.41 49 17 49s8.89-2.29 12.1-6.45c3.16-4.09 4.9-9.5 4.9-15.26 0-4.35-1.02-8.58-2.9-12.15zM14.73 29.8a.92.92 0 0 1 1.23-.39l1.05.54 1.05-.54a.92.92 0 0 1 1.23.4.9.9 0 0 1-.4 1.2l-1.45.75a.92.92 0 0 1-.43.1.91.91 0 0 1-.43-.1l-1.45-.74a.9.9 0 0 1-.4-1.22zM7.2 33.66c-.58 0-1.05-.46-1.05-1.04 0-.57.47-1.03 1.05-1.03.58 0 1.05.46 1.05 1.03 0 .58-.47 1.04-1.05 1.04zm0-3.88a2.86 2.86 0 0 0-2.87 2.84 2.86 2.86 0 0 0 2.87 2.85 2.86 2.86 0 0 0 2.87-2.85 2.86 2.86 0 0 0-2.87-2.84z" fill="#000" mask="url(#b)"/></g></g></svg>