<svg width="80" height="80" fill="none" xmlns="http://www.w3.org/2000/svg"><rect x="41" y="7" width="32" height="11" rx="1" fill="#7231E5"/><path d="M60.68 72.1l2.6-18.07 2.55.37-2.6 18.06-2.55-.37zM66.18 60.27l2.96 2.96-2.96 2.95 1.83 1.83 4.78-4.78-4.78-4.79-1.83 1.83zM58.44 58.44l-4.78 4.79L58.44 68l1.83-1.83-2.96-2.95 2.96-2.96-1.83-1.83z" fill="#000"/><path d="M77.27 58.81c-.39-.12-.7-.4-.83-.76a12.4 12.4 0 00-.21-.5c-.15-.36-.14-.77.05-1.14a3.96 3.96 0 00-.74-4.6l-.7-.7V3.88A3.88 3.88 0 0070.97 0H3.87A3.88 3.88 0 000 3.87v54.2a3.88 3.88 0 003.87 3.87h42.64a4 4 0 00-.06.64v1.29c0 1.72 1.1 3.23 2.73 3.77.4.13.7.4.84.76l.2.51c.16.35.14.76-.05 1.13a3.96 3.96 0 00.74 4.6l.9.9a3.96 3.96 0 004.6.74c.37-.19.78-.2 1.13-.05l.5.2c.37.15.65.45.77.84A3.96 3.96 0 0062.58 80h1.29c1.72 0 3.23-1.1 3.77-2.73.13-.39.4-.7.76-.83l.51-.21c.35-.16.76-.14 1.13.05 1.53.77 3.38.48 4.6-.74l.9-.9a3.96 3.96 0 00.74-4.6c-.19-.37-.2-.78-.05-1.13l.2-.5c.15-.36.45-.64.84-.77A3.96 3.96 0 0080 63.87v-1.29c0-1.71-1.1-3.23-2.73-3.77zM2.58 3.87c0-.71.58-1.29 1.3-1.29h67.09c.7 0 1.29.58 1.29 1.3v11.6H2.58V3.88zm1.3 55.48a1.3 1.3 0 01-1.3-1.29v-40h69.68v31.72a3.96 3.96 0 00-2.22.4c-.37.18-.78.2-1.13.04l-.5-.2a1.32 1.32 0 01-.77-.84 3.96 3.96 0 00-3.77-2.73h-1.29a3.96 3.96 0 00-3.77 2.73c-.12.4-.4.7-.76.84l-.5.2c-.36.16-.77.14-1.14-.05a3.96 3.96 0 00-4.6.74l-.9.9a3.96 3.96 0 00-.73 4.6c.18.37.2.78.04 1.13l-.2.5c-.14.37-.45.65-.84.77-.39.13-.74.32-1.06.54H3.87zm73.54 4.52c0 .6-.38 1.13-.96 1.32a3.9 3.9 0 00-2.43 2.28 13 13 0 01-.17.41 3.9 3.9 0 00.11 3.32c.28.54.17 1.18-.25 1.6l-.91.92c-.43.42-1.07.52-1.6.25a3.9 3.9 0 00-3.32-.1l-.42.16a3.9 3.9 0 00-2.28 2.44c-.2.57-.72.95-1.32.95h-1.29c-.6 0-1.13-.38-1.31-.96a3.9 3.9 0 00-2.3-2.43 12.9 12.9 0 01-.4-.17 3.82 3.82 0 00-3.32.11c-.54.27-1.18.17-1.6-.25l-.91-.91a1.38 1.38 0 01-.26-1.6 3.9 3.9 0 00.11-3.33l-.17-.41A3.9 3.9 0 0050 65.18a1.38 1.38 0 01-.96-1.31v-1.29c0-.6.39-1.13.96-1.31a3.9 3.9 0 002.43-2.3l.17-.4a3.9 3.9 0 00-.11-3.32 1.38 1.38 0 01.25-1.6l.91-.91a1.38 1.38 0 011.6-.26 3.9 3.9 0 003.33.11l.4-.17a3.9 3.9 0 002.3-2.43c.18-.57.71-.96 1.31-.96h1.29c.6 0 1.13.39 1.32.96a3.9 3.9 0 002.28 2.43l.41.17a3.9 3.9 0 003.32-.11 1.38 1.38 0 011.6.25l.92.91c.42.43.52 1.07.25 1.6a3.9 3.9 0 00-.1 3.33l.16.41a3.9 3.9 0 002.44 2.29c.57.18.95.71.95 1.31v1.29z" fill="#000"/><path d="M5.16 12.9h7.74V5.16H5.16v7.74zm2.58-5.16h2.58v2.58H7.74V7.74zM15.48 12.9h7.75V5.16h-7.75v7.74zm2.58-5.16h2.59v2.58h-2.59V7.74zM25.8 12.9h7.75V5.16H25.8v7.74zm2.59-5.16h2.58v2.58h-2.58V7.74zM45.16 20.64H9.03a3.88 3.88 0 00-3.87 3.88v20.64a3.88 3.88 0 003.87 3.87H28l6.91 4.61A3.26 3.26 0 0040 50.92v-1.89h5.16a3.88 3.88 0 003.87-3.87V24.52a3.88 3.88 0 00-3.87-3.88zm1.3 24.52a1.3 1.3 0 01-1.3 1.3h-7.74v4.46c0 .52-.64.86-1.07.58l-7.57-5.05H9.03a1.3 1.3 0 01-1.29-1.29V24.52c0-.71.58-1.3 1.3-1.3h36.12c.71 0 1.3.59 1.3 1.3v20.64zM7.74 54.2h2.58v2.57H7.74V54.2zM12.9 54.2h2.58v2.57H12.9V54.2zM18.06 54.2h2.59v2.57h-2.59V54.2zM23.23 54.2h2.58v2.57h-2.58V54.2z" fill="#000"/><path d="M12.9 30.97a2.58 2.58 0 01-2.58 2.58v2.58a2.58 2.58 0 012.58 2.58 5.17 5.17 0 005.16 5.16V41.3a2.58 2.58 0 01-2.58-2.58c0-1.55-.7-2.92-1.78-3.87a5.13 5.13 0 001.78-3.87 2.58 2.58 0 012.58-2.58V25.8a5.17 5.17 0 00-5.16 5.16zM41.29 30.97a5.17 5.17 0 00-5.16-5.16v2.58a2.58 2.58 0 012.58 2.58c0 1.55.7 2.92 1.78 3.87a5.13 5.13 0 00-1.78 3.87 2.58 2.58 0 01-2.58 2.58v2.58a5.17 5.17 0 005.16-5.16 2.58 2.58 0 012.58-2.58v-2.58a2.58 2.58 0 01-2.58-2.58zM20.65 25.8h12.9v2.59h-12.9V25.8zM20.65 30.97h12.9v2.58h-12.9v-2.58zM20.65 36.13h2.58v2.58h-2.58v-2.58zM25.8 36.13h7.75v2.58H25.8v-2.58zM20.65 41.3h12.9v2.57h-12.9V41.3zM51.61 25.8h2.58v2.59h-2.58V25.8zM56.77 25.8h12.9v2.59h-12.9V25.8zM51.61 30.97h18.07v2.58H51.6v-2.58zM51.61 36.13h5.16v2.58h-5.16v-2.58zM59.35 36.13h2.59v2.58h-2.59v-2.58zM64.52 36.13h5.16v2.58h-5.16v-2.58zM51.61 41.3h18.07v2.57H51.6V41.3zM51.61 20.64h18.07v2.59H51.6v-2.59z" fill="#000"/></svg>