<svg xmlns="http://www.w3.org/2000/svg" width="55.16" height="24.85"><g opacity=".91" fill="#d0d0d0"><path d="M51.86.76a4.22 4.22 0 0 1 2.56.96 1.63 1.63 0 0 1 .37 2.24 5.73 5.73 0 0 1-.88 1.08 17.43 17.43 0 0 0-3.31 4.48c-2.01 3.48-4.02 6.96-6.05 10.41q-1.07 1.81-2.26 3.55a1.67 1.67 0 0 1-2.64.43 2.83 2.83 0 0 1-.6-.57 1.18 1.18 0 0 1-.21-1.3c.24-.5.56-.97.86-1.44L48 6.63a5.61 5.61 0 0 0 .34-.76.37.37 0 0 0 0-.27.75.75 0 0 0-.44-.23c-1.53.36-3.07.72-4.58 1.15-3.4.95-6.8 1.9-10.18 2.92a2.59 2.59 0 0 1-2.97-.92.98.98 0 0 1 .28-1.62 15.5 15.5 0 0 1 1.57-.53c3.93-1.13 7.87-2.24 11.76-3.38 1.7-.5 3.36-1.06 5.05-1.59a8.52 8.52 0 0 1 3.03-.64z"/><path d="M2.4 19.05C-.76 17.9-.98 15.34 4.3 17.11a34.43 34.43 0 0 0 21.9-.15c1.53-.5 2.98-1.16 4.49-1.75a18.61 18.61 0 0 0 4.89-2.9c.44-.36.88-.74 1.35-1.07a1.87 1.87 0 0 1 2.54.39 1.24 1.24 0 0 1 .43.9 1.26 1.26 0 0 1-.37.94 17.72 17.72 0 0 1-4.11 3.1 42.31 42.31 0 0 1-15.01 4.8 34.19 34.19 0 0 1-5.61.25A41.37 41.37 0 0 1 2.4 19.05z"/></g></svg>