<svg width="40" height="40" xmlns="http://www.w3.org/2000/svg"><g fill="#000" stroke="#000" fill-rule="evenodd"><path d="M32.3 22.7a25.7 25.7 0 0 0-8-9.5l3.5-6c.1-.4 0-.7-.2-1A4.1 4.1 0 0 0 24.7 5a7 7 0 0 0-2.6.7l-1.6.4a1 1 0 0 1-.4 0c-1.6-.6-2.9-1-4-1-1.6 0-2.8.6-4.1 1.9-.3.2-.3.6-.1 1l3.7 5.3a26.1 26.1 0 0 0-8 9.4c-1 2.4-1.5 4.8-1.5 7.3 0 3.3 2.8 6 6.2 6h15.4c3.4 0 6.2-2.7 6.2-6 0-2.5-.5-5-1.6-7.3zm-18.7-15c.8-.7 1.6-1 2.5-1 1 0 2 .3 3.4.8l1 .2c.8 0 1.5-.3 2.2-.6.7-.3 1.4-.6 2-.6.3 0 .8 0 1.3.5l-3.2 5.7h-5.6l-3.6-5zm14 26.8H12.4c-2.5 0-4.6-2-4.6-4.5 0-4.1 1.6-8 4.7-11.6 2-2.3 4-3.7 4.6-4.1h6a24 24 0 0 1 4.6 4C30.7 22 32.3 26 32.3 30c0 2.5-2 4.5-4.6 4.5z" stroke="none" fill-rule="nonzero" stroke-width="0"/><path d="M18 20h4a2 2 0 0 1 0 4h-4v-4zm4 5a3 3 0 1 0 0-6h-4.5c-.3 0-.5.2-.5.5V24h-.5a.5.5 0 0 0 0 1h.5v2h-.5a.5.5 0 0 0 0 1h.5v2.5a.5.5 0 0 0 1 0V28h3.5a.5.5 0 0 0 0-1H18v-2h4z" stroke-width=".4"/></g></svg>