<svg width="40" height="41" fill="none" xmlns="http://www.w3.org/2000/svg"><path d="M20 24.47c-.74 0-1.33-.6-1.33-1.36 0-.75.6-1.36 1.33-1.36.74 0 1.33.61 1.33 1.36h1.34c0-1.23-.83-2.31-2-2.62v-.78h-1.34v.78a2.72 2.72 0 00.67 5.34c.74 0 1.33.61 1.33 1.36 0 .75-.6 1.36-1.33 1.36-.74 0-1.33-.6-1.33-1.36h-1.34c0 1.24.83 2.31 2 2.62v.78h1.34v-.78a2.72 2.72 0 00-.67-5.34z" fill="#000"/><path d="M20 16.31a8.75 8.75 0 00-8.66 8.84A8.75 8.75 0 0020 34a8.75 8.75 0 008.67-8.84A8.76 8.76 0 0020 16.31zm0 16.32a7.4 7.4 0 01-7.33-7.48A7.4 7.4 0 0120 17.67a7.4 7.4 0 017.33 7.48A7.42 7.42 0 0120 32.63z" fill="#000"/><path d="M39.33 14.96c.37 0 .67-.3.67-.68v-2.72-.03a.68.68 0 00-.05-.21v-.03a.68.68 0 00-.14-.2.74.74 0 00-.06-.05.67.67 0 00-.1-.08L20.32.1a.65.65 0 00-.64 0L.35 10.96a.67.67 0 00-.1.08.74.74 0 00-.06.05.68.68 0 00-.14.2v.03a.68.68 0 00-.05.21v2.75c0 .37.3.68.67.68h2v20.39h-2c-.37 0-.67.3-.67.68v4.08c0 .37.3.68.67.68h38.66c.37 0 .67-.3.67-.68v-4.08c0-.38-.3-.68-.67-.68h-2v-20.4h2zM20 1.46l16.74 9.42H3.26L20 1.46zM38.67 36.7v2.72H1.34V36.7h37.33zM4 35.35v-20.4h2.67v20.4H4zm4 0v-20.4h24v20.4H8zm25.33 0v-20.4H36v20.4h-2.67zm-32-21.75v-1.36h37.34v1.36H1.34z" fill="#000"/></svg>