<svg width="80" height="75" fill="none" xmlns="http://www.w3.org/2000/svg"><path d="M66.36 36.83l11 7.75-7 .5-3.5 5-.5-13.25zM32 57.5h13L37 64l-4.5 3.5-.5-10z" fill="#7231E5"/><path d="M51.86 22.54a1.17 1.17 0 00-2.13 0l-2.93 6.34c-.64 1.37 1.5 2.35 2.12.98l.1-.2h3.55l.1.2a1.17 1.17 0 102.12-.98l-2.93-6.34zm-1.76 4.78l.7-1.5.69 1.5H50.1zM60.18 21.76H58c-.65 0-1.17.53-1.17 1.18v6.43c0 .65.52 1.17 1.17 1.17h2.18a4.4 4.4 0 000-8.78zm0 6.44h-1v-4.1h1a2.05 2.05 0 010 4.1zM69 9.95c0-.65-.52-1.17-1.16-1.17H8.12c-1.51 0-1.51 2.34 0 2.34h59.72c.64 0 1.17-.52 1.17-1.17zM37.33 15.26H8.13c-1.52 0-1.52 2.34 0 2.34h29.2c1.5 0 1.5-2.34 0-2.34zM37.33 21.74H8.13c-1.52 0-1.52 2.34 0 2.34h29.2c1.5 0 1.5-2.34 0-2.34zM37.33 28.22H8.13c-1.52 0-1.52 2.35 0 2.35h29.2c1.5 0 1.5-2.35 0-2.35zM37.33 34.7H8.13c-1.52 0-1.52 2.35 0 2.35h29.2c1.5 0 1.5-2.35 0-2.35z" fill="#000"/><path d="M79.3 41.71l-2.62-1.93V6.51c0-3.59-2.92-6.51-6.51-6.51H17.03c-1.51 0-1.51 2.34 0 2.34h53.14c2.3 0 4.17 1.87 4.17 4.17v31.54l-5.36-3.97c.02-.09.03-.17.03-.26V16.43c0-.65-.53-1.17-1.17-1.17H43.42c-.65 0-1.17.52-1.17 1.17v19.44c0 .65.52 1.18 1.17 1.18h21.36V43H2.34V6.5c0-2.3 1.87-4.17 4.17-4.17h3.96c1.51 0 1.51-2.34 0-2.34H6.5A6.52 6.52 0 000 6.51v45.25c0 3.6 2.92 6.52 6.51 6.52h24.07v8.74H24.1c-5.06 0-5.07 7.85 0 7.85h20.75c1.51 0 1.51-2.34 0-2.34H24.1c-2.04 0-2.04-3.17 0-3.17h28.5c2.04 0 2.05 3.17 0 3.17h-.87c-1.51 0-1.51 2.34 0 2.34h.87c5.06 0 5.08-7.85 0-7.85h-6.32v-8.74h23.9c3.6 0 6.51-2.92 6.51-6.52v-6.9h1.6c1.72 0 2.32-2.18 1.01-3.15zm-7.86.81a1.8 1.8 0 00-1.4.78l-2.92 3.98V35.62l9.33 6.9h-5.01zM44.59 34.7V17.6h22.07v15.08a1.73 1.73 0 00-1.9 1.74v.28H44.6zm-.66 32.32h-11v-8.74h11v8.74zm30.41-15.26c0 2.3-1.87 4.17-4.17 4.17H6.51a4.18 4.18 0 01-4.17-4.17v-6.42h62.5v3.82c0 1.64 2.2 2.33 3.16 1l3.77-5.24h2.57v6.84z" fill="#000"/></svg>