<svg xmlns="http://www.w3.org/2000/svg" xmlns:xlink="http://www.w3.org/1999/xlink" width="1237.439" height="72.752" viewBox="0 0 1237.439 72.752"><defs><filter id="a" x="1165.119" y="0.645" width="72.32" height="72.107" filterUnits="userSpaceOnUse"><feOffset dx="4" dy="2" input="SourceAlpha"/><feGaussianBlur stdDeviation="7" result="b"/><feFlood flood-color="#d3d3d3" flood-opacity="0.514"/><feComposite operator="in" in2="b"/><feComposite in="SourceGraphic"/></filter></defs><g transform="translate(-144.003 -4742.004)"><path d="M10.286,3.808a7.68,7.68,0,0,1,13.434,0l9.3,16.784A7.68,7.68,0,0,1,26.3,32L7.7,32A7.68,7.68,0,0,1,.979,20.6Z" transform="translate(187.371 4755.523) rotate(115)" fill="#f2f5ff"/><g transform="matrix(1, 0, 0, 1, 144, 4742)" filter="url(#a)"><path d="M5.754,6.185a7.68,7.68,0,0,1,13.5,0l3.512,6.465A7.68,7.68,0,0,1,16.016,24L8.989,24A7.68,7.68,0,0,1,2.239,12.652Z" transform="translate(1214.65 39.78) rotate(150)" fill="#d863e0"/></g></g></svg>