<svg xmlns="http://www.w3.org/2000/svg" width="220.813" height="586.969" viewBox="0 0 220.813 586.969"><g transform="translate(-0.5 -1055.5)"><path d="M10.286,3.808a7.68,7.68,0,0,1,13.434,0l9.3,16.784A7.68,7.68,0,0,1,26.3,32L7.7,32A7.68,7.68,0,0,1,.979,20.6Z" transform="matrix(-0.921, -0.391, 0.391, -0.921, 132.297, 1267.74)" fill="#f2f5ff"/><path d="M10.286,3.808a7.68,7.68,0,0,1,13.434,0l9.3,16.784A7.68,7.68,0,0,1,26.3,32L7.7,32A7.68,7.68,0,0,1,.979,20.6Z" transform="matrix(-0.891, 0.454, -0.454, -0.891, 218.822, 1624.512)" fill="none" stroke="#f2f5ff" stroke-miterlimit="10" stroke-width="3.5"/><line y2="191" transform="translate(0.5 1055.5)" fill="none"/></g></svg>