<svg xmlns="http://www.w3.org/2000/svg" width="224.735" height="70.858" viewBox="0 0 224.735 70.858"><g transform="translate(-112.578 -5686.611)"><path d="M10.286,3.808a7.68,7.68,0,0,1,13.434,0l9.3,16.784A7.68,7.68,0,0,1,26.3,32L7.7,32A7.68,7.68,0,0,1,.979,20.6Z" transform="matrix(-0.891, 0.454, -0.454, -0.891, 159.822, 5739.513)" fill="none" stroke="#f2f5ff" stroke-miterlimit="10" stroke-width="3.5"/><path d="M10.286,3.808a7.68,7.68,0,0,1,13.434,0l9.3,16.784A7.68,7.68,0,0,1,26.3,32L7.7,32A7.68,7.68,0,0,1,.979,20.6Z" transform="matrix(-0.891, 0.454, -0.454, -0.891, 334.822, 5717.513)" fill="none" stroke="#f2f5ff" stroke-miterlimit="10" stroke-width="3.5"/></g></svg>