<svg xmlns="http://www.w3.org/2000/svg" width="100.311" height="68.785" viewBox="0 0 100.311 68.785"><g transform="translate(-1230.003 -5591.637)"><path d="M10.286,3.808a7.68,7.68,0,0,1,13.434,0l9.3,16.784A7.68,7.68,0,0,1,26.3,32L7.7,32A7.68,7.68,0,0,1,.979,20.6Z" transform="translate(1273.371 5629.55) rotate(115)" fill="#f2f5ff"/><path d="M10.286,3.808a7.68,7.68,0,0,1,13.434,0l9.3,16.784A7.68,7.68,0,0,1,26.3,32L7.7,32A7.68,7.68,0,0,1,.979,20.6Z" transform="matrix(-0.891, 0.454, -0.454, -0.891, 1327.822, 5622.538)" fill="none" stroke="#f2f5ff" stroke-miterlimit="10" stroke-width="3.5"/></g></svg>