<svg xmlns="http://www.w3.org/2000/svg" width="1233.926" height="81.858" viewBox="0 0 1233.926 81.858"><g transform="translate(-65.578 -4000.611)"><path d="M10.286,3.808a7.68,7.68,0,0,1,13.434,0l9.3,16.784A7.68,7.68,0,0,1,26.3,32L7.7,32A7.68,7.68,0,0,1,.979,20.6Z" transform="matrix(-0.891, 0.454, -0.454, -0.891, 292.822, 4064.513)" fill="none" stroke="#f2f5ff" stroke-miterlimit="10" stroke-width="3.5"/><path d="M10.286,3.808a7.68,7.68,0,0,1,13.434,0l9.3,16.784A7.68,7.68,0,0,1,26.3,32L7.7,32A7.68,7.68,0,0,1,.979,20.6Z" transform="matrix(-0.891, 0.454, -0.454, -0.891, 112.822, 4031.513)" fill="none" stroke="#f2f5ff" stroke-miterlimit="10" stroke-width="3.5"/><path d="M10.286,3.808a7.68,7.68,0,0,1,13.434,0l9.3,16.784A7.68,7.68,0,0,1,26.3,32L7.7,32A7.68,7.68,0,0,1,.979,20.6Z" transform="translate(1299.371 4038.523) rotate(115)" fill="#e8e8f3"/></g></svg>