<svg xmlns="http://www.w3.org/2000/svg" width="1198.5" height="385.23"><path d="M1190.57 126a7.68 7.68 0 0 1-5.68 12.17l-19.14 1.34a7.68 7.68 0 0 1-7.5-10.91l7.86-16.86a7.68 7.68 0 0 1 13.17-1.28zM35.57 350a7.68 7.68 0 0 1-5.68 12.17l-19.14 1.34a7.68 7.68 0 0 1-7.5-10.91l7.86-16.86a7.68 7.68 0 0 1 13.17-1.28z" fill="#f2f5ff"/><path d="M1022.93 239.55a7.68 7.68 0 0 1-11.97 6.1l-15.91-10.73a7.68 7.68 0 0 1 .8-13.22l16.58-8.44a7.68 7.68 0 0 1 11.16 7.1zM540.93 368.55a7.68 7.68 0 0 1-11.97 6.1l-15.91-10.73a7.68 7.68 0 0 1 .8-13.22l16.58-8.44a7.68 7.68 0 0 1 11.16 7.1zM188.93 169.55a7.68 7.68 0 0 1-11.97 6.1l-15.91-10.73a7.68 7.68 0 0 1 .8-13.22l16.58-8.44a7.68 7.68 0 0 1 11.16 7.1zM365.93 32.18a7.68 7.68 0 0 1-11.97 6.1l-15.91-10.73a7.68 7.68 0 0 1 .8-13.22l16.58-8.44a7.68 7.68 0 0 1 11.16 7.1z" fill="none" stroke="#f2f5ff" stroke-miterlimit="10" stroke-width="3.5"/></svg>