<svg xmlns="http://www.w3.org/2000/svg" fill="none" viewBox="0 0 46 46"><g clip-path="url(#clip0)"><path fill="#000" d="M44.428 14.687h-1.361c.029-.302-.1-.56-.387-.77-.04-.019-.882-.412-2.307-.855V8.679a.674.674 0 00-.674-.674c-5.738 0-10.094 1.757-12.737 3.23a22.452 22.452 0 00-3.356 2.274 19.365 19.365 0 00-1.172-5.09C20.692 3.885 17.336.979 12.73.013c-.48-.038-.751.182-.812.66v3.079a21.552 21.552 0 00-3.68-1.123c-.48-.038-.751.182-.813.66v9.28c-2.48.591-4.035 1.315-4.105 1.347-.286.211-.416.468-.387.771h-1.36C.704 14.687 0 15.393 0 16.26v20.606c0 .87 1.348.87 1.348 0V16.26c0-.124.1-.225.224-.225h1.361v26.497c0 .373.302.674.674.674h38.786a.674.674 0 00.674-.674V16.035h1.36c.124 0 .225.1.225.225v28.166c0 .124-.1.225-.224.225H25.026c-1.093-1.125-2.96-1.125-4.052 0H1.572a.225.225 0 01-.224-.225v-3.459c0-.87-1.348-.87-1.348 0v3.46c0 .866.705 1.572 1.572 1.572h19.71c.21 0 .41-.099.537-.267a1.495 1.495 0 012.362 0 .674.674 0 00.537.267h19.71c.867 0 1.572-.706 1.572-1.573V16.26c0-.867-.705-1.573-1.572-1.573zm-5.403-5.326v6.9a.674.674 0 001.348 0v-1.784c.591.195 1.05.372 1.346.493V39.508c-4.98-1.576-9.11-1.42-12.08-.817 2.587-1.134 5.96-2.066 10.06-2.066a.674.674 0 00.674-.674V20.393a.674.674 0 00-1.348 0v14.893c-5.406.13-9.524 1.806-12.063 3.221a22.57 22.57 0 00-3.287 2.216V15.248c1.026-.984 6.368-5.661 15.35-5.887zm-25.76-7.834c3.751 1.023 6.405 3.487 7.896 7.335 1.215 3.135 1.167 6.06 1.166 6.091v20.465c-1.7-4.202-4.822-6.96-9.062-8.01V1.528zm-1.347 3.686v22.732c0 .319.223.594.535.66 4.182.875 7.112 3.409 8.708 7.53.433 1.116.705 2.206.876 3.148a24.552 24.552 0 00-1.978-2.495c-2.176-2.404-5.878-5.49-11.286-6.767V13.1 4.136c1.08.272 2.134.634 3.145 1.077zM4.28 14.97a23.818 23.818 0 013.144-1.013V30.56c0 .319.224.594.536.66 5.326 1.115 8.957 4.115 11.066 6.436.86.946 1.544 1.86 2.065 2.634a19.107 19.107 0 00-3.067-1.19c-2.992-.879-7.754-1.489-13.744.407V14.97zm0 25.956c5.826-1.942 10.432-1.381 13.297-.551a17.36 17.36 0 013.596 1.484H4.281v-.933zm20.54.933a17.339 17.339 0 013.534-1.465c2.877-.845 7.505-1.42 13.364.532v.933H24.821z"/><path fill="#7245FF" d="M36.225 12.65c-5.75.575-9.87 3.162-10.925 4.6v2.012l.575-.575c4.025-3.737 9.2-4.504 11.5-4.312V12.65h-1.15z"/><path fill="#7245FF" d="M37.375 16.1h-1.15c-2.063.076-3.844.451-5.342.97-3.012 1.043-4.879 2.67-5.583 3.63v2.013l.575-.575c3.738-3.45 9.2-4.505 11.5-4.313V16.1zM12.938 40.35c-3.45-.46-6.613.767-7.763 1.438h14.663c-.863-.287-3.45-.977-6.9-1.437zM34.212 40.35c-3.45-.46-6.612.767-7.762 1.438h14.662c-.862-.287-3.45-.977-6.9-1.437z"/></g><defs><clipPath id="clip0"><path fill="#fff" d="M0 0h46v46H0z"/></clipPath></defs></svg>