<svg width="39" height="40" fill="none" xmlns="http://www.w3.org/2000/svg"><path d="M34.52 13.01l4.31-4.35a.58.58 0 00-.13-.91L24.53.07a.58.58 0 00-.68.1L19.5 4.52 15.15.17a.57.57 0 00-.68-.1L9.92 2.54a.57.57 0 00-.23.78.58.58 0 00.78.23l4.17-2.26 3.9 3.9L5.4 12.3 1.53 8.4l6.91-3.75c.14-.08.24-.2.28-.35a.58.58 0 00-.83-.67L.3 7.75a.58.58 0 00-.13.91l4.31 4.35-4.31 4.35a.58.58 0 00.13.91l4.42 2.4v10.5l.02.04v.02l.02.04v.01l.02.03v.02l.02.03.01.02.02.02.02.03.01.01.03.03.01.01.03.03.02.02h.02a.6.6 0 00.05.04l14.2 7.68a.58.58 0 00.13.05h.02l.05.01h.01a.57.57 0 00.14 0H19.63l.02-.01.05-.02h.01l.07-.03 14.2-7.68c.02 0 .03-.02.05-.03l.02-.01.02-.02.03-.03.01-.01.03-.03.01-.01.02-.03.02-.02.01-.02.01-.03.01-.02.02-.03v-.01l.02-.04v-.02l.01-.04v-.03-.02l.01-.06v-10.4l4.42-2.39a.58.58 0 00.13-.9L34.52 13zM24.36 1.3l13.11 7.1-3.87 3.91-13.15-7.1 3.91-3.91zM5.56 19.82l-4.03-2.2 3.87-3.9 13.15 7.1-3.91 3.92-9.07-4.92zm13.36 17.96L5.87 30.72v-9.43l8.6 4.66a.58.58 0 00.68-.1l3.77-3.77v15.7zm.58-17.74L6.5 13 19.5 6l13 7.02-13 7.03zm13.94-.22h-.01l-2.87 1.56a.57.57 0 10.55 1.01l2.02-1.1v9.43l-13.05 7.06v-15.7l3.77 3.77a.57.57 0 00.68.1l4.55-2.46c.14-.08.23-.2.28-.35a.58.58 0 00-.83-.67l-4.17 2.26-3.9-3.9 13.14-7.1 3.87 3.9-4.03 2.19z" fill="#000"/></svg>