<svg width="35" height="35" fill="none" xmlns="http://www.w3.org/2000/svg"><path d="M35 19.77v-17A2.78 2.78 0 0032.22 0H6.63a.51.51 0 000 1.03h25.6c.96 0 1.74.78 1.74 1.75v16.47H1.03V2.78c0-.97.78-1.75 1.75-1.75h1.8a.51.51 0 000-1.03h-1.8A2.78 2.78 0 000 2.78v19.25a2.78 2.78 0 002.78 2.78h4.01v1.24H5.6c-.58 0-1.06.47-1.06 1.06v1.2H2.2c-.58 0-1.06.48-1.06 1.06v5.12c0 .28.23.51.52.51H33.35c.29 0 .52-.23.52-.51v-5.12c0-.58-.48-1.06-1.06-1.06h-2.34v-1.2c0-.59-.48-1.06-1.06-1.06h-1.2V24.8h4.01A2.78 2.78 0 0035 22.03v-2.26zM4.42 33.97v-2.33c0-.02.02-.04.04-.04h11.36c.02 0 .03.02.03.04v2.33H4.42zm28.42-4.6v4.6H31.6v-2.33c0-.59-.47-1.06-1.06-1.06H27.6a.51.51 0 000 1.02h2.95c.02 0 .04.02.04.04v2.33H19.15v-2.33c0-.02.01-.04.03-.04h6.35a.51.51 0 000-1.02h-6.35c-.59 0-1.06.47-1.06 1.06v2.33h-1.24v-2.33c0-.59-.48-1.06-1.06-1.06H4.46c-.59 0-1.06.47-1.06 1.06v2.33H2.16v-4.6c0-.02.01-.03.03-.03h30.62c.02 0 .03.01.03.03zm-3.4-2.26v1.17c0 .02-.01.03-.03.03H5.59a.03.03 0 01-.03-.03V27.1c0-.02.01-.04.03-.04H29.4c.02 0 .03.02.03.04zm-2.26-1.06H7.82V24.8h19.36v1.24zm5.04-2.27H2.78c-.97 0-1.75-.78-1.75-1.75v-1.75h32.94v1.75c0 .97-.78 1.75-1.75 1.75z" fill="#000"/><path d="M31.09 21.52h-1.13a.51.51 0 100 1.02h1.13a.51.51 0 000-1.02zM27.7 21.52h-1.14a.51.51 0 100 1.02h1.13a.51.51 0 000-1.02zM24.3 21.52h-1.14a.51.51 0 100 1.02h1.13a.51.51 0 000-1.02zM12.11 15.07a7.35 7.35 0 005.39 2.38 7.27 7.27 0 005.39-2.38 7.28 7.28 0 00.97-8.52 7.33 7.33 0 00-7.8-3.58 7.33 7.33 0 00-5.87 7.17c0 1.9.73 3.63 1.92 4.93zm3.36-8.6l1.52.4v.78L15.3 8.87l-.76-.24.09-1.55c.25-.24.53-.44.83-.61zm4.06 0c.3.17.58.37.83.6l.09 1.56-.76.24L18 7.65v-.78l1.52-.4zm3.13 7.25l-.44-1.36c.19-.4.32-.81.4-1.24l1.16-.84a6.24 6.24 0 01-1.12 3.44zm-2.24 1.98l-1.4-1.02.94-1.15 1.39-.54.53 1.65c-.43.42-.92.77-1.46 1.06zm-2.4-1.4c-.35.04-.7.04-1.04 0L16 13.08l.48-.68h2.06l.48.68-1 1.22zm-4.9.34l.53-1.65 1.39.54.93 1.15-1.4 1.02a6.31 6.31 0 01-1.45-1.06zm1.12-5.03l.76.23.64 1.96-.48.68-1.46-.57a4.15 4.15 0 01-.32-.98l.86-1.32zm3.26-1.07l1.49 1.09-.57 1.74h-1.84l-.57-1.74 1.49-1.09zm3.26 1.07l.86 1.32c-.07.34-.18.67-.32.98l-1.46.57-.48-.68.64-1.96.76-.23zm2.93-.54l-1.4 1.02-.8-1.25-.09-1.48h1.73c.27.53.46 1.1.56 1.71zm-10.17-.23l-.81 1.25-1.4-1.02c.1-.6.3-1.18.56-1.71h1.73l-.08 1.48zm-1.15 2.28c.09.43.22.84.4 1.24l-.43 1.36a6.25 6.25 0 01-1.12-3.44l1.15.84zm3.32 5.03l1.16-.84a5.28 5.28 0 001.3 0l1.16.84a6.26 6.26 0 01-3.62 0zm6.8-9.82h-1.42c-.32-.3-.67-.55-1.06-.76l-.44-1.36a6.3 6.3 0 012.93 2.12zm-4.09-2.4l.54 1.64-1.44.38-1.44-.38.54-1.65a6.3 6.3 0 011.8 0zm-2.97.28l-.44 1.36c-.39.2-.74.46-1.06.76H12.5a6.31 6.31 0 012.93-2.12z" fill="#000"/></svg>