<svg width="40" height="40" xmlns="http://www.w3.org/2000/svg" xmlns:xlink="http://www.w3.org/1999/xlink"><defs><path id="a" d="M0 0h38v37H0z"/></defs><g fill="none" fill-rule="evenodd"><path d="M20.97 6.84c.27 0 .48-.2.5-.46v-.02a.49.49 0 1 0-.5.48" fill="#000"/><g transform="translate(1 1)"><mask id="b" fill="#fff"><use xlink:href="#a"/></mask><path d="M19 1.45c9.33 0 17.52 7.96 17.52 17.05S28.33 35.55 19 35.55 1.48 27.6 1.48 18.5 9.67 1.45 19 1.45M38 18.5C38 8.55 29.25 0 19 0 8.77 0 0 8.53 0 18.5 0 28.46 8.76 37 19 37c10.23 0 19-8.53 19-18.5z" fill="#000" mask="url(#b)"/></g><path d="M34.13 19.33c0-6.26-4.82-11.99-11.1-13.44a.72.72 0 0 0-.86.52.7.7 0 0 0 .53.85c5.7 1.32 9.99 6.5 9.99 12.07 0 6.6-5.93 12.4-12.69 12.4s-12.69-5.8-12.69-12.4c0-5.56 4.3-10.75 9.99-12.07a.7.7 0 0 0 .53-.85.72.72 0 0 0-.87-.52C10.7 7.34 5.87 13.06 5.87 19.33c0 7.34 6.57 13.8 14.13 13.8 7.51 0 14.13-6.41 14.13-13.8z" fill="#000"/><path d="M13.29 20.06c-.38.4-.83.6-1.33.6-.6 0-1.07-.2-1.43-.62A2.43 2.43 0 0 1 10 18.4c0-.44.09-.84.27-1.2a2 2 0 0 1 .77-.85c.33-.2.72-.3 1.15-.3.69 0 1.23.26 1.63.76.4.5.6 1.18.6 2.03v.32c0 1.21-.27 2.14-.83 2.78-.55.63-1.37.96-2.47.97h-.14v-.93h.17c.66-.01 1.18-.17 1.53-.48.36-.31.56-.79.6-1.44zm-1.1-.28c.23 0 .44-.06.64-.2.2-.12.36-.3.46-.53v-.44c0-.5-.1-.9-.3-1.2a.93.93 0 0 0-.8-.45.92.92 0 0 0-.78.4c-.2.27-.3.6-.3 1.01 0 .42.1.76.3 1.02.2.26.46.4.78.4zm7.87 3.1H15.5v-.77l2.26-2.45c.33-.36.56-.66.7-.9.13-.25.2-.49.2-.73 0-.32-.09-.58-.27-.78a.95.95 0 0 0-.73-.3c-.37 0-.65.12-.86.34-.2.22-.3.52-.3.91h-1.13c0-.41.1-.78.28-1.1.19-.34.46-.6.8-.77.36-.19.76-.28 1.22-.28.65 0 1.17.17 1.55.5.39.32.58.78.58 1.36 0 .33-.1.69-.3 1.06-.18.36-.5.78-.93 1.25l-1.66 1.76h3.15v.9zm.96-7.07c0-.53.17-.96.51-1.3.34-.34.8-.51 1.35-.51.57 0 1.02.17 1.36.5.34.35.51.8.51 1.34v.43c0 .53-.17.96-.5 1.3-.35.33-.8.5-1.36.5-.54 0-1-.17-1.34-.5a1.74 1.74 0 0 1-.53-1.33v-.43zm1.03.46c0 .28.07.5.23.67a.8.8 0 0 0 .61.26c.25 0 .46-.09.6-.26a1 1 0 0 0 .24-.7v-.43c0-.28-.08-.5-.23-.67a.79.79 0 0 0-.62-.26.77.77 0 0 0-.6.26c-.16.17-.23.4-.23.69v.44zm3.2 4.46c0-.53.18-.97.53-1.3.35-.33.8-.5 1.35-.5s1 .17 1.35.5c.35.33.52.78.52 1.35v.42c0 .52-.17.95-.5 1.3-.34.33-.8.5-1.36.5-.57 0-1.02-.17-1.37-.5a1.76 1.76 0 0 1-.51-1.33v-.44zm1.04.47c0 .27.08.5.24.67a.8.8 0 0 0 .61.26c.26 0 .46-.08.6-.25.16-.16.23-.4.23-.7v-.45c0-.28-.08-.5-.24-.67a.8.8 0 0 0-.6-.25.79.79 0 0 0-.61.25.99.99 0 0 0-.23.7v.44zm-3.1 1.02l-.75-.43 4.3-6.84.76.43-4.3 6.84z" fill="#000" fill-rule="nonzero"/></g></svg>