<svg width="43" height="43" viewBox="0 0 43 43" fill="none" xmlns="http://www.w3.org/2000/svg">
<g clip-path="url(#clip0)">
<path d="M40.9592 13.8654C40.7273 13.4639 40.2136 13.3262 39.8119 13.5583C39.4103 13.7903 39.2728 14.304 39.5048 14.7056C40.6925 16.7615 41.3203 19.1109 41.3203 21.4997C41.3203 29 35.2184 35.1018 27.7181 35.1018C20.2178 35.1018 14.1159 29 14.1159 21.4997C14.1159 13.9993 20.2178 7.89746 27.7181 7.89746C30.1074 7.89746 32.4571 8.5255 34.513 9.71346C34.9146 9.94584 35.4283 9.80802 35.6603 9.40649C35.8925 9.00496 35.755 8.49123 35.3534 8.25918C33.0422 6.92375 30.4021 6.21777 27.7181 6.21777C23.8071 6.21777 20.2352 7.69523 17.5294 10.1204H8.06249C7.59872 10.1204 7.22264 10.4965 7.22264 10.9603C7.22264 11.424 7.59872 11.8001 8.06249 11.8001H15.9177C15.0282 12.8804 14.2846 14.0848 13.7155 15.3826H9.20929C8.74553 15.3826 8.36945 15.7587 8.36945 16.2224C8.36945 16.6862 8.74553 17.0623 9.20929 17.0623H13.094C12.7449 18.2106 12.5273 19.4155 12.4596 20.6598H5.20483C4.74107 20.6598 4.36499 21.0359 4.36499 21.4997C4.36499 21.9634 4.74107 22.3395 5.20483 22.3395H12.4597C12.5273 23.5838 12.745 24.7887 13.0941 25.9371H9.49022C9.02646 25.9371 8.65038 26.3131 8.65038 26.7769C8.65038 27.2407 9.02646 27.6167 9.49022 27.6167H13.7155C14.2846 28.9145 15.0282 30.1189 15.9177 31.1992H7.54178C7.07802 31.1992 6.70194 31.5753 6.70194 32.039C6.70194 32.5028 7.07802 32.8789 7.54178 32.8789H17.5295C20.2353 35.3041 23.8072 36.7815 27.7182 36.7815C36.1446 36.7815 43 29.9261 43 21.4997C43 18.8163 42.2943 16.1763 40.9592 13.8654Z" fill="#994EF0"/>
<path d="M37.9317 12.1265C38.1467 12.1265 38.3615 12.0445 38.5255 11.8805L38.5349 11.8712C38.8628 11.5432 38.8628 11.0114 38.5349 10.6834C38.2068 10.3555 37.6752 10.3555 37.3471 10.6834L37.3378 10.6927C37.0098 11.0207 37.0098 11.5525 37.3378 11.8805C37.5019 12.0445 37.7168 12.1265 37.9317 12.1265Z" fill="#994EF0"/>
<path d="M16.1282 21.5C16.1282 27.8907 21.3273 33.0898 27.718 33.0898C34.1087 33.0898 39.3079 27.8907 39.3079 21.5C39.3079 15.1093 34.1087 9.91016 27.718 9.91016C21.3273 9.91016 16.1282 15.1093 16.1282 21.5ZM37.6282 21.5C37.6282 26.9644 33.1825 31.4102 27.718 31.4102C22.2536 31.4102 17.8079 26.9644 17.8079 21.5C17.8079 16.0356 22.2536 11.5898 27.718 11.5898C33.1825 11.5898 37.6282 16.0356 37.6282 21.5Z" fill="#994EF0"/>
<path d="M26.8782 14.7235V15.4144C26.7667 15.4376 26.6542 15.4652 26.5402 15.4995C25.439 15.8303 24.616 16.7712 24.3925 17.9548C24.1879 19.0381 24.5368 20.0843 25.3028 20.6853C25.7021 20.9984 26.1982 21.2846 26.8782 21.5865V25.8764C26.3113 25.8307 25.9445 25.688 25.3251 25.2828C24.9371 25.029 24.4165 25.1377 24.1625 25.5259C23.9086 25.914 24.0173 26.4345 24.4056 26.6885C25.3706 27.3199 26.0308 27.5108 26.8782 27.5605V28.2757C26.8782 28.7395 27.2543 29.1155 27.7181 29.1155C28.1818 29.1155 28.5579 28.7395 28.5579 28.2757V27.4652C30.1301 27.0798 31.1383 25.7429 31.3599 24.4247C31.6466 22.7189 30.755 21.2363 29.0885 20.6471C28.9139 20.5854 28.736 20.5212 28.5579 20.455V17.1565C29.0044 17.3043 29.2979 17.5128 29.3122 17.5231C29.6818 17.7995 30.2055 17.7259 30.4845 17.3576C30.7646 16.9879 30.6921 16.4611 30.3223 16.181C30.2776 16.1473 29.583 15.632 28.5578 15.4201V14.7236C28.5578 14.2599 28.1818 13.8838 27.718 13.8838C27.2542 13.8838 26.8782 14.2598 26.8782 14.7235ZM29.7034 24.146C29.6029 24.7443 29.2143 25.377 28.5578 25.6922V22.2419C29.8375 22.7116 29.7588 23.8164 29.7034 24.146ZM26.3393 19.3635C26.0729 19.1546 25.9566 18.724 26.043 18.2664C26.1194 17.8615 26.379 17.3787 26.8782 17.1623V19.7144C26.6765 19.6017 26.4938 19.4847 26.3393 19.3635Z" fill="#994EF0"/>
<path d="M5.15089 25.9375H1.94067C1.47691 25.9375 1.10083 26.3136 1.10083 26.7773C1.10083 27.2411 1.47691 27.6172 1.94067 27.6172H5.15089C5.61465 27.6172 5.99074 27.2411 5.99074 26.7773C5.99074 26.3136 5.61465 25.9375 5.15089 25.9375Z" fill="#994EF0"/>
<path d="M1.67969 21.5C1.67969 21.2791 1.58982 21.0624 1.43353 20.9062C1.2774 20.7499 1.06072 20.6602 0.839844 20.6602C0.618965 20.6602 0.402285 20.7499 0.246074 20.9062C0.0898633 21.0625 0 21.2791 0 21.5C0 21.7209 0.0897793 21.9376 0.246074 22.0937C0.402285 22.25 0.618965 22.3398 0.839844 22.3398C1.06072 22.3398 1.2774 22.25 1.43353 22.0937C1.58982 21.9376 1.67969 21.7209 1.67969 21.5Z" fill="#994EF0"/>
<path d="M1.94067 17.0625H5.15089C5.61465 17.0625 5.99074 16.6864 5.99074 16.2227C5.99074 15.7589 5.61465 15.3828 5.15089 15.3828H1.94067C1.47691 15.3828 1.10083 15.7589 1.10083 16.2227C1.10083 16.6864 1.47691 17.0625 1.94067 17.0625Z" fill="#994EF0"/>
</g>
<defs>
<clipPath id="clip0">
<rect width="43" height="43" fill="white"/>
</clipPath>
</defs>
</svg>
