<svg xmlns="http://www.w3.org/2000/svg" fill="none" viewBox="0 0 45 45"><path fill="#7245FF" d="M16.714 32.141h11.571v3.857H16.714zM4.5 22.5h12.214v1.286H4.5z"/><path fill="#000" d="M22.715 31.454h-1.372v1.371h1.372v-1.37z"/><path fill="#000" d="M33.75 0C28.45 0 24 7.059 22.806 17.25H17.25a.75.75 0 00-.75.75v2.25h-4.099l-2.777-4.166A.75.75 0 009 15.75H.75a.75.75 0 00-.624 1.166L3 21.227v2.546L.126 28.084A.75.75 0 00.75 29.25H9a.75.75 0 00.624-.334l2.777-4.166H13.5v1.5c0 .2.079.39.22.53l2.03 2.03v15.44c0 .415.335.75.75.75h12a.75.75 0 00.75-.75v-1.08c1.403 1.201 2.934 1.83 4.5 1.83C40.058 45 45 35.117 45 22.5S40.058 0 33.75 0zM2.151 17.25h6.448l2 3H4.151l-2-3zm6.448 10.5H2.15l2-3H10.6l-2 3zM12 23.25H4.5v-1.5h12v1.5H12zm15.75 18.086V43.5h-10.5v-6h10.5v3.836zm0-5.336h-10.5v-4.5h10.5V36zm0-15v9h-10.5v-1.5c0-.2-.079-.39-.22-.53L15 25.94v-1.19h2.25A.75.75 0 0018 24v-5.25h9.75V21zm1.448-3.262c-.01-.024-.021-.046-.033-.069a.738.738 0 00-.107-.159c-.016-.018-.03-.037-.047-.054a.738.738 0 00-.202-.14c.84-6.868 3.135-10.566 4.941-10.566 2.483 0 5.25 6.468 5.25 15.75s-2.767 15.75-5.25 15.75c-1.737 0-3.542-3.145-4.5-7.837V24.75h1.547c.134 3.424.691 9.75 2.953 9.75 2.916 0 3-10.771 3-12 0-1.229-.084-12-3-12-2.262 0-2.819 6.326-2.953 9.75H29.25V18a.742.742 0 00-.052-.262zm.052 5.512v-1.5h3v1.5h-3zm3.75-3h-.703c.198-4.838.975-7.532 1.454-8.162.568.736 1.499 4.247 1.499 10.412 0 6.165-.93 9.676-1.5 10.411-.478-.629-1.255-3.323-1.453-8.161H33a.75.75 0 00.75-.75v-3a.75.75 0 00-.75-.75zm.75 23.25c-1.551 0-3.104-.842-4.5-2.44V35.522c1.196 2.705 2.767 4.228 4.5 4.228 3.272 0 6.75-6.046 6.75-17.25S37.022 5.25 33.75 5.25c-3.073 0-5.568 4.69-6.438 12h-2.998C25.43 8.074 29.335 1.5 33.75 1.5c5.285 0 9.75 9.617 9.75 21s-4.465 21-9.75 21z"/><path fill="#000" d="M22.458 8.229h-8.229v1.37h8.229V8.23zM12.857 8.229h-1.371v1.37h1.37V8.23zM10.114 8.229H8.742v1.37h1.372V8.23zM19.714 10.974h-8.228v1.371h8.228v-1.371zM10.114 10.974H8.742v1.371h1.372v-1.371zM7.372 10.974H6v1.371h1.372v-1.371z"/></svg>