<svg width="45" height="46" viewBox="0 0 45 46" fill="none" xmlns="http://www.w3.org/2000/svg">
<path d="M39.375 25.7949C38.9867 25.7949 38.6719 26.1097 38.6719 26.498V31.4248H37.5532C37.2775 28.9861 35.0771 27.2327 32.6384 27.5083C30.5795 27.741 28.9548 29.3659 28.722 31.4248H14.0625V11.0342H38.6719V13.2455C38.6719 13.6338 38.9867 13.9486 39.375 13.9486C39.7633 13.9486 40.0781 13.6338 40.0781 13.2455V10.3311C40.0781 9.94275 39.7633 9.62793 39.375 9.62793H13.3594C12.9711 9.62793 12.6562 9.94275 12.6562 10.3311V11.0342H4.60406C2.83895 11.0365 1.40854 12.4668 1.40625 14.232V15.2529C1.40625 15.6412 1.72107 15.9561 2.10938 15.9561H2.92711L2.39062 22.4002C0.986572 22.7656 0.00492187 24.0311 0 25.482V31.4248C0 31.8131 0.314824 32.1279 0.703125 32.1279H2.12695C2.3197 34.6423 4.51433 36.5244 7.0287 36.3316C9.27519 36.1595 11.0602 34.3744 11.2324 32.1279C11.2388 32.1279 11.2437 32.1314 11.25 32.1314H12.6562C12.6562 32.5197 12.9711 32.8346 13.3594 32.8346H28.7859C29.2868 35.2379 31.6412 36.7802 34.0446 36.2793C35.7758 35.9185 37.1284 34.5658 37.4892 32.8346H39.375C39.7633 32.8346 40.0781 32.5197 40.0781 32.1314V26.498C40.0781 26.1096 39.7633 25.7949 39.375 25.7949ZM6.67969 34.9404C4.93225 34.9404 3.51562 33.5238 3.51562 31.7764C3.51562 30.0289 4.93225 28.6123 6.67969 28.6123C8.42713 28.6123 9.84375 30.0289 9.84375 31.7764C9.84182 33.523 8.42634 34.9385 6.67969 34.9404ZM12.6562 30.7217H11.25C11.2088 30.726 11.168 30.7342 11.1284 30.7463C10.5629 28.2895 8.11283 26.7563 5.65611 27.3218C3.96211 27.7117 2.63663 29.0299 2.23734 30.7217H1.40625V25.482C1.40739 24.493 2.20887 23.6916 3.19781 23.6904H12.6562V30.7217ZM12.6562 22.2842H3.81094L4.33828 15.9561H12.6562V22.2842ZM12.6562 14.5498H2.8125V14.232C2.81364 13.243 3.61512 12.4416 4.60406 12.4404H12.6562V14.5498ZM36.1718 32.0998C36.0815 33.7084 34.7493 34.9657 33.1383 34.9629H33.1376C31.6623 34.9597 30.4027 33.8972 30.1507 32.4436C30.2739 32.2283 30.2599 31.9608 30.1148 31.7595C30.2088 30.0869 31.6409 28.8072 33.3135 28.9011C34.9861 28.9951 36.2659 30.4272 36.1718 32.0998Z" fill="black"/>
<path d="M38.6719 15.2529H28.8281C28.4398 15.2529 28.125 15.5678 28.125 15.9561C28.125 16.3444 28.4398 16.6592 28.8281 16.6592H38.6719C39.0602 16.6592 39.375 16.3444 39.375 15.9561C39.375 15.5678 39.0602 15.2529 38.6719 15.2529Z" fill="black"/>
<path d="M40.0781 22.9873H24.6094C24.2211 22.9873 23.9062 23.3021 23.9062 23.6904C23.9062 24.0787 24.2211 24.3935 24.6094 24.3935H40.0781C40.4664 24.3935 40.7812 24.0787 40.7812 23.6904C40.7812 23.3021 40.4664 22.9873 40.0781 22.9873Z" fill="black"/>
<path d="M38.6719 18.7686H30.9375C30.5492 18.7686 30.2344 19.0834 30.2344 19.4717C30.2344 19.86 30.5492 20.1748 30.9375 20.1748H38.6719C39.0602 20.1748 39.375 19.86 39.375 19.4717C39.375 19.0834 39.0602 18.7686 38.6719 18.7686Z" fill="black"/>
<path d="M41.4844 16.6592H42.8906C43.2789 16.6592 43.5938 16.3444 43.5938 15.9561C43.5938 15.5678 43.2789 15.2529 42.8906 15.2529H41.4844C41.0961 15.2529 40.7812 15.5678 40.7812 15.9561C40.7812 16.3444 41.0961 16.6592 41.4844 16.6592Z" fill="black"/>
<path d="M43.5938 22.9873H42.1875C41.7992 22.9873 41.4844 23.3021 41.4844 23.6904C41.4844 24.0787 41.7992 24.3935 42.1875 24.3935H43.5938C43.9821 24.3935 44.2969 24.0787 44.2969 23.6904C44.2969 23.3021 43.9821 22.9873 43.5938 22.9873Z" fill="black"/>
<path d="M44.2969 18.7686H41.4844C41.0961 18.7686 40.7812 19.0834 40.7812 19.4717C40.7812 19.86 41.0961 20.1748 41.4844 20.1748H44.2969C44.6852 20.1748 45 19.86 45 19.4717C45 19.0834 44.6852 18.7686 44.2969 18.7686Z" fill="black"/>
</svg>
