<svg width="95" height="85" fill="none" xmlns="http://www.w3.org/2000/svg"><path d="M94.7 24.44C78.27 3.35 78.98 3.88 78.1 3.79L52.35.33c-6.5-.88-10.9.26-13.15.46a1.38 1.38 0 00.37 2.74c2.28-.21 6.37-1.28 12.4-.47l17.68 2.38L47.5 9.96 25.35 5.44 33 4.41a1.38 1.38 0 00-.36-2.73L16.9 3.79h-.02l-.07.02h-.04l-.03.01-.05.02c-.02 0-.05 0-.07.02h-.03l-.01.01-.04.02c-.03 0-.05.02-.08.03l-.03.02-.03.01-.03.02c-.6.35-.31.38-16.09 20.47-.33.42-.38.99-.14 1.47.55 1.1-.92-1.08 29.53 39.35a1.38 1.38 0 102.2-1.66L5.14 28.14l21.62 6.81 16.65 43.9-7.62-10.1a1.38 1.38 0 10-2.2 1.67l8.85 11.73c1 1.14 2.4 1.85 3.73 2.08.2.03 2.51.03 2.7 0a6.5 6.5 0 003.78-2.16l26.94-35.71a1.38 1.38 0 00-2.2-1.66L51.6 78.86l16.65-43.91 21.62-6.8-8.62 11.4a1.38 1.38 0 002.2 1.67C95.03 25.88 94.4 26.8 94.86 25.9c.24-.48.19-1.05-.14-1.47zM47.5 13.46l16.65 19h-33.3l16.65-19zM3.55 24.75l13.1-16.8 8.87 23.72-21.97-6.92zM19.24 7l25.66 5.23L28.29 31.2 19.24 7.01zM47.65 81.5h-.3L29.8 35.2h35.4L47.65 81.5zm19.06-50.3l-16.6-18.95 25.65-5.23-9.05 24.18zm2.77.48l8.88-23.71 13.09 16.79-21.97 6.92z" fill="#964CF0"/></svg>