<svg width="92" height="93" fill="none" xmlns="http://www.w3.org/2000/svg"><path d="M90.65 54.72c.75 0 1.35-.6 1.35-1.35V40.7a6.75 6.75 0 00-6.74-6.73H78.6V16.53a1.35 1.35 0 10-2.7 0v17.44h-2.7V8.54a3.15 3.15 0 00-3.14-3.15H8.54A3.15 3.15 0 005.4 8.54v24.89a1.35 1.35 0 102.7 0V8.53c0-.24.2-.44.44-.44h61.52c.25 0 .45.2.45.45v25.43h-6.84a6.75 6.75 0 00-6.74 6.73v11.46H8.54a.45.45 0 01-.45-.45v-12a1.35 1.35 0 10-2.7 0v12a3.15 3.15 0 003.15 3.14h48.39v2.7H5.8a3.12 3.12 0 01-3.11-3.12V5.81C2.7 4.1 4.1 2.7 5.8 2.7h67c1.7 0 3.1 1.4 3.1 3.11v4.43a1.35 1.35 0 102.7 0V5.81C78.6 2.61 76 0 72.8 0h-67C2.6 0 0 2.6 0 5.81v48.62c0 3.2 2.6 5.81 5.8 5.81h12.58l-2.03 3.4h-3.02a4.22 4.22 0 000 8.42h8.92a1.35 1.35 0 100-2.7h-8.92a1.52 1.52 0 010-3.03h43.6v3.04H28.56a1.35 1.35 0 100 2.7h28.37v13.2a6.75 6.75 0 006.74 6.74h21.6A6.75 6.75 0 0092 85.27v-25.6a1.35 1.35 0 10-2.7 0v20.66H59.62V46.9H89.3v6.47c0 .75.6 1.35 1.35 1.35zM19.5 63.64l2.02-3.4h35.42v3.4H19.49zM89.3 83.03v2.24a4.05 4.05 0 01-4.04 4.05h-21.6a4.05 4.05 0 01-4.04-4.05v-2.24H89.3zM59.62 44.2v-3.5a4.05 4.05 0 014.05-4.05h21.6a4.05 4.05 0 014.03 4.04v3.5H59.62z" fill="#964CF0"/><path d="M78.94 38.82h-9.11a1.35 1.35 0 100 2.7h9.11a1.35 1.35 0 100-2.7z" fill="#964CF0"/></svg>