<svg width="42" height="31" fill="none" xmlns="http://www.w3.org/2000/svg"><path d="M27.55 0H1.45C.65 0 0 .78 0 1.75v21c0 .97.65 1.75 1.45 1.75h10.43l-1.59 5.25H8.7c-.27 0-.48.26-.48.58 0 .33.21.59.48.59h11.6c.27 0 .48-.26.48-.59 0-.32-.21-.58-.48-.58h-1.6l-1.58-5.25h10.43c.8 0 1.45-.78 1.45-1.75v-21C29 .78 28.35 0 27.55 0zm-9.87 29.75h-6.36l1.58-5.25h3.2l1.58 5.25zM28.03 2.33h-1.45c-.26 0-.48.26-.48.59 0 .32.22.58.48.58H29v16.33H16.92c-.27 0-.49.26-.49.59 0 .32.22.58.49.58h11.11v1.75c0 .32-.21.58-.48.58H1.45c-.27 0-.48-.26-.48-.58V21h11.11c.27 0 .49-.26.49-.58 0-.33-.22-.59-.49-.59H.97V3.5h23.68c.27 0 .48-.26.48-.58 0-.33-.21-.59-.48-.59H.97v-.58c0-.32.21-.58.48-.58h26.1c.27 0 .48.26.48.58v.58z" fill="#000"/><path d="M14.98 19.83h-.96c-.27 0-.49.26-.49.59 0 .32.22.58.49.58h.96c.27 0 .49-.26.49-.58 0-.33-.22-.59-.49-.59z" fill="#000"/><path d="M30.16 27.66h9.68c1.2 0 2.16-.97 2.16-2.16V7.16C42 5.96 41.03 5 39.84 5h-9.68C28.96 5 28 5.97 28 7.16V25.5c0 1.19.97 2.16 2.16 2.16zm3.79-1.7a1.05 1.05 0 112.1 0 1.05 1.05 0 01-2.1 0zm-4.47-19.3H40.6v17.75H29.48V6.66z" fill="#020202"/></svg>