<svg width="40" height="40" xmlns="http://www.w3.org/2000/svg" xmlns:xlink="http://www.w3.org/1999/xlink"><defs><circle id="b" cx="28.5" cy="28.5" r="9.5"/><filter x="-76.3%" y="-65.8%" width="252.6%" height="252.6%" filterUnits="objectBoundingBox" id="a"><feOffset dy="2" in="SourceAlpha" result="shadowOffsetOuter1"/><feGaussianBlur stdDeviation="4.5" in="shadowOffsetOuter1" result="shadowBlurOuter1"/><feColorMatrix values="0 0 0 0 0.905740489 0 0 0 0 0.905740489 0 0 0 0 0.905740489 0 0 0 0.841919799 0" in="shadowBlurOuter1"/></filter></defs><g fill="none" fill-rule="evenodd"><g fill="#FFF"><path d="M1 1v32h25V8.78L18.24 1H1zm1.06 1.07H17.5v7.46h7.45v22.4H2.06V2.07zm16.5.75l5.62 5.65h-5.63V2.82z"/><path d="M6.17 9.59h4.89c.3 0 .54-.24.54-.53 0-.3-.24-.53-.54-.53H6.17c-.3 0-.54.24-.54.53 0 .3.24.53.54.53M15.4 20.18H6.17c-.3 0-.54.23-.54.53 0 .29.24.53.54.53h9.23c.3 0 .54-.24.54-.53 0-.3-.24-.53-.54-.53M20.83 16.47h-3.8c-.3 0-.54.24-.54.53 0 .3.24.53.54.53h3.8c.3 0 .54-.24.54-.53 0-.3-.24-.53-.54-.53M6.17 13.82H8.9c.3 0 .54-.23.54-.53 0-.29-.24-.53-.54-.53H6.17c-.3 0-.54.24-.54.53 0 .3.24.53.54.53M14.31 13.82h3.8c.3 0 .55-.23.55-.53 0-.29-.25-.53-.55-.53h-3.8c-.3 0-.54.24-.54.53 0 .3.24.53.54.53M11.06 13.3c0 .13.06.27.15.37.1.1.25.15.39.15s.28-.05.39-.15c.1-.1.15-.24.15-.38a.55.55 0 0 0-.15-.37.58.58 0 0 0-.78 0c-.1.1-.15.24-.15.37M8.89 16.47c-.3 0-.55.24-.55.53 0 .3.25.53.55.53h5.42c.3 0 .55-.24.55-.53 0-.3-.25-.53-.55-.53H8.9zM6.17 17.53c.14 0 .28-.06.39-.15.1-.1.16-.24.16-.38a.55.55 0 0 0-.16-.38.58.58 0 0 0-.77 0c-.1.1-.16.24-.16.38s.06.28.16.38c.1.1.24.15.38.15M20.83 23.88h-3.8c-.3 0-.54.24-.54.53 0 .3.24.53.54.53h3.8c.3 0 .54-.24.54-.53 0-.3-.24-.53-.54-.53M14.31 23.88H8.9c-.3 0-.55.24-.55.53 0 .3.25.53.55.53h5.42c.3 0 .55-.24.55-.53 0-.3-.25-.53-.55-.53M5.79 24.04a.53.53 0 0 0 0 .75c.1.1.24.15.38.15.15 0 .28-.06.39-.15.1-.1.16-.24.16-.38a.51.51 0 0 0-.16-.37.57.57 0 0 0-.77 0M20.44 12.92c-.1.1-.16.24-.16.37 0 .14.06.28.16.38.1.1.25.15.39.15s.28-.05.38-.15a.53.53 0 0 0 0-.75.58.58 0 0 0-.77 0M18.5 21.08c.1-.1.16-.24.16-.37a.55.55 0 0 0-.16-.38.58.58 0 0 0-.77 0c-.1.1-.16.24-.16.38 0 .13.06.27.16.37.1.1.24.16.38.16.15 0 .29-.06.39-.16M20.44 20.33c-.1.1-.16.24-.16.38 0 .13.06.27.16.37.1.1.24.16.39.16.14 0 .28-.06.38-.16.1-.1.16-.24.16-.37a.55.55 0 0 0-.16-.38.58.58 0 0 0-.77 0"/></g><g transform="translate(1 1)"><use fill="#000" filter="url(#a)" xlink:href="#b"/><use fill="#FFF" xlink:href="#b"/></g><g stroke="#DA0B0B" stroke-width="2"><path d="M24 24l11 11M35 24L24 35"/></g></g></svg>