<svg width="40" height="40" xmlns="http://www.w3.org/2000/svg" xmlns:xlink="http://www.w3.org/1999/xlink"><defs><circle id="b" cx="28.5" cy="28.5" r="9.5"/><filter x="-76.3%" y="-65.8%" width="252.6%" height="252.6%" filterUnits="objectBoundingBox" id="a"><feOffset dy="2" in="SourceAlpha" result="shadowOffsetOuter1"/><feGaussianBlur stdDeviation="4.5" in="shadowOffsetOuter1" result="shadowBlurOuter1"/><feColorMatrix values="0 0 0 0 0.905740489 0 0 0 0 0.905740489 0 0 0 0 0.905740489 0 0 0 0.841919799 0" in="shadowBlurOuter1"/></filter></defs><g fill="none" fill-rule="evenodd"><g fill="#000"><path d="M1 1v32h25V8.78L18.241 1H1zm1.064 1.067h15.425v7.466h7.447v22.4H2.064V2.068zm16.49.754l5.63 5.646h-5.63V2.82z"/><path d="M6.172 9.588h4.885c.3 0 .543-.236.543-.53a.536.536 0 0 0-.543-.529H6.172c-.3 0-.542.237-.542.53 0 .293.243.53.542.53M15.4 20.177H6.172c-.3 0-.542.236-.542.53 0 .292.243.529.542.529H15.4c.3 0 .543-.237.543-.53a.536.536 0 0 0-.543-.53M20.828 16.47h-3.8c-.3 0-.543.237-.543.53 0 .293.243.53.543.53h3.8c.3 0 .542-.237.542-.53a.536.536 0 0 0-.542-.53M6.172 13.823h2.714c.3 0 .543-.236.543-.529a.536.536 0 0 0-.543-.53H6.172c-.3 0-.542.237-.542.53 0 .293.243.53.542.53M14.314 13.823h3.8c.3 0 .542-.236.542-.529a.536.536 0 0 0-.542-.53h-3.8c-.3 0-.543.237-.543.53 0 .293.244.53.543.53M11.057 13.294c0 .138.06.275.158.376a.578.578 0 0 0 .385.153.578.578 0 0 0 .386-.153.55.55 0 0 0 .157-.376.548.548 0 0 0-.157-.376.579.579 0 0 0-.771 0 .548.548 0 0 0-.158.376M8.886 16.47c-.3 0-.542.237-.542.53 0 .293.243.53.542.53h5.428c.3 0 .543-.237.543-.53a.536.536 0 0 0-.543-.53H8.886zM6.172 17.53a.578.578 0 0 0 .386-.154.55.55 0 0 0 .157-.376.548.548 0 0 0-.157-.376.578.578 0 0 0-.771 0A.538.538 0 0 0 5.63 17c0 .138.06.276.157.376a.578.578 0 0 0 .385.154M20.828 23.883h-3.8c-.3 0-.543.236-.543.529 0 .293.243.53.543.53h3.8c.3 0 .542-.237.542-.53a.536.536 0 0 0-.542-.53M14.314 23.883H8.886c-.3 0-.542.236-.542.529 0 .293.243.53.542.53h5.428c.3 0 .543-.237.543-.53a.536.536 0 0 0-.543-.53M5.787 24.036a.529.529 0 0 0 0 .752.578.578 0 0 0 .385.153.568.568 0 0 0 .386-.153.55.55 0 0 0 .157-.376.514.514 0 0 0-.157-.37.573.573 0 0 0-.771-.006M20.442 12.918a.548.548 0 0 0-.157.376c0 .138.06.275.157.376a.578.578 0 0 0 .386.153.58.58 0 0 0 .385-.153.526.526 0 0 0 0-.752.579.579 0 0 0-.77 0M18.499 21.082a.55.55 0 0 0 .157-.376.547.547 0 0 0-.157-.376.579.579 0 0 0-.77 0 .547.547 0 0 0-.158.376c0 .138.06.275.157.376.104.1.24.153.386.153a.568.568 0 0 0 .385-.153M20.442 20.33a.546.546 0 0 0-.157.376c0 .138.06.275.157.376a.568.568 0 0 0 .386.154.57.57 0 0 0 .385-.154.55.55 0 0 0 .157-.376.546.546 0 0 0-.157-.376.579.579 0 0 0-.77 0"/></g><g transform="translate(1 1)"><use fill="#000" filter="url(#a)" xlink:href="#b"/><use fill="#FFF" xlink:href="#b"/></g><g stroke="#DA0B0B" stroke-width="2"><path d="M24 24l11 11M35 24L24 35"/></g></g></svg>