<svg xmlns="http://www.w3.org/2000/svg" xmlns:xlink="http://www.w3.org/1999/xlink" width="610" height="145"><defs><clipPath id="a"><path d="M76 2v46H54v23H35.58c-.08.67-.14 1.33-.2 2-1.16 12.53 1.03 24.09 6.06 33.97l1.69 3.03a46.18 46.18 0 003.43 5.19c1.25 1.66 1.69 2.58 2.47 3.69C62.32 133.8 82.13 141 105 141c50.65 0 93.63-22.44 112.66-72.84 13.5 1.38 26.44-2.08 32.34-13.6-9.4-5.42-21.48-3.68-28.44-.19L240 2l-72 46h-23V2z"/></clipPath></defs><path d="M467.82 113.24l-.04-25.56-.13-45.65M493.5 61.7l-25.72 25.98 25.85 25.65M321.3 88.03a26.1 26.1 0 00-4.7-15.62c-4.65-6.53-12.18-11-20.44-11.09-.55 0-1.1 0-1.65.04-3.26.2-6.43.66-9.22 1.82-18.4 7.66-21.66 33.21-6.14 44.77 13.45 10.01 33 5.93 39.78-9.35a28.07 28.07 0 002.37-10.58v-46.2m124.15 22.55c-3.81-2.46-8.26-3.35-12.65-3.34-.48 0-.97.02-1.4.04-12.71.54-24.5 9.53-24.5 26.95 0 20.6 22.09 31.72 38.59 22m74.13-2.24l39.06-33.47s-.95-1.8-1.57-2.62c-5.25-7.06-13.28-10.58-21.75-10.58-20.9 0-36.58 27.04-15.74 46.67a18.71 18.71 0 005.63 3.35c7.65 3.18 18.12 2.92 23.78-1.27m-185-48.67c-.6.02-1.18.08-1.78.09-15.85.29-27.28 16.76-23.82 32.03 3.37 14.88 19.63 23.7 33.68 18.83 16.36-4.29 23.03-24.89 14.05-38.8-4.91-7.61-13.24-12.31-22.13-12.15zm240.73.51c-6.42.02-12.68 2.27-17.31 6.6-7.3 6.03-8.9 13.65-8.8 23.28l.21 21.87" fill="none" stroke="#394d54" stroke-width="10.5" stroke-linecap="round" stroke-linejoin="round"/><path d="M147.49 45.73h22.86v23.38h11.57c5.33 0 10.83-.95 15.88-2.67a40.69 40.69 0 007.73-3.49c-3.23-4.21-4.88-9.53-5.36-14.78-.66-7.13.78-16.42 5.6-22l2.4-2.78 2.87 2.3c7.21 5.8 13.28 13.89 14.35 23.12 8.68-2.56 18.87-1.95 26.53 2.47l3.14 1.8-1.65 3.23c-6.48 12.64-20 16.55-33.24 15.86-19.8 49.3-62.9 72.65-115.16 72.65-27 0-51.77-10.1-65.87-34.05-.83-1.48-1.54-3.04-2.29-4.57-4.77-10.54-6.35-22.1-5.28-33.64l.33-3.45h19.55V45.73h22.87V22.87h45.73V0h27.44v45.73" fill="#394d54"/><g clip-path="url(#a)"><g id="d"><g transform="translate(0 -22.87)" id="c"><path d="M123.86 3.81h19.82v19.82h-19.82z" fill="#00acd3"/><path d="M123.86 26.68h19.82v19.81h-19.82z" fill="#20c2ef"/><path d="M126.3 21.98V5.46m2.96 16.52V5.46m3 16.52V5.46m3 16.52V5.46m3.01 16.52V5.46m2.97 16.52V5.46" id="b" stroke="#394d54" stroke-width="1.56"/><use transform="translate(0 22.87)" xlink:href="#b"/></g><use transform="matrix(1 0 0 -1 22.87 4.57)" xlink:href="#c"/></g><use transform="translate(-91.46 45.73)" xlink:href="#d"/><use transform="translate(-45.73 45.73)" xlink:href="#d"/><use transform="translate(0 45.73)" xlink:href="#d"/></g><path d="M221.57 54.38c1.53-11.92-7.38-21.28-12.91-25.72-6.38 7.37-7.37 26.68 2.63 34.8-5.58 4.96-17.34 9.46-29.37 9.46H34C32.83 85.48 34 146 34 146h217l-.99-91.42c-9.4-5.43-21.48-3.7-28.44-.2" clip-path="url(#a)" fill="#17b5eb"/><path d="M34 89v57h217V89" clip-path="url(#a)" fill-opacity=".17"/><path d="M111.24 140.89c-13.54-6.43-20.97-15.16-25.1-24.7L45 118l21 28 45.24-5.11" clip-path="url(#a)" fill="#d4edf1"/><path d="M222.5 53.94v.03c-20.86 26.89-50.78 50.38-82.9 62.72-28.66 11-53.64 11.06-70.88 2.22-1.86-1.05-3.68-2.22-5.5-3.32-12.64-8.83-19.76-23.44-19.16-42.68H34V146h217V50h-25z" clip-path="url(#a)" fill-opacity=".09"/><path d="M45.63 117.03c14.16.78 29.28.92 42.46-3.22" fill="none" stroke="#394d54" stroke-width="3.4" stroke-linecap="round"/><path d="M102.17 106.96a5.47 5.47 0 11-10.93 0 5.47 5.47 0 0110.93 0z" fill="#d4edf1"/><path d="M98.12 103.3a1.6 1.6 0 102.2 2.16 3.91 3.91 0 11-2.2-2.15zM0 90.16h254.33c-5.54-1.4-17.52-3.3-15.55-10.56-10.07 11.65-34.35 8.18-40.48 2.43-6.82 9.9-46.55 6.14-49.32-1.57-8.56 10.04-35.07 10.04-43.63 0-2.77 7.7-42.5 11.47-49.32 1.57-6.13 5.75-30.41 9.22-40.48-2.43C17.52 86.86 5.54 88.76 0 90.16" fill="#394d54"/></svg>