<svg width="50" height="49" fill="none" xmlns="http://www.w3.org/2000/svg"><path d="M28.67 27.8a.73.73 0 00.78 1.23c.05-.03.79-.5 1.4-1.35l.37.21a.73.73 0 001-.25c.21-.34.1-.8-.25-1l-.45-.27.05-.18c.23-.92-.08-1.9-.82-2.56a2.3 2.3 0 00-2.33-.52c-.36.14-.75.35-1.2.67l-2.91-1.74c.24-.31.48-.5.97-.72a.73.73 0 10-.64-1.32c-.8.39-1.22.75-1.6 1.28L22.6 21a.73.73 0 00-.75 1.26l.5.3c-.4 1.28.12 2.57.96 3.28 1.08.93 2.5.93 3.63 0l.37-.3 2.3 1.38c-.43.54-.92.87-.93.88zm-4.42-3.07c-.35-.3-.61-.8-.57-1.36l2.28 1.37c-.82.64-1.51.16-1.7-.01zm4.7-.25c.23-.09.56 0 .82.24.21.19.4.5.41.84l-1.56-.93a3 3 0 01.33-.15zM22.95 31.03a.73.73 0 00-1 .25l-1.07 1.77a.73.73 0 001.26.76l1.06-1.78c.21-.34.1-.8-.25-1zM31.8 17.71l1.07-1.77a.73.73 0 00-1.26-.75l-1.06 1.77a.73.73 0 001.25.75zM25.27 43.06a.73.73 0 00-.75 1.26l.17.1a.73.73 0 001-.25c.21-.35.1-.8-.25-1l-.17-.1zM11.24 34.64l-.17-.1a.73.73 0 10-.75 1.25l.17.1a.73.73 0 001-.25c.2-.35.1-.8-.25-1zM42.51 14.36l.17.1a.73.73 0 001-.25c.22-.35.1-.8-.24-1l-.17-.11a.73.73 0 00-.76 1.26zM28.48 5.93a.73.73 0 001-.25c.22-.35.1-.8-.24-1l-.17-.1a.73.73 0 10-.76 1.25l.17.1z" fill="#414141"/><path d="M40.47 10.86L32.53 6.1a.73.73 0 00-1.01.25 3.69 3.69 0 01-5.05 1.27.73.73 0 00-1 .25l-13.95 23.2a.73.73 0 00.25 1.01 3.69 3.69 0 011.26 5.05c-.2.35-.1.8.25 1l7.95 4.78c.34.2.8.1 1-.25a3.66 3.66 0 015.05-1.26c.35.2.8.1 1-.25l2.76-4.59a.73.73 0 00-1.25-.75l-2.4 4a5.1 5.1 0 00-6 1.5l-6.77-4.08c.89-2.1.27-4.55-1.5-5.98L26.38 9.19c2.1.89 4.55.28 5.98-1.49l6.78 4.07a5.16 5.16 0 001.5 5.99l-9.34 15.53a.73.73 0 001.26.75l9.68-16.11c.2-.35.1-.8-.25-1a3.69 3.69 0 01-1.26-5.06c.2-.35.1-.8-.25-1z" fill="#414141"/><path d="M46.01 20.85l-.95-1.83 3.01-5.03c.5-.83.23-1.9-.6-2.4L35.66 4.5a.73.73 0 00-.75 1.26l11.82 7.1c.13.08.18.25.1.39L26.3 47.39a.28.28 0 01-.38.1L7.03 36.15a.28.28 0 01-.1-.4L27.45 1.6a.28.28 0 01.39-.1l4.52 2.72c.34.2.8.12 1.02-.21a.73.73 0 00-.24-1.03L28.6.25c-.83-.5-1.9-.23-2.4.6l-3.02 5.02-2.07.02A35.29 35.29 0 005.9 9.49a.73.73 0 10.64 1.31 33.81 33.81 0 0114.58-3.45h1.18l-9.8 16.3a4.23 4.23 0 01-2.11 1.77c-.3.11-.64.1-.9-.08a.98.98 0 01-.44-.61.98.98 0 01.14-.77l2.38-3.55c.27-.4.25-.93-.07-1.3-.3-.38-.82-.5-1.27-.3l-3.67 1.57a1.4 1.4 0 01-1.94-1.17c-.03-.4.11-.77.39-1.05l2.11-2.17a1 1 0 00.12-1.27A1 1 0 006 14.34l-2.94 1.18c-.79.31-1.66-.34-1.6-1.17.06-.58.5-.83.52-.84.6-.43 1.24-.85 1.9-1.25.32-.2.47-.6.32-.94a.73.73 0 00-1.05-.33c-1.13.68-1.83 1.2-2.06 1.35a2.57 2.57 0 00-1.08 1.9 2.64 2.64 0 003.6 2.64l.97-.4-.63.66a2.82 2.82 0 00-.8 2.18 2.87 2.87 0 003.97 2.41l2.52-1.08-1.68 2.5a2.44 2.44 0 00.48 3.26 2.46 2.46 0 002.1.49L5.69 35c-.5.83-.23 1.9.6 2.4l18.88 11.34c.83.5 1.9.23 2.4-.6l4.87-8.1a2.45 2.45 0 004.52.52l1.42-2.65.23 2.72a2.87 2.87 0 003.99 2.38 2.82 2.82 0 001.56-1.73l.27-.87.11 1.05a2.64 2.64 0 004.03 1.93 2.57 2.57 0 001.16-1.84c-.02-.82 1.82-10.13-3.7-20.7zm2.26 20.51a1.11 1.11 0 01-1.43.92c-.01 0-.76-.18-.85-.98l-.34-3.15a1 1 0 00-.91-.9 1 1 0 00-1.07.7l-.92 2.88c-.45 1.42-2.57 1.15-2.7-.32l-.32-3.99a1.08 1.08 0 00-.87-.98c-.48-.1-.95.13-1.18.56l-2.02 3.77a.98.98 0 01-1.85-.37c-.12-.95.08-1.9.57-2.71l9.8-16.3.54 1.04c5.33 10.2 3.54 19.28 3.55 19.83z" fill="#414141"/><path d="M10.65 13.86c.04-.02 3.62-2.24 6.96-1.4a.73.73 0 10.36-1.41c-3.95-1-7.93 1.46-8.1 1.57a.73.73 0 00.78 1.24zM41.28 26.94a.73.73 0 00-.22 1.01c1.85 2.9.88 7 .87 7.05a.73.73 0 001.42.35c.05-.2 1.14-4.75-1.05-8.19a.73.73 0 00-1.02-.22z" fill="#414141"/></svg>