<svg width="50" height="50" viewBox="0 0 50 50" fill="none" xmlns="http://www.w3.org/2000/svg">
<path d="M44.7273 2.42871H12.3956C9.58968 2.42871 7.30682 4.69022 7.30682 7.46097L7.09846 35.9307H0.788762C0.341599 35.9307 0 36.3261 0 36.7733V40.6914C0 44.3592 2.93522 47.3589 6.47773 47.5234V47.5704H33.7044V47.5174C33.9069 47.5257 34.0294 47.5704 34.1686 47.5704H34.188C37.9661 47.5483 41.0117 44.4687 40.9919 40.6906V15.789H49.2112C49.6584 15.789 50 15.3842 50 14.9374V7.74841C50.0051 4.82663 47.6491 2.44967 44.7273 2.42871V2.42871ZM6.83198 45.951H6.82645C3.94618 45.951 1.61943 43.5705 1.61943 40.6906V37.5502H27.3279V40.6771C27.3216 42.4998 28.0416 44.2497 29.3285 45.5402C29.4653 45.6778 29.6084 45.7485 29.7547 45.951H6.83198ZM39.3724 40.6898C39.3724 43.5705 37.0682 45.951 34.1868 45.951H34.1702C31.2745 45.93 28.9406 43.5732 28.9474 40.6775V36.7733C28.9497 36.3198 28.5911 35.9465 28.1376 35.9307H8.71789L8.92625 7.46651C8.92625 5.58336 10.4824 4.04814 12.3956 4.04814H40.9045C39.9817 5.06029 39.3724 6.34089 39.3724 7.77015V40.6898ZM48.3805 7.76264V14.1696H40.9919V7.76857C40.9919 5.74191 42.6777 4.04814 44.7036 4.04814H44.7261C46.7572 4.06831 48.39 5.7253 48.3805 7.75671V7.76264Z" fill="black"/>
<path d="M19.0136 22.3596L23.1884 25.2138C23.4608 25.4016 23.8209 25.4016 24.0934 25.2138L28.2554 22.3604C29.7013 21.374 30.7692 19.3117 30.7692 17.563V11.7883C30.7779 11.483 30.6094 11.1999 30.3374 11.0612L23.9811 7.93459C23.7581 7.82389 23.4963 7.82389 23.2734 7.93459L16.9289 11.0525C16.6568 11.1912 16.4888 11.4743 16.4979 11.7796V17.563C16.4979 19.3117 17.5682 21.374 19.0136 22.3596ZM18.1173 12.2848L23.6335 9.56312L29.1497 12.2924V17.563C29.1497 18.7827 28.3503 20.3342 27.3417 21.0217L23.624 23.5643L19.921 21.0221C18.9124 20.3338 18.1173 18.7827 18.1173 17.563V12.2848Z" fill="black"/>
<path d="M22.2641 18.7851C22.4151 18.9393 22.6215 19.0266 22.8374 19.0278H22.8394C23.0544 19.027 23.2604 18.9408 23.4119 18.7882L26.6329 15.566C26.9496 15.2497 26.9496 14.7365 26.6333 14.4202C26.3174 14.1035 25.8042 14.1035 25.4879 14.4198L22.8421 17.0652L21.7845 15.9973C21.4694 15.6794 20.9566 15.6771 20.6387 15.9922C20.3208 16.3073 20.3189 16.8201 20.6336 17.138L22.2641 18.7851Z" fill="black"/>
<path d="M33.7043 27.5303H14.2711C13.824 27.5303 13.4614 27.8928 13.4614 28.34C13.4614 28.7872 13.824 29.1497 14.2711 29.1497H33.7043C34.1515 29.1497 34.5141 28.7872 34.5141 28.34C34.5141 27.8928 34.1515 27.5303 33.7043 27.5303Z" fill="black"/>
<path d="M33.7043 31.2754H14.2711C13.824 31.2754 13.4614 31.6379 13.4614 32.0851C13.4614 32.5323 13.824 32.8948 14.2711 32.8948H33.7043C34.1515 32.8948 34.5141 32.5323 34.5141 32.0851C34.5141 31.6379 34.1515 31.2754 33.7043 31.2754Z" fill="black"/>
</svg>
