<svg width="118" height="30" viewBox="0 0 118 30" fill="none" xmlns="http://www.w3.org/2000/svg">
<path d="M71.86 8.547C70.14 8.566 68.45 9.005 66.935 9.827C66.935 5.363 67.003 1.487 67.106 0L58.042 1.765V2.595L58.932 2.699C60.197 2.872 60.676 3.633 60.847 5.329C61.121 8.616 61.087 26.159 60.847 28.962C63.381 29.569 65.973 29.894 68.577 29.931C75.759 29.931 80.103 25.433 80.103 18.304C80.069 12.63 76.546 8.547 71.86 8.547V8.547ZM68.714 28.512C68.1979 28.506 67.683 28.4599 67.174 28.374C67.038 26.401 66.935 18.27 66.969 11.176C67.6483 10.9309 68.367 10.8136 69.089 10.83C72.066 10.83 73.741 14.325 73.741 18.685C73.707 24.291 71.655 28.512 68.714 28.512ZM23.976 8.754L22.574 9.134C21.308 4.983 19.359 2.63 15.699 2.63H10.979C10.774 5.294 10.671 9.723 10.706 14.325L13.886 14.221C16.007 14.152 16.862 12.561 17.376 10.242H18.572V20H17.375C16.862 17.647 15.973 16.055 13.852 15.986L10.706 15.882C10.74 19.377 10.842 22.352 10.979 24.118C11.184 26.713 11.903 27.855 13.715 28.131L15.323 28.304V29.481H0V28.304L1.266 28.131C3.078 27.855 3.796 26.713 4.002 24.118C4.344 19.827 4.412 10.934 4.002 5.952C3.797 3.391 3.078 2.249 1.266 1.972L0 1.8V0.657H23.84L23.976 8.754ZM31.603 8.304C38.376 8.304 41.728 12.941 41.728 19.1C41.728 25.26 37.931 29.965 31.158 29.965C24.387 29.965 21.001 25.329 21.001 19.205C21.001 13.08 24.797 8.305 31.603 8.305V8.304ZM31.261 9.619C28.251 9.619 27.431 13.702 27.431 19.135C27.431 24.567 28.765 28.651 31.535 28.651C34.305 28.651 35.365 24.567 35.365 19.135C35.365 13.702 33.998 9.654 31.227 9.654L31.261 9.619V9.619ZM81.745 19.343C81.745 13.668 85.268 8.339 92.279 8.339C97.957 8.339 100.659 12.595 100.693 18.166H88.004C87.867 23.218 90.398 26.955 95.255 26.955C97.375 26.955 98.539 26.436 99.838 25.433L100.42 26.159C99.017 28.131 96.076 30 92.177 30C86.054 29.965 81.745 25.606 81.745 19.343ZM88.072 16.747L94.434 16.609C94.468 13.772 94.024 9.689 91.732 9.689C89.441 9.689 88.107 13.529 88.038 16.713L88.072 16.747V16.747ZM116.974 14.706L115.948 14.983C114.853 11.349 113.178 9.827 110.715 9.827C109.073 9.827 107.91 11.073 107.91 12.872C107.91 14.672 109.244 15.606 113.075 17.093C116.905 18.581 118 20.069 118 22.976C118 27.301 114.717 29.966 109.312 29.966C106.873 29.9558 104.455 29.5228 102.164 28.686L101.993 22.699L103.019 22.422C104.489 26.609 106.439 28.132 109.005 28.132C111.57 28.132 112.391 26.574 112.391 24.913C112.391 23.253 111.467 22.318 108.013 21.073C104.558 19.827 102.472 18.478 102.472 14.844C102.472 11.211 105.55 8.304 110.646 8.304C113.006 8.304 115.264 8.72 116.769 9.412L116.974 14.706V14.706ZM57.187 14.533C54.451 12.664 51.475 13.495 50.894 14.498C50.6957 18.1871 50.7184 21.8847 50.962 25.571C51.099 27.266 51.612 28.028 52.878 28.201L54.519 28.304V29.481H41.9V28.304L42.789 28.201C44.054 28.028 44.533 27.266 44.704 25.571C44.969 21.5961 44.969 17.6079 44.704 13.633C44.567 11.938 44.054 11.176 42.789 11.003L41.899 10.9V10.07L50.963 8.304L50.861 13.08C52.981 8.166 57.154 7.509 59.411 8.893L57.188 14.533H57.187Z" fill="black"/>
</svg>
