<svg width="52" height="53" fill="none" xmlns="http://www.w3.org/2000/svg"><path d="M16.84 21.42h-5.3c-.44 0-.87.22-.87.63v9.86c0 .4.49.62.99.62.48 0 .98-.21.98-.62v-4.16h2.33c.42 0 .6-.42.6-.76 0-.41-.2-.8-.6-.8h-2.33v-3.03h4.2c.4 0 .6-.41.6-.88 0-.41-.18-.86-.6-.86zM25.64 31.33l-2-3.7c1.14-.34 2-1.28 2-3.03 0-2.42-1.62-3.18-3.6-3.18h-3.01a.62.62 0 00-.64.61v9.88c0 .4.5.62.99.62.5 0 .98-.21.98-.62v-3.97h1.28l2.16 4.2c.15.3.4.47.68.47.58 0 1.23-.53 1.23-1.04a.41.41 0 00-.07-.24zm-3.6-4.94h-1.68v-3.23h1.67c1 0 1.63.42 1.63 1.62 0 1.2-.64 1.61-1.63 1.61zM33.32 30.8h-4.3v-3.05h2.31c.43 0 .63-.42.63-.76 0-.41-.23-.8-.63-.8h-2.3v-3.03h4.3c.39 0 .62-.41.62-.88 0-.41-.2-.86-.63-.86h-5.4c-.45 0-.87.22-.87.63v9.86c0 .4.42.62.86.62h5.41c.43 0 .63-.44.63-.85 0-.47-.23-.88-.63-.88zM41.38 30.8h-4.3v-3.05h2.3c.43 0 .63-.42.63-.76 0-.41-.23-.8-.62-.8h-2.31v-3.03h4.3c.4 0 .62-.41.62-.88 0-.41-.2-.86-.62-.86h-5.41c-.44 0-.87.22-.87.63v9.86c0 .4.43.62.87.62h5.4c.43 0 .63-.44.63-.85 0-.47-.23-.88-.62-.88z" fill="#414141"/><path d="M47.2 25.78v-.32l-.02-.23-.02-.43-.01-.1-.05-.51v-.02a20.97 20.97 0 00-1.92-6.88A21.24 21.24 0 0026 5.13 21.24 21.24 0 004.9 24.17v.02l-.05.5v.1l-.03.44-.01.23-.01.32a21.62 21.62 0 000 1.12v.31l.02.24.02.42.01.11a21 21 0 001.97 7.4A21.24 21.24 0 0026 47.55 21.24 21.24 0 0047.1 28.5v-.02a21 21 0 00.05-.5v-.12l.03-.42.01-.24.01-.31a21.36 21.36 0 000-1.12zm-3.18 8.43h-3.57a.77.77 0 100 1.54h2.82a19.69 19.69 0 01-34.54 0h28.14a.77.77 0 100-1.54H7.97a19.56 19.56 0 010-15.75h3.58a.77.77 0 100-1.54H8.73a19.69 19.69 0 0134.54 0H15.13a.77.77 0 100 1.54h28.9a19.56 19.56 0 010 15.75z" fill="#414141"/><path d="M51.23 24.86c.65-.9.9-2 .7-3.1-.19-1.1-.8-2.04-1.72-2.66a2.52 2.52 0 01-1.01-2.78c.3-1.07.16-2.19-.4-3.15a4.03 4.03 0 00-2.52-1.91 2.52 2.52 0 01-1.9-2.27 4.04 4.04 0 00-4.48-3.76 2.52 2.52 0 01-2.57-1.48 4.03 4.03 0 00-5.5-2c-.97.48-2.15.27-2.9-.51a4.03 4.03 0 00-5.84 0c-.77.78-1.95.99-2.93.51-1-.48-2.12-.54-3.17-.16a4.03 4.03 0 00-2.32 2.16c-.45 1-1.48 1.6-2.57 1.48A4.04 4.04 0 007.63 9c-.08 1.09-.84 2-1.9 2.27a4.03 4.03 0 00-2.93 5.06c.3 1.05-.1 2.17-1.01 2.78a4.03 4.03 0 00-1.02 5.76c.65.88.65 2.07 0 2.96a4.03 4.03 0 001.02 5.75c.9.62 1.31 1.73 1.01 2.79a4.03 4.03 0 00.4 3.14 4.03 4.03 0 002.52 1.92 2.52 2.52 0 011.9 2.27c.09 1.1.6 2.1 1.45 2.82a4.04 4.04 0 003.03.93 2.52 2.52 0 012.57 1.48 4.03 4.03 0 005.5 2 2.52 2.52 0 012.9.52c.78.8 1.82 1.23 2.93 1.23s2.15-.44 2.92-1.23c.76-.79 1.93-1 2.92-.52a4.03 4.03 0 005.5-2c.44-1 1.47-1.6 2.56-1.48a4.03 4.03 0 004.48-3.76c.07-1.09.83-2 1.9-2.26a4.03 4.03 0 002.92-5.06c-.3-1.06.1-2.17 1.01-2.79a4.03 4.03 0 001.02-5.75 2.52 2.52 0 010-2.96zm-1.25 3.86a2.5 2.5 0 01-.63 3.57 4.06 4.06 0 00-1.64 4.49 2.5 2.5 0 01-1.81 3.14 4.06 4.06 0 00-3.07 3.66 2.5 2.5 0 01-2.78 2.33 4.06 4.06 0 00-4.13 2.38 2.5 2.5 0 01-1.44 1.35 2.5 2.5 0 01-1.97-.1 4.06 4.06 0 00-4.7.82 2.5 2.5 0 01-1.81.77 2.5 2.5 0 01-1.81-.77 4.06 4.06 0 00-4.7-.83 2.5 2.5 0 01-1.97.1 2.5 2.5 0 01-1.44-1.34 4.06 4.06 0 00-4.13-2.38 2.5 2.5 0 01-2.78-2.33 4.06 4.06 0 00-3.07-3.66 2.5 2.5 0 01-1.81-3.14c.48-1.7-.18-3.5-1.64-4.49a2.5 2.5 0 01-.63-3.57 4.06 4.06 0 000-4.77 2.5 2.5 0 01.63-3.57 4.06 4.06 0 001.64-4.49 2.5 2.5 0 011.81-3.14A4.06 4.06 0 009.17 9.1a2.5 2.5 0 012.78-2.33 4.06 4.06 0 004.13-2.39 2.5 2.5 0 013.4-1.24c1.6.77 3.48.44 4.7-.83A2.5 2.5 0 0126 1.54c.69 0 1.33.28 1.81.77a4.06 4.06 0 004.7.83 2.5 2.5 0 011.97-.1 2.5 2.5 0 011.44 1.34 4.06 4.06 0 004.13 2.39 2.5 2.5 0 012.78 2.33 4.06 4.06 0 003.07 3.65 2.5 2.5 0 011.81 3.14c-.48 1.7.18 3.5 1.64 4.49a2.5 2.5 0 01.63 3.57 4.06 4.06 0 000 4.77z" fill="#414141"/></svg>