<svg width="35" height="33" fill="none" xmlns="http://www.w3.org/2000/svg"><path d="M32.844 0H2.156A2.163 2.163 0 000 2.166V25.35c0 1.194.967 2.165 2.156 2.165h14.775v4.08h-6.048a.57.57 0 000 1.138h13.234a.57.57 0 000-1.138h-6.048v-4.08h14.765A2.173 2.173 0 0035 25.34V2.166A2.163 2.163 0 0032.844 0zm1.017 25.34c0 .572-.46 1.037-1.027 1.037H2.156c-.56 0-1.017-.46-1.017-1.027v-3.124h32.723v3.114zm0-4.253H1.14V2.166c0-.567.456-1.027 1.017-1.027h30.688c.561 0 1.017.46 1.017 1.026v18.922z" fill="#000"/><path d="M27.097 3.607a2.341 2.341 0 00-2.04 3.481l-1.979 1.74a2.324 2.324 0 00-1.775-.826 2.338 2.338 0 00-2.252 1.736H15.77a2.338 2.338 0 00-2.219-1.62 2.341 2.341 0 00-2.155 3.24l-2.36 2.373a2.31 2.31 0 00-1.133-.296A2.341 2.341 0 005.57 15.78a2.341 2.341 0 002.333 2.344 2.341 2.341 0 001.961-3.61l2.219-2.231c.401.328.912.525 1.469.525 1.146 0 2.1-.835 2.295-1.93h3.184a2.338 2.338 0 002.272 1.813 2.341 2.341 0 002.289-2.797l2.243-1.972a2.31 2.31 0 001.262.375 2.341 2.341 0 002.334-2.344 2.342 2.342 0 00-2.334-2.345zM7.903 16.985c-.659 0-1.195-.541-1.195-1.206 0-.665.536-1.205 1.195-1.205.66 0 1.196.54 1.196 1.205s-.536 1.206-1.196 1.206zm5.648-5.317c-.659 0-1.195-.541-1.195-1.206 0-.664.536-1.205 1.195-1.205.66 0 1.195.54 1.195 1.205s-.535 1.206-1.195 1.206zm7.751-.116c-.659 0-1.195-.541-1.195-1.206 0-.665.536-1.206 1.195-1.206.66 0 1.195.541 1.195 1.206 0 .665-.535 1.206-1.195 1.206zm5.795-4.395c-.659 0-1.195-.54-1.195-1.205s.536-1.206 1.195-1.206 1.195.541 1.195 1.206c0 .664-.536 1.205-1.195 1.205z" fill="#000"/></svg>