<svg width="26" height="26" fill="none" xmlns="http://www.w3.org/2000/svg"><path d="M15.49 13a2.49 2.49 0 11-4.98 0 2.49 2.49 0 014.98 0z" fill="url(#paint0_linear)"/><path d="M18.82 8.6a2.31 2.31 0 00-.56-.86 2.31 2.31 0 00-.86-.56c-.26-.1-.66-.22-1.38-.26-.79-.03-1.03-.04-3.02-.04-2 0-2.23 0-3.02.04-.72.04-1.12.16-1.38.26-.33.12-.62.31-.86.56-.25.24-.44.53-.56.86-.1.26-.22.66-.26 1.38-.03.8-.04 1.03-.04 3.02 0 2 0 2.23.04 3.02.04.72.16 1.12.26 1.38.12.33.31.62.56.86.24.25.53.44.86.56.26.1.66.22 1.38.26.8.03 1.03.04 3.02.04 2 0 2.23 0 3.02-.04a4.12 4.12 0 001.38-.26 2.47 2.47 0 001.42-1.42c.1-.26.22-.66.26-1.38.03-.79.04-1.03.04-3.02 0-2 0-2.23-.04-3.02a4.12 4.12 0 00-.26-1.38zM13 16.83a3.83 3.83 0 110-7.66 3.83 3.83 0 010 7.66zm3.98-6.92a.9.9 0 110-1.8.9.9 0 010 1.8z" fill="url(#paint1_linear)"/><path d="M13 0a13 13 0 100 26 13 13 0 000-26zm7.42 16.08c-.04.8-.16 1.33-.35 1.81-.38 1-1.18 1.8-2.18 2.18-.48.19-1.02.31-1.81.35-.8.04-1.05.04-3.08.04-2.03 0-2.28 0-3.08-.04a5.48 5.48 0 01-1.8-.35c-.5-.18-.96-.48-1.33-.86a3.66 3.66 0 01-.86-1.32 5.48 5.48 0 01-.35-1.81A52.5 52.5 0 015.54 13c0-2.03 0-2.28.04-3.08.04-.8.16-1.33.35-1.81.18-.5.48-.95.86-1.32.37-.38.82-.68 1.32-.86a5.48 5.48 0 011.81-.35c.8-.04 1.05-.04 3.08-.04 2.03 0 2.28 0 3.08.04.8.04 1.33.16 1.81.35.5.18.95.48 1.32.86.38.37.68.82.86 1.32.19.48.31 1.02.35 1.81.04.8.04 1.05.04 3.08 0 2.03 0 2.28-.04 3.08z" fill="url(#paint2_linear)"/><defs><linearGradient id="paint0_linear" x1="13" y1="10.51" x2="13" y2="15.49" gradientUnits="userSpaceOnUse"><stop stop-color="#FDCA42"/><stop offset=".48" stop-color="#F7194E"/><stop offset="1" stop-color="#D627AB"/></linearGradient><linearGradient id="paint1_linear" x1="13" y1="6.88" x2="13" y2="19.12" gradientUnits="userSpaceOnUse"><stop stop-color="#FDCA42"/><stop offset=".48" stop-color="#F7194E"/><stop offset="1" stop-color="#D627AB"/></linearGradient><linearGradient id="paint2_linear" x1="13" y1="0" x2="13" y2="26" gradientUnits="userSpaceOnUse"><stop stop-color="#FDCA42"/><stop offset=".48" stop-color="#F7194E"/><stop offset="1" stop-color="#D627AB"/></linearGradient></defs></svg>