<svg width="50" height="38" fill="none" xmlns="http://www.w3.org/2000/svg"><path d="M47.58 29.03h-.8V2.42A2.42 2.42 0 0044.34 0H5.65a2.42 2.42 0 00-2.42 2.42v26.61h-.81A2.42 2.42 0 000 31.45v1.61a4.04 4.04 0 004.03 4.04h41.94A4.04 4.04 0 0050 33.06v-1.6a2.42 2.42 0 00-2.42-2.43zM4.84 2.42a.8.8 0 01.8-.8h38.71a.8.8 0 01.81.8v26.61h-1.61v-25a.8.8 0 00-.8-.8H7.24a.8.8 0 00-.8.8v25H4.84V2.42zm14.51 28.23h11.3v1.6h-11.3v-1.6zM8.06 29.03v-1.61h33.88v1.61H8.06zM41.94 9.68H8.06V4.84h33.88v4.84zM8.06 11.29h33.88v14.52H8.06V11.29zM48.4 33.06a2.42 2.42 0 01-2.42 2.42H4.03a2.42 2.42 0 01-2.42-2.42v-1.6a.8.8 0 01.8-.81h15.33v1.6a1.61 1.61 0 001.61 1.62h11.3a1.61 1.61 0 001.6-1.61v-1.61h15.33a.8.8 0 01.8.8v1.61z" fill="#000"/><path d="M18.55 12.9h-8.07a.8.8 0 00-.8.81v4.84a.8.8 0 00.8.8h8.07a.8.8 0 00.8-.8V13.7a.8.8 0 00-.8-.8zm-.8 4.84h-6.46v-3.22h6.45v3.22zM39.52 12.9h-8.07a.8.8 0 00-.8.81v4.84a.8.8 0 00.8.8h8.07a.8.8 0 00.8-.8V13.7a.8.8 0 00-.8-.8zm-.81 4.84h-6.45v-3.22h6.45v3.22zM9.68 20.97h9.67v1.61H9.68v-1.61zM30.64 20.97h9.68v1.61h-9.68v-1.61zM9.68 6.45h4.84v1.61H9.68v-1.6zM16.13 6.45h4.84v1.61h-4.84v-1.6zM22.58 6.45h4.84v1.61h-4.84v-1.6zM29.03 6.45h4.84v1.61h-4.84v-1.6zM35.48 6.45h4.84v1.61h-4.84v-1.6z" fill="#000"/></svg>