<svg width="70" height="70" fill="none" xmlns="http://www.w3.org/2000/svg"><rect x="19" y="47.52" width="37.51" height="7.23" rx="3.61" transform="rotate(-45 19 47.52)" fill="#7231E5"/><path d="M49.82 20.17a5.71 5.71 0 00-8.07 0L20.17 41.75a5.67 5.67 0 000 8.07 5.69 5.69 0 008.07 0l21.58-21.58a5.67 5.67 0 000-8.07zm-1.65 6.42L26.59 48.17a3.37 3.37 0 01-4.77-4.77L43.4 21.82a3.36 3.36 0 014.77 0 3.35 3.35 0 010 4.77z" fill="#000"/><path d="M65.57 6.9l-2.48-2.48A15.06 15.06 0 0052.37 0C48.3 0 44.5 1.57 41.65 4.42l-6.97 6.97a15.22 15.22 0 00-1.92 19.1l.8 1.18 6.7-6.71-.27-.71a5.86 5.86 0 011.3-6.26l6.95-6.97a5.8 5.8 0 014.13-1.69c1.57 0 3.03.6 4.12 1.7l2.48 2.47a5.84 5.84 0 010 8.25l-6.96 6.96A5.93 5.93 0 0145.74 30l-.7-.27-6.72 6.71 1.19.79a15.16 15.16 0 0019.1-1.92l6.96-6.96a15.18 15.18 0 000-21.45zm-1.65 19.8l-6.96 6.96A12.88 12.88 0 0142.05 36l3.58-3.59a8.19 8.19 0 008.02-2.06l6.97-6.96a8.17 8.17 0 000-11.55l-2.48-2.48A8.1 8.1 0 0052.37 7c-2.2 0-4.24.84-5.78 2.37l-6.96 6.97a8.1 8.1 0 00-2.06 8.02l-3.59 3.58a12.89 12.89 0 012.35-14.9l6.97-6.97a12.74 12.74 0 019.07-3.74c3.44 0 6.66 1.33 9.07 3.74l2.48 2.48c5 5 5 13.14 0 18.14zM37.23 39.5l-.79-1.18-6.71 6.71.28.71a5.84 5.84 0 01-1.3 6.27l-6.96 6.96a5.8 5.8 0 01-4.13 1.69 5.8 5.8 0 01-4.12-1.7l-2.48-2.47a5.79 5.79 0 01-1.69-4.12c0-1.57.6-3.03 1.7-4.13l6.96-6.96A5.93 5.93 0 0124.25 40l.7.28 6.72-6.72-1.19-.79a15.23 15.23 0 00-19.1 1.92l-6.96 6.97A15.06 15.06 0 000 52.37c0 4.06 1.57 7.87 4.42 10.72l2.48 2.48a15.06 15.06 0 0010.72 4.42c4.06 0 7.87-1.57 10.73-4.42l6.96-6.97a15.22 15.22 0 001.92-19.1zm-3.57 17.45l-6.96 6.97a12.74 12.74 0 01-9.08 3.74c-3.44 0-6.66-1.33-9.07-3.74l-2.48-2.48a12.74 12.74 0 01-3.74-9.07c0-3.44 1.33-6.66 3.74-9.07l6.97-6.97a12.83 12.83 0 0114.9-2.35l-3.58 3.59a8.23 8.23 0 00-8.02 2.06L9.37 46.6A8.1 8.1 0 007 52.37c0 2.19.84 4.24 2.38 5.77l2.47 2.48a8.1 8.1 0 005.77 2.37c2.2 0 4.24-.84 5.78-2.37l6.96-6.96a8.17 8.17 0 002.07-8.03L36 42.05a12.89 12.89 0 01-2.35 14.9zM55.65 54l-6.41-6.41a1.17 1.17 0 10-1.65 1.65L54 55.65a1.16 1.16 0 001.65 0c.46-.46.46-1.2 0-1.65zM54.83 42h-3.5a1.17 1.17 0 100 2.33h3.5a1.17 1.17 0 100-2.33zM43.16 50.16c-.64 0-1.17.52-1.17 1.17v3.5a1.17 1.17 0 102.34 0v-3.5c0-.65-.52-1.17-1.17-1.17zM22.4 20.76L16 14.34a1.17 1.17 0 10-1.65 1.65l6.42 6.42a1.16 1.16 0 001.64 0c.46-.46.46-1.2 0-1.65zM18.66 25.66h-3.5a1.17 1.17 0 100 2.34h3.5a1.17 1.17 0 100-2.34zM26.83 14c-.64 0-1.17.52-1.17 1.16v3.5a1.17 1.17 0 102.34 0v-3.5c0-.64-.53-1.16-1.17-1.16z" fill="#000"/></svg>