<svg width="43" height="35" fill="none" xmlns="http://www.w3.org/2000/svg"><g clip-path="url(#clip0)" fill="#000"><path d="M6.73 2.73a2.1 2.1 0 100 4.22 2.1 2.1 0 000-4.22zm0 2.82a.7.7 0 110-1.4.7.7 0 010 1.4zM13.06 2.73a2.1 2.1 0 100 4.22 2.1 2.1 0 000-4.22zm0 2.82a.7.7 0 110-1.4.7.7 0 010 1.4zM19.4 2.73a2.1 2.1 0 100 4.22 2.1 2.1 0 000-4.22zm0 2.82a.7.7 0 110-1.4.7.7 0 010 1.4z"/><path d="M39.08-.08H3.92A3.52 3.52 0 00.41 3.44v28.12a3.52 3.52 0 003.51 3.52h35.16a3.52 3.52 0 003.51-3.52V3.44a3.52 3.52 0 00-3.51-3.52zM1.8 3.44a2.1 2.1 0 012.11-2.11h35.16a2.1 2.1 0 012.1 2.1v4.93H1.82V3.44zm37.27 30.23H3.92a2.11 2.11 0 01-2.1-2.1V9.76h39.37v21.8a2.1 2.1 0 01-2.11 2.1z"/><path d="M24.31 12.9l-2.54 2.55a3.6 3.6 0 00-.45 4.53l-1.09 1.08a3.52 3.52 0 00-4.35.45l-2.71 2.7a3.48 3.48 0 004.92 4.93l2.7-2.72a3.52 3.52 0 00.45-4.37l1.08-1.08a3.59 3.59 0 004.52-.45l2.55-2.55a3.59 3.59 0 00-5.08-5.06zm-4.5 12.52l-2.7 2.71a2.07 2.07 0 01-2.92-2.9l2.7-2.7a2.05 2.05 0 012.34-.4l-1.74 1.7a.7.7 0 101 .99l1.73-1.7a2.06 2.06 0 01-.4 2.3zm8.6-8.43l-2.54 2.54a2.23 2.23 0 01-2.5.4l1.74-1.73a.7.7 0 00-1-.99l-1.73 1.74a2.15 2.15 0 01.4-2.5l2.55-2.54a2.18 2.18 0 013.08 3.08z"/></g><defs><clipPath id="clip0"><path fill="#fff" d="M0 0h43v35H0z"/></clipPath></defs></svg>