<svg width="35" height="40" fill="none" xmlns="http://www.w3.org/2000/svg"><path d="M17.43 34.022c.303.214.65.28 1.006.19.09-.023.2-.062.325-.13.079.178.206.348.397.505.778.64 1.993.424 2.688-.239.107-.102.2-.213.28-.33.66.345 1.83.543 3.866-.05a.576.576 0 00-.321-1.104c-2.59.752-3.204.022-3.277-.084-.079-.273-.338-.418-.622-.38-.29.041-.493.324-.486.617.006.233-.145.413-.235.499-.215.205-.52.32-.797.3a.661.661 0 01-.365-.117c-.153-.126-.095-.356.269-1.071.115-.226.234-.46.323-.697a.576.576 0 00-1.055-.456c-.223.451-.487.906-.829 1.28-.196.214-.644.553-.584-.009.055-.524.4-.947.683-1.369.197-.293.42-.626.641-.802a.576.576 0 10-.718-.9c-.335.268-.667.536-.998.803-1.26 1.016-2.449 1.977-3.77 2.877a.575.575 0 00.647.952 43.356 43.356 0 002.38-1.76 2.443 2.443 0 00-.01.078c-.063.598.136 1.094.563 1.397zM3.712 5.448h17.084a.575.575 0 100-1.151H3.713a.575.575 0 100 1.15zM3.712 8.504h15.674a.575.575 0 100-1.15H3.712a.575.575 0 100 1.15zM3.712 11.56h15.674a.575.575 0 100-1.15H3.712a.575.575 0 100 1.15zM3.712 14.617h17.084a.575.575 0 100-1.15H3.713a.575.575 0 100 1.15zM3.712 17.673h18.412a.576.576 0 000-1.15H3.712a.575.575 0 100 1.15zM3.712 20.73h20.925a.575.575 0 100-1.151H3.712a.575.575 0 100 1.15zM3.712 23.786h20.925a.575.575 0 100-1.15H3.712a.575.575 0 100 1.15zM3.712 26.843h20.925a.575.575 0 100-1.151H3.712a.575.575 0 100 1.15z" fill="#7D8D93"/><path d="M29.544 4.634v-3.34C29.544.58 28.964 0 28.25 0H1.294C.58 0 0 .58 0 1.294v36.677c0 .714.58 1.294 1.294 1.294h7.832a.575.575 0 100-1.15H1.294a.143.143 0 01-.143-.144V1.294c0-.079.064-.143.143-.143H28.25c.079 0 .143.064.143.143v3.34a5.967 5.967 0 00-3.068 1.197.575.575 0 10.695.916 4.836 4.836 0 012.948-.99 4.887 4.887 0 014.881 4.881 4.887 4.887 0 01-4.88 4.881 4.887 4.887 0 01-4.435-6.924.576.576 0 00-1.045-.482 5.982 5.982 0 00-.553 2.525 6.04 6.04 0 005.457 6.004v21.33a.143.143 0 01-.143.142H11.798a.576.576 0 000 1.152H28.25c.713 0 1.294-.581 1.294-1.294v-21.33A6.04 6.04 0 0035 10.638a6.04 6.04 0 00-5.456-6.004z" fill="#7D8D93"/><path d="M26.056 11.891c.786.944 1.27 1.488 1.582 1.659.217.119.467.177.722.177.392 0 .794-.138 1.1-.4.044-.037.135-.115 2.617-3.059.286-.334.425-.759.39-1.198a1.649 1.649 0 00-2.892-.945L28.374 9.53a1.698 1.698 0 00-1.162-.577 1.617 1.617 0 00-1.195.404 1.655 1.655 0 00-.156 2.301l.196.234zm.725-1.675a.476.476 0 01.352-.116.54.54 0 01.372.185l.285.332a.767.767 0 001.167 0l1.493-1.742a.496.496 0 11.75.648 272.857 272.857 0 01-2.505 2.943c-.135.104-.374.141-.5.077-.226-.152-1-1.082-1.254-1.388l-.207-.247a.498.498 0 01.047-.692z" fill="#7D8D93"/></svg>