<svg width="224" height="68" viewBox="0 0 224 68" fill="none" xmlns="http://www.w3.org/2000/svg">
<path fill-rule="evenodd" clip-rule="evenodd" d="M91.2059 36.5301C91.2257 37.3826 91.0503 38.0349 90.6907 38.4694C90.3081 38.9292 89.886 39.268 89.4333 39.4759C88.8928 39.7278 88.2515 39.8752 87.5335 39.9148L85.1327 39.9962V33.0761L87.927 33.1311C88.849 33.2488 89.5374 33.4875 89.9726 33.8395C90.4199 34.2036 90.7411 34.5853 90.922 34.967C91.1292 35.44 91.2257 35.9592 91.2059 36.5114V36.5202V36.5301ZM95.8957 36.3354C95.8957 35.7348 95.842 35.1353 95.7324 34.5424C95.6249 34.0485 95.4627 33.5161 95.25 32.9595C95.0275 32.3798 94.6909 31.8595 94.2469 31.4129C93.8556 30.9553 93.3612 30.5362 92.7725 30.1644C92.2737 29.8597 91.6203 29.5748 90.8299 29.3185C90.0318 29.0578 89.0627 28.9258 87.9511 28.9258H80.4429V51.225H85.1634V44.4952H87.6793C88.4466 44.4743 89.2053 44.3764 89.9321 44.2037C90.546 44.0552 91.2026 43.8396 91.8823 43.5624C92.5839 43.2775 93.1956 42.8639 93.7043 42.3348C94.1209 41.9586 94.4969 41.4812 94.8236 40.9136C95.1053 40.4131 95.3607 39.7905 95.5844 39.0634C95.8124 38.3242 95.9176 37.4046 95.8957 36.3354Z" fill="#0060A9"/>
<path fill-rule="evenodd" clip-rule="evenodd" d="M107.417 42.8714H101.299L104.317 34.7864L107.417 42.8714ZM140.709 29.8045C140.679 29.5042 140.537 29.2512 140.297 29.0697C140.19 28.9905 140.094 28.9344 140.002 28.9014C139.802 28.8145 139.559 28.7309 139.278 28.655C138.99 28.5769 138.668 28.5208 138.318 28.4889C137.964 28.4548 137.577 28.4658 137.167 28.5208C136.749 28.578 136.322 28.7089 135.893 28.9135C135.792 28.9641 135.693 29.0257 135.599 29.0961C135.526 29.1467 135.442 29.2116 135.354 29.2897C135.24 29.3909 135.151 29.513 135.089 29.6538L128.117 40.9552L121.125 29.6219C121.03 29.48 120.932 29.3579 120.833 29.2567C120.734 29.1577 120.631 29.0796 120.527 29.0224C120.436 28.9564 120.343 28.8992 120.249 28.8519L120.219 28.8376C119.464 28.5494 118.715 28.4416 117.989 28.5197C117.283 28.5967 116.736 28.699 116.317 28.831L116.294 28.8398C116.165 28.8915 116.047 28.9575 115.943 29.0345C115.846 29.1016 115.758 29.1962 115.673 29.3249C115.574 29.4734 115.525 29.6362 115.525 29.8067V50.534L107.149 29.6824L107.138 29.6571C107.024 29.4294 106.82 29.2336 106.533 29.0763C106.326 28.9608 106.051 28.8497 105.692 28.7375C105.327 28.6231 104.852 28.5648 104.282 28.5648C103.704 28.5648 103.251 28.6154 102.895 28.7188C102.54 28.8222 102.273 28.9322 102.083 29.051C101.81 29.2149 101.626 29.4195 101.541 29.6505L92.9307 50.9586H98.2694L99.7362 47.2021H109.047L110.512 50.9586H115.525V50.9894H120.276V37.0733L127.871 49.2371H128.363L135.988 37.0689V50.9894H140.711V29.8386L140.709 29.8045Z" fill="#0060A9"/>
<path fill-rule="evenodd" clip-rule="evenodd" d="M155.803 36.5302C155.821 37.3827 155.647 38.035 155.287 38.4695C154.905 38.9293 154.482 39.2681 154.03 39.476C153.489 39.7279 152.847 39.8753 152.13 39.9149L149.73 39.9963V33.0762L152.524 33.1312C153.446 33.2489 154.134 33.4876 154.568 33.8396C155.017 34.2037 155.337 34.5854 155.518 34.9671C155.726 35.4401 155.821 35.9593 155.803 36.5115V36.5203V36.5302ZM160.493 36.3355C160.493 35.7349 160.439 35.1354 160.329 34.5425C160.222 34.0486 160.06 33.5162 159.846 32.9596C159.623 32.3799 159.287 31.8596 158.844 31.413C158.451 30.9554 157.957 30.5363 157.369 30.1645C156.871 29.8598 156.217 29.5749 155.427 29.3186C154.628 29.0579 153.659 28.9259 152.547 28.9259H145.04V51.2251H149.76V44.4953H152.276C153.044 44.4744 153.801 44.3765 154.529 44.2038C155.143 44.0553 155.8 43.8397 156.478 43.5625C157.18 43.2776 157.793 42.864 158.301 42.3349C158.718 41.9587 159.094 41.4813 159.42 40.9137C159.702 40.4132 159.958 39.7906 160.181 39.0635C160.409 38.3243 160.513 37.4047 160.493 36.3355Z" fill="#AB54FF"/>
<path fill-rule="evenodd" clip-rule="evenodd" d="M174.275 43.1385H168.158L171.176 35.0535L174.275 43.1385ZM174.008 29.9495L173.997 29.9242C173.883 29.6965 173.679 29.5007 173.393 29.3445C173.185 29.2279 172.909 29.1168 172.551 29.0046C172.186 28.8902 171.712 28.833 171.141 28.833C170.563 28.833 170.11 28.8825 169.753 28.987C169.399 29.0893 169.132 29.1993 168.942 29.3181C168.669 29.482 168.486 29.6866 168.399 29.9176L159.791 51.2257H165.128L166.595 47.4692H175.906L177.372 51.2257H182.553L174.008 29.9495Z" fill="#AB54FF"/>
<path fill-rule="evenodd" clip-rule="evenodd" d="M198.308 39.9978C198.308 42.0999 197.821 43.7664 196.856 44.9522C195.894 46.1325 194.5 46.7067 192.593 46.7067L188.929 46.6209V33.5386H192.589C193.536 33.5386 194.374 33.6926 195.079 33.9962C195.776 34.2987 196.37 34.7321 196.845 35.2854C197.322 35.842 197.689 36.5229 197.934 37.3105C198.183 38.1102 198.308 39.0144 198.308 39.9978ZM200.083 32.0503C199.17 31.0911 198.06 30.3431 196.785 29.8272C195.512 29.3124 194.099 29.0616 192.595 29.0825L188.597 29.0209H184.27V51.1628H188.597H192.594C194.106 51.1419 195.517 50.8592 196.789 50.3235C198.063 49.7856 199.172 49.0222 200.084 48.0531C200.994 47.0862 201.716 45.9169 202.228 44.5782C202.74 43.2417 202.998 41.7435 202.998 40.1232C202.998 38.4622 202.74 36.9277 202.229 35.5604C201.716 34.1887 200.994 33.0084 200.083 32.0503Z" fill="#4578FF"/>
<path fill-rule="evenodd" clip-rule="evenodd" d="M222.938 29.0954C222.692 28.9546 222.415 28.8479 222.125 28.7808C221.786 28.6906 221.401 28.6444 220.979 28.6444C220.558 28.6444 220.173 28.6906 219.844 28.7786C219.539 28.849 219.265 28.9568 219.03 29.0987C218.638 29.3341 218.556 29.6575 218.556 29.8863V39.7687L218.494 40.8555V40.8742C218.494 41.9951 218.422 42.9763 218.28 43.7903C218.144 44.5713 217.891 45.2258 217.526 45.7351C217.169 46.2345 216.684 46.6118 216.081 46.8571C215.458 47.1112 214.65 47.2399 213.679 47.2399C212.686 47.2399 211.867 47.1112 211.245 46.8571C210.643 46.6118 210.164 46.2356 209.818 45.7384C209.463 45.228 209.208 44.5713 209.061 43.7859C208.909 42.9763 208.833 41.9962 208.833 40.8742V30.0425C208.833 29.894 208.807 29.7598 208.759 29.6454C208.716 29.5464 208.663 29.4617 208.603 29.3935C208.535 29.2989 208.462 29.2296 208.378 29.1856C208.213 29.0932 207.999 28.9986 207.723 28.8985C207.438 28.7962 207.111 28.7269 206.753 28.6928C206.397 28.6598 206.01 28.6708 205.6 28.7258C205.174 28.7841 204.739 28.9403 204.309 29.19L204.271 29.212L204.087 29.3979L204.065 29.4331C203.971 29.5893 203.924 29.7741 203.924 29.9798V41.0931C203.924 44.5207 204.75 47.2069 206.378 49.0769C208.017 50.959 210.462 51.9138 213.651 51.9138C216.856 51.8709 219.316 50.8897 220.965 48.9988C222.602 47.1178 223.433 44.4162 223.433 40.9677V29.9171C223.433 29.5651 223.262 29.2813 222.938 29.0954Z" fill="#4578FF"/>
<mask id="mask0" mask-type="alpha" maskUnits="userSpaceOnUse" x="19" y="24" width="25" height="27">
<path fill-rule="evenodd" clip-rule="evenodd" d="M19.5 24H43.869V50.0546H19.5V24Z" fill="white"/>
</mask>
<g mask="url(#mask0)">
<path fill-rule="evenodd" clip-rule="evenodd" d="M28.0183 24C21.4824 24 17.3846 31.0961 20.6427 36.7875L24.7712 43.9958L28.2398 50.0546C25.1396 44.4633 28.4283 37.6928 34.2878 36.3464C31.5044 30.743 35.5529 24.0319 41.909 24.0319H41.9287L43.8691 24.0352L36.3236 24.0187L28.037 24H28.0183Z" fill="#0060A9"/>
</g>
<path fill-rule="evenodd" clip-rule="evenodd" d="M58.4039 49.7506L57.5247 51.2708C55.8847 54.1044 53.0256 55.5212 50.1677 55.5212C47.5279 55.5212 44.8881 54.3123 43.2108 51.8978C41.5292 54.2925 38.9015 55.4893 36.2737 55.4893C33.4026 55.4893 30.5326 54.0615 28.8981 51.2059L28.2393 50.0542C28.2612 50.0938 28.2831 50.1345 28.3061 50.173L31.7012 56.0998L35.0931 62.0288C36.892 65.1693 40.0492 66.7401 43.2086 66.7401C46.3516 66.7401 49.4968 65.1825 51.3001 62.064L54.7182 56.1504L58.1386 50.2401C58.2328 50.0784 58.3205 49.9145 58.4039 49.7506Z" fill="#AB54FF"/>
<path fill-rule="evenodd" clip-rule="evenodd" d="M34.2874 36.3466C28.4279 37.693 25.1391 44.4624 28.2393 50.0548L28.8982 51.2054C30.5327 54.061 33.4027 55.4899 36.2738 55.4899C38.9015 55.4899 41.5293 54.292 43.2109 51.8973C43.064 51.6872 42.9259 51.4683 42.7943 51.2395L38.6658 44.0279L34.5373 36.8152C34.4474 36.6601 34.3641 36.5039 34.2874 36.3466Z" fill="#0020A9"/>
<path fill-rule="evenodd" clip-rule="evenodd" d="M43.8689 24.0354L44.6089 24.0365C50.977 24.0519 55.008 30.785 52.2048 36.3818C57.9372 37.715 61.1887 44.2391 58.4042 49.7501L61.6853 44.0774L65.8456 36.8834C69.131 31.2019 65.053 24.0816 58.5072 24.0662L50.2173 24.0486L43.8689 24.0354Z" fill="#4578FF"/>
<path fill-rule="evenodd" clip-rule="evenodd" d="M41.9087 24.0317C35.5526 24.0317 31.5041 30.7439 34.2875 36.3462C34.9661 36.1911 35.6787 36.1075 36.4219 36.1075H36.4428L43.2538 36.1229L50.0659 36.1372C50.8092 36.1394 51.524 36.2241 52.2047 36.3825C55.0079 30.7846 50.9769 24.0515 44.6088 24.0372L43.8688 24.035L41.9295 24.0317H41.9087Z" fill="#1D4BC6"/>
<path fill-rule="evenodd" clip-rule="evenodd" d="M52.2044 36.3821C52.1255 36.5416 52.0399 36.6989 51.9501 36.8562L47.7909 44.0469L43.6306 51.2387C43.499 51.4675 43.3587 51.6875 43.2107 51.8976C44.888 54.3132 47.5278 55.521 50.1686 55.521C53.0255 55.521 55.8845 54.1053 57.5256 51.2706L58.4037 49.7504C61.1882 44.2394 57.9367 37.7153 52.2044 36.3821Z" fill="#5381FE"/>
<path fill-rule="evenodd" clip-rule="evenodd" d="M36.4223 36.1075C35.679 36.1075 34.9664 36.1911 34.2878 36.3462C34.3646 36.5035 34.4479 36.6597 34.5367 36.8148L38.6663 44.0275L42.7937 51.2391C42.9263 51.4679 43.0645 51.6868 43.2103 51.8969C43.3583 51.6868 43.4986 51.4679 43.6301 51.2391L47.7904 44.0462L51.9496 36.8555C52.0395 36.6993 52.125 36.5409 52.204 36.3825C51.5243 36.2241 50.8095 36.1394 50.0663 36.1372L43.253 36.1229L36.4431 36.1075H36.4223Z" fill="#002587"/>
<path fill-rule="evenodd" clip-rule="evenodd" d="M84.6253 59.8913C84.5847 59.7318 84.5288 59.5866 84.4564 59.4535C84.3852 59.3182 84.2931 59.2038 84.1802 59.1059C84.0684 59.008 83.9357 58.9332 83.7855 58.8793C83.6342 58.8243 83.4588 58.7979 83.2593 58.7979C82.9677 58.7979 82.7156 58.8573 82.5029 58.975C82.2913 59.0927 82.1181 59.2511 81.9855 59.4491C81.8528 59.646 81.7542 59.8704 81.6895 60.1223C81.6259 60.3731 81.593 60.6305 81.593 60.8923C81.593 61.1541 81.6259 61.4115 81.6895 61.6623C81.7542 61.9142 81.8528 62.1386 81.9855 62.3366C82.1181 62.5335 82.2913 62.6919 82.5029 62.8096C82.7156 62.9284 82.9677 62.9867 83.2593 62.9867C83.4753 62.9867 83.6638 62.9493 83.8261 62.8756C83.9916 62.8019 84.133 62.6985 84.2503 62.5676C84.3665 62.4356 84.4586 62.2838 84.5266 62.11C84.5935 61.934 84.6362 61.747 84.6549 61.5468H85.5933C85.5713 61.8757 85.5012 62.176 85.3806 62.4477C85.2611 62.7194 85.0988 62.9548 84.8949 63.1528C84.6899 63.3508 84.4499 63.5026 84.1736 63.6104C83.8973 63.7182 83.5915 63.7721 83.2593 63.7721C82.8504 63.7721 82.4843 63.6962 82.1587 63.5444C81.8331 63.3948 81.559 63.1869 81.3343 62.9251C81.1074 62.6644 80.9364 62.3575 80.8158 62.0088C80.6941 61.659 80.6338 61.2883 80.6338 60.8923C80.6338 60.5029 80.6941 60.1333 80.8158 59.7835C80.9364 59.4348 81.1074 59.1301 81.3343 58.8672C81.559 58.6054 81.8331 58.3986 82.1587 58.2435C82.4843 58.0895 82.8504 58.0125 83.2593 58.0125C83.5674 58.0125 83.8546 58.0554 84.1265 58.139C84.3983 58.2237 84.6362 58.348 84.8434 58.5097C85.0517 58.6714 85.2183 58.8672 85.3466 59.0982C85.4749 59.3292 85.5549 59.5932 85.5845 59.8913H84.6253Z" fill="#231F20"/>
<path fill-rule="evenodd" clip-rule="evenodd" d="M87.1196 58.1436H91.064V58.9752H88.0789V60.4151H90.8414V61.2005H88.0789V62.8098H91.1166V63.6414H87.1196V58.1436Z" fill="#231F20"/>
<path fill-rule="evenodd" clip-rule="evenodd" d="M93.5666 60.7464H94.971C95.0784 60.7464 95.188 60.7299 95.3009 60.7002C95.4127 60.6694 95.5169 60.6199 95.6112 60.5495C95.7054 60.4813 95.7822 60.3889 95.8403 60.2723C95.9006 60.1568 95.9302 60.0127 95.9302 59.8378C95.9302 59.6585 95.905 59.5089 95.8534 59.3912C95.8019 59.2724 95.7318 59.1789 95.6451 59.1107C95.5574 59.0403 95.4599 58.993 95.3459 58.9677C95.2341 58.9413 95.1124 58.9292 94.9863 58.9292H93.5666V60.7464ZM92.6074 58.1438H95.0247C95.4127 58.1438 95.7296 58.201 95.9751 58.3132C96.2218 58.4265 96.4103 58.5673 96.543 58.7367C96.6756 58.9061 96.7677 59.0909 96.8149 59.2911C96.8642 59.4902 96.8894 59.675 96.8894 59.8455C96.8894 60.0149 96.8642 60.1986 96.8149 60.3966C96.7677 60.5935 96.6756 60.7772 96.543 60.9466C96.4103 61.116 96.2218 61.2557 95.9751 61.3657C95.7296 61.4768 95.4127 61.5318 95.0247 61.5318H93.5666V63.6416H92.6074V58.1438Z" fill="#231F20"/>
<path fill-rule="evenodd" clip-rule="evenodd" d="M99.3369 62.8562H101.033C101.323 62.8562 101.551 62.7803 101.711 62.6285C101.873 62.4778 101.954 62.2633 101.954 61.9861C101.954 61.7144 101.873 61.5043 101.711 61.3591C101.551 61.2117 101.323 61.138 101.033 61.138H99.3369V62.8562ZM99.3369 60.4461H100.902C101.131 60.4461 101.323 60.3801 101.478 60.2492C101.63 60.1194 101.707 59.9302 101.707 59.6838C101.707 59.4066 101.639 59.2119 101.5 59.0986C101.363 58.9853 101.163 58.9292 100.902 58.9292H99.3369V60.4461ZM98.3777 58.1438H101.039C101.532 58.1438 101.925 58.256 102.221 58.4815C102.518 58.7081 102.666 59.0502 102.666 59.5067C102.666 59.7839 102.598 60.0215 102.463 60.2195C102.329 60.4164 102.136 60.5693 101.885 60.6771V60.6925C102.221 60.7651 102.478 60.9246 102.651 61.1743C102.825 61.4218 102.913 61.7342 102.913 62.1093C102.913 62.3249 102.875 62.5262 102.797 62.7132C102.72 62.9013 102.6 63.0619 102.437 63.1994C102.273 63.3358 102.062 63.4425 101.808 63.5217C101.551 63.602 101.247 63.6416 100.894 63.6416H98.3777V58.1438Z" fill="#231F20"/>
<path fill-rule="evenodd" clip-rule="evenodd" d="M104.407 58.1436H105.366V62.24L107.692 58.1436H108.82V63.6414H107.86V59.5142L105.506 63.6414H104.407V58.1436Z" fill="#231F20"/>
<path fill-rule="evenodd" clip-rule="evenodd" d="M114.323 59.8913C114.282 59.7318 114.226 59.5866 114.154 59.4535C114.083 59.3182 113.991 59.2038 113.878 59.1059C113.766 59.008 113.633 58.9332 113.483 58.8793C113.332 58.8243 113.156 58.7979 112.957 58.7979C112.665 58.7979 112.413 58.8573 112.2 58.975C111.989 59.0927 111.816 59.2511 111.683 59.4491C111.55 59.646 111.452 59.8704 111.387 60.1223C111.323 60.3731 111.291 60.6305 111.291 60.8923C111.291 61.1541 111.323 61.4115 111.387 61.6623C111.452 61.9142 111.55 62.1386 111.683 62.3366C111.816 62.5335 111.989 62.6919 112.2 62.8096C112.413 62.9284 112.665 62.9867 112.957 62.9867C113.173 62.9867 113.361 62.9493 113.524 62.8756C113.689 62.8019 113.831 62.6985 113.948 62.5676C114.064 62.4356 114.156 62.2838 114.224 62.11C114.291 61.934 114.334 61.747 114.352 61.5468H115.291C115.269 61.8757 115.199 62.176 115.078 62.4477C114.959 62.7194 114.796 62.9548 114.592 63.1528C114.387 63.3508 114.147 63.5026 113.871 63.6104C113.595 63.7182 113.289 63.7721 112.957 63.7721C112.548 63.7721 112.182 63.6962 111.856 63.5444C111.531 63.3948 111.257 63.1869 111.032 62.9251C110.805 62.6644 110.634 62.3575 110.513 62.0088C110.392 61.659 110.331 61.2883 110.331 60.8923C110.331 60.5029 110.392 60.1333 110.513 59.7835C110.634 59.4348 110.805 59.1301 111.032 58.8672C111.257 58.6054 111.531 58.3986 111.856 58.2435C112.182 58.0895 112.548 58.0125 112.957 58.0125C113.265 58.0125 113.552 58.0554 113.824 58.139C114.096 58.2237 114.334 58.348 114.541 58.5097C114.749 58.6714 114.916 58.8672 115.044 59.0982C115.172 59.3292 115.252 59.5932 115.282 59.8913H114.323Z" fill="#231F20"/>
<path fill-rule="evenodd" clip-rule="evenodd" d="M121.934 58.7977C121.643 58.7977 121.391 58.8571 121.179 58.9748C120.966 59.0936 120.793 59.2509 120.661 59.4489C120.528 59.6458 120.429 59.8713 120.365 60.1221C120.301 60.374 120.268 60.6303 120.268 60.8921C120.268 61.155 120.301 61.4113 120.365 61.6621C120.429 61.914 120.528 62.1384 120.661 62.3364C120.793 62.5333 120.966 62.6917 121.179 62.8094C121.391 62.9282 121.643 62.9876 121.934 62.9876C122.226 62.9876 122.478 62.9282 122.69 62.8094C122.902 62.6917 123.076 62.5333 123.208 62.3364C123.341 62.1384 123.44 61.914 123.504 61.6621C123.568 61.4113 123.601 61.155 123.601 60.8921C123.601 60.6303 123.568 60.374 123.504 60.1221C123.44 59.8713 123.341 59.6458 123.208 59.4489C123.076 59.2509 122.902 59.0936 122.69 58.9748C122.478 58.8571 122.226 58.7977 121.934 58.7977ZM121.934 58.0123C122.343 58.0123 122.712 58.0893 123.035 58.2433C123.361 58.3984 123.637 58.6052 123.862 58.867C124.086 59.1299 124.26 59.4346 124.379 59.7833C124.5 60.1331 124.56 60.5027 124.56 60.8921C124.56 61.2881 124.5 61.6599 124.379 62.0086C124.26 62.3573 124.086 62.6642 123.862 62.9249C123.637 63.1867 123.361 63.3946 123.035 63.5442C122.712 63.696 122.343 63.7719 121.934 63.7719C121.525 63.7719 121.159 63.696 120.834 63.5442C120.508 63.3946 120.234 63.1867 120.009 62.9249C119.782 62.6642 119.611 62.3573 119.491 62.0086C119.369 61.6599 119.309 61.2881 119.309 60.8921C119.309 60.5027 119.369 60.1331 119.491 59.7833C119.611 59.4346 119.782 59.1299 120.009 58.867C120.234 58.6052 120.508 58.3984 120.834 58.2433C121.159 58.0893 121.525 58.0123 121.934 58.0123Z" fill="#231F20"/>
<path fill-rule="evenodd" clip-rule="evenodd" d="M126.062 58.1436H127.022V60.3304H129.516V58.1436H130.475V63.6414H129.516V61.162H127.022V63.6414H126.062V58.1436Z" fill="#231F20"/>
<path fill-rule="evenodd" clip-rule="evenodd" d="M132.011 62.8412C132.143 62.8412 132.257 62.8126 132.353 62.7565C132.447 62.6993 132.527 62.619 132.595 62.5134C132.662 62.4078 132.713 62.2846 132.752 62.1438C132.79 62.0019 132.822 61.8479 132.848 61.6774C132.867 61.508 132.887 61.3529 132.905 61.2121C132.923 61.0713 132.938 60.9305 132.947 60.7886C132.957 60.6478 132.966 60.4982 132.974 60.3431C132.983 60.1858 132.987 60.0043 132.99 59.7986C132.992 59.594 132.995 59.3575 132.997 59.0913C132.999 58.824 133.002 58.5083 133.002 58.1431H136.777V63.642H135.818V58.9747H133.9C133.889 59.3146 133.882 59.6138 133.88 59.8767C133.878 60.1385 133.871 60.3805 133.864 60.6038C133.857 60.8271 133.844 61.0427 133.822 61.2506C133.801 61.4585 133.77 61.6829 133.73 61.9249C133.704 62.0844 133.664 62.2648 133.608 62.4672C133.55 62.6707 133.462 62.8599 133.343 63.037C133.222 63.2141 133.064 63.3648 132.871 63.488C132.676 63.6101 132.428 63.6728 132.126 63.6728C132.03 63.6728 131.948 63.6695 131.885 63.6651C131.82 63.6596 131.759 63.6519 131.696 63.642V62.8104C131.759 62.8192 131.811 62.828 131.858 62.8324C131.903 62.8379 131.955 62.8412 132.011 62.8412Z" fill="#231F20"/>
<path fill-rule="evenodd" clip-rule="evenodd" d="M139.706 61.4542H141.38L140.558 59.0914H140.537L139.706 61.4542ZM140.045 58.1432H141.065L143.174 63.641H142.147L141.633 62.1857H139.447L138.931 63.641H137.942L140.045 58.1432Z" fill="#231F20"/>
<path fill-rule="evenodd" clip-rule="evenodd" d="M145.739 56.4956C145.78 56.7112 145.877 56.863 146.027 56.9499C146.178 57.0368 146.356 57.0808 146.559 57.0808C146.755 57.0808 146.921 57.0324 147.063 56.9345C147.204 56.8377 147.294 56.6914 147.335 56.4956H147.773C147.73 56.8597 147.598 57.1325 147.369 57.3118C147.142 57.4911 146.853 57.5813 146.499 57.5813C146.146 57.5813 145.863 57.4889 145.654 57.3041C145.444 57.1193 145.324 56.8498 145.294 56.4956H145.739ZM144.326 58.1434H145.286V62.2398L147.611 58.1434H148.739V63.6412H147.78V59.514L145.425 63.6412H144.326V58.1434Z" fill="#231F20"/>
<path fill-rule="evenodd" clip-rule="evenodd" d="M150.519 58.1436H151.478V60.3304H153.972V58.1436H154.931V63.6414H153.972V61.162H151.478V63.6414H150.519V58.1436Z" fill="#231F20"/>
<path fill-rule="evenodd" clip-rule="evenodd" d="M163.219 59.8913C163.179 59.7318 163.123 59.5866 163.051 59.4535C162.979 59.3182 162.887 59.2038 162.774 59.1059C162.663 59.008 162.53 58.9332 162.38 58.8793C162.228 58.8243 162.053 58.7979 161.854 58.7979C161.562 58.7979 161.31 58.8573 161.097 58.975C160.886 59.0927 160.712 59.2511 160.58 59.4491C160.447 59.646 160.348 59.8704 160.284 60.1223C160.22 60.3731 160.187 60.6305 160.187 60.8923C160.187 61.1541 160.22 61.4115 160.284 61.6623C160.348 61.9142 160.447 62.1386 160.58 62.3366C160.712 62.5335 160.886 62.6919 161.097 62.8096C161.31 62.9284 161.562 62.9867 161.854 62.9867C162.07 62.9867 162.258 62.9493 162.42 62.8756C162.586 62.8019 162.727 62.6985 162.845 62.5676C162.961 62.4356 163.053 62.2838 163.121 62.11C163.188 61.934 163.23 61.747 163.249 61.5468H164.187C164.166 61.8757 164.095 62.176 163.975 62.4477C163.855 62.7194 163.693 62.9548 163.489 63.1528C163.284 63.3508 163.044 63.5026 162.768 63.6104C162.492 63.7182 162.186 63.7721 161.854 63.7721C161.445 63.7721 161.079 63.6962 160.753 63.5444C160.427 63.3948 160.153 63.1869 159.929 62.9251C159.702 62.6644 159.531 62.3575 159.41 62.0088C159.288 61.659 159.228 61.2883 159.228 60.8923C159.228 60.5029 159.288 60.1333 159.41 59.7835C159.531 59.4348 159.702 59.1301 159.929 58.8672C160.153 58.6054 160.427 58.3986 160.753 58.2435C161.079 58.0895 161.445 58.0125 161.854 58.0125C162.162 58.0125 162.449 58.0554 162.721 58.139C162.993 58.2237 163.23 58.348 163.438 58.5097C163.646 58.6714 163.813 58.8672 163.941 59.0982C164.069 59.3292 164.149 59.5932 164.179 59.8913H163.219Z" fill="#231F20"/>
<path fill-rule="evenodd" clip-rule="evenodd" d="M165.192 58.1436H169.626V58.9752H167.885V63.6414H166.926V58.9752H165.192V58.1436Z" fill="#231F20"/>
<path fill-rule="evenodd" clip-rule="evenodd" d="M171.876 60.7464H173.281C173.388 60.7464 173.498 60.7299 173.61 60.7002C173.722 60.6694 173.826 60.6199 173.921 60.5495C174.015 60.4813 174.092 60.3889 174.15 60.2723C174.21 60.1568 174.24 60.0127 174.24 59.8378C174.24 59.6585 174.215 59.5089 174.163 59.3912C174.111 59.2724 174.041 59.1789 173.955 59.1107C173.867 59.0403 173.769 58.993 173.655 58.9677C173.544 58.9413 173.422 58.9292 173.296 58.9292H171.876V60.7464ZM170.917 58.1438H173.334C173.722 58.1438 174.039 58.201 174.285 58.3132C174.531 58.4265 174.72 58.5673 174.853 58.7367C174.985 58.9061 175.077 59.0909 175.124 59.2911C175.174 59.4902 175.199 59.675 175.199 59.8455C175.199 60.0149 175.174 60.1986 175.124 60.3966C175.077 60.5935 174.985 60.7772 174.853 60.9466C174.72 61.116 174.531 61.2557 174.285 61.3657C174.039 61.4768 173.722 61.5318 173.334 61.5318H171.876V63.6416H170.917V58.1438Z" fill="#231F20"/>
<path fill-rule="evenodd" clip-rule="evenodd" d="M177.813 61.4542H179.487L178.665 59.0914H178.644L177.813 61.4542ZM178.152 58.1432H179.173L181.282 63.641H180.255L179.741 62.1857H177.555L177.038 63.641H176.05L178.152 58.1432Z" fill="#231F20"/>
<path fill-rule="evenodd" clip-rule="evenodd" d="M181.982 58.1436H183.126L184.37 60.084L185.665 58.1436H186.74L184.929 60.7924L186.87 63.6414H185.704L184.337 61.5393L182.95 63.6414H181.852L183.793 60.7924L181.982 58.1436Z" fill="#231F20"/>
<path fill-rule="evenodd" clip-rule="evenodd" d="M190.416 58.7977C190.122 58.7977 189.872 58.8571 189.661 58.9748C189.446 59.0936 189.275 59.2509 189.142 59.4489C189.01 59.6458 188.911 59.8713 188.846 60.1221C188.783 60.374 188.75 60.6303 188.75 60.8921C188.75 61.155 188.783 61.4113 188.846 61.6621C188.911 61.914 189.01 62.1384 189.142 62.3364C189.275 62.5333 189.446 62.6917 189.661 62.8094C189.872 62.9282 190.122 62.9876 190.416 62.9876C190.708 62.9876 190.96 62.9282 191.171 62.8094C191.384 62.6917 191.555 62.5333 191.69 62.3364C191.823 62.1384 191.921 61.914 191.986 61.6621C192.047 61.4113 192.08 61.155 192.08 60.8921C192.08 60.6303 192.047 60.374 191.986 60.1221C191.921 59.8713 191.823 59.6458 191.69 59.4489C191.555 59.2509 191.384 59.0936 191.171 58.9748C190.96 58.8571 190.708 58.7977 190.416 58.7977ZM190.416 58.0123C190.825 58.0123 191.191 58.0893 191.517 58.2433C191.842 58.3984 192.116 58.6052 192.341 58.867C192.566 59.1299 192.739 59.4346 192.86 59.7833C192.979 60.1331 193.039 60.5027 193.039 60.8921C193.039 61.2881 192.979 61.6599 192.86 62.0086C192.739 62.3573 192.566 62.6642 192.341 62.9249C192.116 63.1867 191.842 63.3946 191.517 63.5442C191.191 63.696 190.825 63.7719 190.416 63.7719C190.005 63.7719 189.639 63.696 189.313 63.5442C188.99 63.3946 188.714 63.1867 188.489 62.9249C188.264 62.6642 188.091 62.3573 187.971 62.0086C187.851 61.6599 187.791 61.2881 187.791 60.8921C187.791 60.5027 187.851 60.1331 187.971 59.7833C188.091 59.4346 188.264 59.1299 188.489 58.867C188.714 58.6052 188.99 58.3984 189.313 58.2433C189.639 58.0893 190.005 58.0123 190.416 58.0123Z" fill="#231F20"/>
<path fill-rule="evenodd" clip-rule="evenodd" d="M195.527 62.8562H197.223C197.514 62.8562 197.742 62.7803 197.902 62.6285C198.063 62.4778 198.144 62.2633 198.144 61.9861C198.144 61.7144 198.063 61.5043 197.902 61.3591C197.742 61.2117 197.514 61.138 197.223 61.138H195.527V62.8562ZM195.527 60.4461H197.093C197.322 60.4461 197.514 60.3801 197.668 60.2492C197.82 60.1194 197.897 59.9302 197.897 59.6838C197.897 59.4066 197.829 59.2119 197.69 59.0986C197.553 58.9853 197.353 58.9292 197.093 58.9292H195.527V60.4461ZM194.568 58.1438H197.23C197.722 58.1438 198.115 58.256 198.411 58.4815C198.708 58.7081 198.856 59.0502 198.856 59.5067C198.856 59.7839 198.788 60.0215 198.654 60.2195C198.519 60.4164 198.326 60.5693 198.075 60.6771V60.6925C198.411 60.7651 198.668 60.9246 198.841 61.1743C199.015 61.4218 199.103 61.7342 199.103 62.1093C199.103 62.3249 199.065 62.5262 198.987 62.7132C198.91 62.9013 198.791 63.0619 198.627 63.1994C198.463 63.3358 198.252 63.4425 197.998 63.5217C197.742 63.602 197.437 63.6416 197.084 63.6416H194.568V58.1438Z" fill="#231F20"/>
<path fill-rule="evenodd" clip-rule="evenodd" d="M201.749 61.4542H203.421L202.601 59.0914H202.578L201.749 61.4542ZM202.088 58.1432H203.106L205.218 63.641H204.191L203.676 62.1857H201.488L200.974 63.641H199.985L202.088 58.1432Z" fill="#231F20"/>
<path fill-rule="evenodd" clip-rule="evenodd" d="M206.368 58.1436H207.327V60.3304H209.821V58.1436H210.78V63.6414H209.821V61.162H207.327V63.6414H206.368V58.1436Z" fill="#231F20"/>
<path fill-rule="evenodd" clip-rule="evenodd" d="M212.562 58.1436H213.521V62.24L215.846 58.1436H216.974V63.6414H216.015V59.5142L213.658 63.6414H212.562V58.1436Z" fill="#231F20"/>
<path fill-rule="evenodd" clip-rule="evenodd" d="M221.769 58.9287H220.349C220.223 58.9287 220.101 58.9419 219.99 58.9672C219.875 58.9936 219.778 59.0409 219.69 59.1102C219.601 59.1795 219.533 59.2719 219.482 59.3907C219.43 59.5084 219.407 59.658 219.407 59.8373C219.407 60.0122 219.435 60.1563 219.495 60.2729C219.553 60.3884 219.63 60.4808 219.724 60.5501C219.818 60.6194 219.923 60.6689 220.034 60.6997C220.147 60.7305 220.257 60.7459 220.367 60.7459H221.769V58.9287ZM222.728 63.6411H221.769V61.5313H220.726L219.282 63.6411H218.134L219.675 61.4708C219.417 61.4081 219.212 61.3168 219.053 61.1969C218.895 61.0759 218.772 60.9395 218.682 60.7877C218.592 60.637 218.529 60.4786 218.498 60.3147C218.462 60.1508 218.448 59.9946 218.448 59.845C218.448 59.6756 218.471 59.4908 218.521 59.2906C218.568 59.0904 218.66 58.9056 218.792 58.7362C218.925 58.5668 219.114 58.426 219.356 58.3127C219.599 58.2005 219.917 58.1433 220.311 58.1433H222.728V63.6411Z" fill="#231F20"/>
<g filter="url(#filter0_d)">
<path d="M9.39539 47.5161L8.64313 43.9097C8.64313 43.9097 4.3888 29.5893 8.38388 18.2348C12.3789 6.87589 31.9378 1.32148 39.9492 4.35315C47.9606 7.38482 52.0789 12.4127 52.0789 12.4127C52.0789 12.4127 30.684 22.0343 24.4959 34.705L18.4183 43.6464C18.4183 43.6464 12.7445 35.6921 14.8865 27.7905C14.8865 27.7905 12.1197 37.5919 12.3449 47.5644C12.5235 55.2993 9.39539 47.5161 9.39539 47.5161Z" fill="#DC3832"/>
<path opacity="0.27" d="M16.2341 40.9921C16.1873 40.8298 15.8218 36.008 23.4252 28.5539C23.4252 28.5539 22.7537 30.4273 22.9747 31.0635C22.9747 31.0635 30.4208 19.6914 35.7334 17.4933C35.7334 17.4933 35.0874 18.6955 35.5634 19.4808C35.5634 19.4808 36.6472 16.3395 38.6575 15.4357C38.6575 15.4357 37.4845 17.195 37.8755 18.1339C37.8755 18.1339 47.2596 9.1354 53.9833 11.3598L48.7514 19.959L30.9138 30.6379L18.9244 40.8517L16.2341 40.9921Z" fill="#5D5D5D"/>
<path d="M13.6795 36.7318C13.6795 36.7318 13.161 24.3375 21.4529 16.4578C21.4529 16.4578 17.9083 32.1733 22.5154 38.592C27.1225 45.0108 14.9418 43.0935 14.9418 43.0935L13.6795 36.7318Z" fill="url(#paint0_linear)"/>
<path d="M46.2863 6.42834C46.2863 6.42834 40.2809 0.952903 29.9575 6.13439C19.6341 11.3159 18.648 7.78404 24.2284 3.48442C29.8088 -0.819595 41.505 -2.4517 46.2863 6.42834Z" fill="url(#paint1_linear)"/>
<path d="M4.26562 51.2849C4.26562 51.2849 3.97237 53.4434 4.00212 53.6979C4.03187 53.9524 4.17212 55.9794 5.9189 57.9712C5.9189 57.9712 5.66815 57.3833 6.36941 57.7475C7.06643 58.1116 6.97292 59.1514 6.97292 59.1514C6.97292 59.1514 8.30745 59.8095 9.15321 59.4717C9.15321 59.4717 10.6705 60.1649 11.546 59.9499C11.546 59.9499 11.1805 59.3971 12.6638 59.2216C14.1513 59.0417 15.4093 58.6688 16.0596 57.9449C16.0596 57.9449 15.2393 57.7475 16.5228 56.7077C17.8106 55.6635 18.3929 53.0266 18.4651 52.2106C18.4651 52.2106 18.1804 52.8687 17.8319 53.1495C17.8319 53.1495 18.2994 49.9292 16.5484 47.9417C16.5484 47.9417 17.1689 49.2535 16.8884 49.7756C16.8884 49.7756 16.4166 47.3187 15.3966 46.5641C14.3766 45.8094 14.6358 46.7439 13.4415 46.1341C12.2473 45.5199 10.781 44.5502 8.3117 45.3268C8.3117 45.3268 9.17021 45.9542 8.07794 46.3227C6.98567 46.6913 4.89039 48.1962 4.29538 49.1219C4.29963 49.1175 4.91589 50.2582 4.26562 51.2849Z" fill="white"/>
<path d="M28.8904 42.3521C27.5729 42.0055 25.5371 43.0672 25.5371 43.0672C27.6961 39.5881 34.4665 35.4332 34.4665 35.4332C34.1095 36.2449 34.7087 36.745 34.7087 36.745C35.682 33.9547 41.2369 29.3041 41.2369 29.3041C40.4336 31.4144 41.1731 32.0242 41.1731 32.0242C42.0146 28.6196 44.4669 26.4172 44.4669 26.4172C42.8434 28.1107 43.4044 29.6945 43.4044 29.6945C43.4044 29.6945 46.9277 25.6889 51.1353 23.6751C55.3429 21.6569 57.7442 21.8148 57.7442 21.8148C57.5912 19.1297 54.0806 17.5371 54.0806 17.5371C54.1061 16.3218 55.4916 17.6117 55.4916 17.6117C53.9233 15.6506 49.6393 12.9436 48.258 12.0924C42.7669 14.0141 38.2958 18.5682 38.2958 18.5682C38.1343 17.4845 39.6303 16.0191 39.6303 16.0191C36.8763 17.445 36.0603 20.0555 36.0603 20.0555C36.226 18.7437 36.991 17.9276 36.991 17.9276C28.4526 22.3983 23.1103 31.9672 23.1103 31.9672C23.089 30.787 23.8328 29.2119 23.8328 29.2119C23.8328 29.2119 15.5749 36.0957 16.5439 40.913C17.5129 45.7304 21.1552 49.3192 21.1552 49.3192C20.3307 47.8495 20.6877 46.8272 20.6877 46.8272C21.2105 47.7617 21.8353 48.5076 22.477 49.1043C24.1133 45.4101 28.8904 42.3521 28.8904 42.3521Z" fill="white"/>
<path d="M58.3392 18.1207C58.3647 16.9054 59.7502 18.1952 59.7502 18.1952C57.8717 15.8436 52.0788 12.4127 52.0788 12.4127C52.9246 12.246 53.7619 13.0006 53.7619 13.0006C52.7929 11.2106 51.5093 11.329 51.5093 11.329C50.7018 11.4211 49.9028 11.5923 49.1208 11.8204C48.989 11.8599 48.8573 11.8994 48.7255 11.9432C48.5683 11.9915 48.4153 12.0442 48.2623 12.0968C49.6436 12.9436 53.9276 15.6506 55.4959 17.6161C55.4959 17.6161 54.1104 16.3306 54.0849 17.5415C54.0849 17.5415 57.5955 19.1341 57.7485 21.8192C57.7485 21.8192 55.3472 21.6613 51.1396 23.6795C46.932 25.6976 43.4087 29.6989 43.4087 29.6989C43.4087 29.6989 42.8519 28.1151 44.4712 26.4216C44.4712 26.4216 42.0232 28.624 41.1774 32.0286C41.1774 32.0286 40.4379 31.4188 41.2411 29.3085C41.2411 29.3085 35.682 33.9547 34.713 36.7494C34.713 36.7494 34.1138 36.2493 34.4708 35.4376C34.4708 35.4376 27.7046 39.5924 25.5414 43.0716C25.5414 43.0716 27.5729 42.0055 28.8947 42.3565C28.8947 42.3565 24.1176 45.4145 22.4771 49.113C24.3046 50.811 26.2511 51.2716 26.2511 51.2716C26.9481 46.9106 33.1532 42.94 33.1532 42.94C31.8357 42.5934 29.7999 43.6552 29.7999 43.6552C31.959 40.176 38.7294 36.0211 38.7294 36.0211C38.3723 36.8328 38.9716 37.333 38.9716 37.333C39.9449 34.5426 45.4997 29.892 45.4997 29.892C44.6965 32.0023 45.436 32.6121 45.436 32.6121C46.2775 29.2075 48.7298 27.0051 48.7298 27.0051C47.1063 28.6986 47.6673 30.2824 47.6673 30.2824C47.6673 30.2824 51.1906 26.2768 55.3982 24.263C59.6057 22.2448 61.4843 24.3902 61.4843 24.3902C62.092 21.1436 58.3392 18.1207 58.3392 18.1207Z" fill="#F2F2F2"/>
<path d="M17.8361 53.1493C17.8361 53.1493 18.3036 49.929 16.5526 47.9415C16.5526 47.9415 17.1731 49.2533 16.8926 49.7754C16.8926 49.7754 16.4208 47.3185 15.4008 46.5639C14.3808 45.8093 14.64 46.7438 13.4457 46.1339C12.3237 45.5592 10.9637 44.6642 8.75791 45.2038C10.0457 45.2126 10.951 45.7785 11.7287 46.1778C12.7955 46.7262 12.5617 45.8926 13.4712 46.5639C14.3808 47.2352 14.8015 49.4288 14.8015 49.4288C15.0523 48.9638 14.4955 47.7924 14.4955 47.7924C16.0553 49.5649 15.6388 52.4386 15.6388 52.4386C15.949 52.1885 16.204 51.605 16.204 51.605C16.1403 52.3289 15.6175 54.6849 14.47 55.615C13.3225 56.5452 14.0578 56.7207 14.0578 56.7207C13.4755 57.3656 12.3535 57.699 11.0275 57.857C9.70143 58.0149 10.0287 58.5063 10.0287 58.5063C9.24667 58.6994 7.89514 58.0807 7.89514 58.0807C7.54239 58.2211 7.09188 58.1685 6.71362 58.072C7.02388 58.5239 6.96863 59.16 6.96863 59.16C6.96863 59.16 8.30315 59.8181 9.14892 59.4803C9.14892 59.4803 10.6662 60.1735 11.5417 59.9585C11.5417 59.9585 11.1762 59.4057 12.6595 59.2302C14.147 59.0504 15.405 58.6774 16.0553 57.9535C16.0553 57.9535 15.235 57.7561 16.5186 56.7163C17.8063 55.6721 18.3886 53.0353 18.4608 52.2192C18.4693 52.2104 18.1846 52.8685 17.8361 53.1493Z" fill="#F2F2F2"/>
</g>
<defs>
<filter id="filter0_d" x="0" y="0" width="65.5509" height="67.9999" filterUnits="userSpaceOnUse" color-interpolation-filters="sRGB">
<feFlood flood-opacity="0" result="BackgroundImageFix"/>
<feColorMatrix in="SourceAlpha" type="matrix" values="0 0 0 0 0 0 0 0 0 0 0 0 0 0 0 0 0 0 127 0"/>
<feOffset dy="4"/>
<feGaussianBlur stdDeviation="2"/>
<feColorMatrix type="matrix" values="0 0 0 0 0 0 0 0 0 0 0 0 0 0 0 0 0 0 0.08 0"/>
<feBlend mode="normal" in2="BackgroundImageFix" result="effect1_dropShadow"/>
<feBlend mode="normal" in="SourceGraphic" in2="effect1_dropShadow" result="shape"/>
</filter>
<linearGradient id="paint0_linear" x1="11.8388" y1="30.7429" x2="20.783" y2="29.928" gradientUnits="userSpaceOnUse">
<stop offset="0.00731265" stop-color="#9B1F18"/>
<stop offset="0.1549" stop-color="#AA251E"/>
<stop offset="0.4873" stop-color="#C52F29"/>
<stop offset="0.7801" stop-color="#D63630"/>
<stop offset="1" stop-color="#DC3832"/>
</linearGradient>
<linearGradient id="paint1_linear" x1="41.2632" y1="11.9434" x2="24.8167" y2="1.04292" gradientUnits="userSpaceOnUse">
<stop offset="0.00203643" stop-color="#B93832"/>
<stop offset="1" stop-color="#DC3832"/>
</linearGradient>
</defs>
</svg>
