<svg xmlns="http://www.w3.org/2000/svg" viewBox="0 0 700 146.2"><defs><style>.cls-2{fill:#0060a9}.cls-4{fill:#ab54ff}.cls-6{fill:#4578ff}.cls-7{fill:#231f20}</style></defs><g style="isolation:isolate"><g id="Layer_1" data-name="Layer 1"><path class="cls-2" d="M262.2 42.2a34.2 34.2 0 0 0-.5-6.1 37.8 37.8 0 0 0-1.7-5.5 15.1 15.1 0 0 0-3.4-5.2 22.2 22.2 0 0 0-5.1-4.3 31.4 31.4 0 0 0-16.5-4.3h-25.8v76.3h16.2v-23h8.6a38.1 38.1 0 0 0 7.7-1 46 46 0 0 0 6.7-2.2 18.1 18.1 0 0 0 6.3-4.2 19.9 19.9 0 0 0 3.8-4.8 33 33 0 0 0 2.6-6.4 30.2 30.2 0 0 0 1.1-9.3zm-16 .7c0 2.9-.6 5.1-1.8 6.6a12.5 12.5 0 0 1-4.3 3.4 17.8 17.8 0 0 1-6.6 1.5l-8.2.3V31l9.6.2c3.1.4 5.5 1.3 7 2.5a11.7 11.7 0 0 1 3.2 3.8 11.9 11.9 0 0 1 1 5.3zM416 19.9a3.5 3.5 0 0 0-1.4-2.6 3.9 3.9 0 0 0-1-.5 17.7 17.7 0 0 0-2.5-.9 21.5 21.5 0 0 0-3.3-.6 17.7 17.7 0 0 0-3.9.2 14.8 14.8 0 0 0-4.4 1.3 6.6 6.6 0 0 0-1 .6 8.4 8.4 0 0 0-.8.7 3.4 3.4 0 0 0-1 1.2L372.9 58l-24-38.8a8.8 8.8 0 0 0-1-1.2 5 5 0 0 0-1-.8 6.4 6.4 0 0 0-1-.6 16.3 16.3 0 0 0-7.7-1.1 29.6 29.6 0 0 0-5.8 1 5.3 5.3 0 0 0-1.3.7 3.7 3.7 0 0 0-.9 1 3 3 0 0 0-.5 1.6v71l-28.8-71.4a4.8 4.8 0 0 0-2-2 15.7 15.7 0 0 0-3-1.2 16.7 16.7 0 0 0-4.8-.6 17.6 17.6 0 0 0-4.7.5 11.3 11.3 0 0 0-2.8 1.2 4.2 4.2 0 0 0-1.9 2l-29.6 73h18.4l5-13h32l5 13h33.5V44.7L372 86.3h1.7l26.2-41.6v47.6H416V20zM301.9 64.6h-21L291 36.9z"/><g style="mix-blend-mode:multiply"><path class="cls-4" d="M484 42.2a33.3 33.3 0 0 0-.6-6.1 36.4 36.4 0 0 0-1.6-5.4 15.3 15.3 0 0 0-3.5-5.3 22.3 22.3 0 0 0-5-4.3 32 32 0 0 0-6.7-3 32.4 32.4 0 0 0-9.9-1.2H431V93h16.2v-23h8.6a38 38 0 0 0 7.8-1 46 46 0 0 0 6.7-2.2 18 18 0 0 0 6.2-4.2 19.9 19.9 0 0 0 3.9-4.8 32.3 32.3 0 0 0 2.6-6.4 30.2 30.2 0 0 0 1.1-9.3zm-16.1.7c0 2.9-.5 5.1-1.8 6.6a12.6 12.6 0 0 1-4.3 3.4 17.8 17.8 0 0 1-6.5 1.5l-8.2.3V31l9.5.2c3.2.4 5.6 1.3 7 2.5a11.4 11.4 0 0 1 3.3 3.8 12 12 0 0 1 1 5.3zM530.4 20.4v-.1a4.8 4.8 0 0 0-2.1-2 15.2 15.2 0 0 0-3-1.2 16.6 16.6 0 0 0-4.7-.6 17.1 17.1 0 0 0-4.8.6 11.5 11.5 0 0 0-2.8 1 4.1 4.1 0 0 0-1.9 2l-29.6 73H500l5-12.8h32l5 12.8h17.8zm.9 45h-21l10.3-27.6z"/></g><g style="mix-blend-mode:hue"><path class="cls-6" d="M619.9 27.5a32.2 32.2 0 0 0-11.4-7.6 36.8 36.8 0 0 0-14.4-2.5l-13.7-.2h-14.8v75.7H594a38.4 38.4 0 0 0 14.4-2.9 33 33 0 0 0 11.4-7.7 36 36 0 0 0 7.3-12 42.3 42.3 0 0 0 2.7-15.1 44.4 44.4 0 0 0-2.7-15.7 34.9 34.9 0 0 0-7.4-12zm-6.1 27.2c0 7.2-1.7 13-5 17s-8.1 6-14.7 6l-12.6-.3V32.6h12.6a21.6 21.6 0 0 1 8.6 1.6 16.5 16.5 0 0 1 6 4.4 19.6 19.6 0 0 1 3.8 7 30.7 30.7 0 0 1 1.3 9.1zM698.3 17.4a10.3 10.3 0 0 0-2.8-1 15.8 15.8 0 0 0-4-.5 15.3 15.3 0 0 0-3.8.5 10 10 0 0 0-2.8 1 3 3 0 0 0-1.6 2.7V54l-.2 3.8a58.7 58.7 0 0 1-.8 10 16 16 0 0 1-2.6 6.7 11 11 0 0 1-5 3.8 22.1 22.1 0 0 1-8.2 1.3 22.5 22.5 0 0 1-8.4-1.3 10.8 10.8 0 0 1-4.9-3.8 17 17 0 0 1-2.6-6.7 55.2 55.2 0 0 1-.8-10v-37a3.4 3.4 0 0 0-.2-1.3 3 3 0 0 0-.5-1 2.3 2.3 0 0 0-.8-.6 14.7 14.7 0 0 0-2.2-1 14 14 0 0 0-3.4-.7 17.7 17.7 0 0 0-4 0 12 12 0 0 0-4.4 1.7h-.1l-.7.7v.1a3.6 3.6 0 0 0-.6 1.9v38c0 11.7 2.9 20.9 8.5 27.3s14 9.7 25 9.7 19.4-3.5 25-10S700 69.8 700 58V20.2a3.1 3.1 0 0 0-1.7-2.8z"/></g><path class="cls-7" d="M226.1 126.7a11.5 11.5 0 0 1-1 4.9 7.2 7.2 0 0 1-2.7 3.2 7.5 7.5 0 0 1-10.9-3.2 11.2 11.2 0 0 1-1-4.9v-1a11.3 11.3 0 0 1 1-4.8 7.2 7.2 0 0 1 6.8-4.3 7.5 7.5 0 0 1 4.1 1.1 7.3 7.3 0 0 1 2.7 3.2 11.3 11.3 0 0 1 1 4.9zm-3.2-1a10.1 10.1 0 0 0-.6-3.5 4.6 4.6 0 0 0-1.5-2.2 4 4 0 0 0-2.5-.7 4 4 0 0 0-2.4.7 4.6 4.6 0 0 0-1.5 2.2 9.8 9.8 0 0 0-.6 3.5v1a9.9 9.9 0 0 0 .6 3.5 4.6 4.6 0 0 0 1.6 2.2 4 4 0 0 0 2.4.8 3.8 3.8 0 0 0 3.3-1.7 8.4 8.4 0 0 0 1.2-4.8zM249.5 116.9v18.7h-3.3l-8.3-13.3v13.3h-3.3V117h3.3l8.4 13.3v-13.3zM270.4 133v2.6h-11.8v-18.7h3.3V133zM281.6 116.9v18.7h-3.3V117zM305.7 116.9v18.7h-3.3l-8.3-13.3v13.3h-3.3V117h3.3l8.4 13.3v-13.3zM314.8 135.6V117H327v2.6h-9v5.2h7.8v2.5H318v5.8h9v2.6zM350.3 116.9v18.7H347V117zM374.4 116.9v18.7H371l-8.3-13.3v13.3h-3.3V117h3.3l8.3 13.3v-13.3zM392.6 129a10.5 10.5 0 0 0-3.5-1.5 12.6 12.6 0 0 1-4.4-2.2 4.3 4.3 0 0 1-1.6-3.5 4.5 4.5 0 0 1 .9-2.7 5.5 5.5 0 0 1 2.3-1.8 8.5 8.5 0 0 1 3.5-.7 7.9 7.9 0 0 1 3.5.8 5.6 5.6 0 0 1 2.4 2 5.3 5.3 0 0 1 .8 3h-3.2a3 3 0 0 0-1-2.3 3.7 3.7 0 0 0-2.6-.9 3.8 3.8 0 0 0-2.5.7 2.3 2.3 0 0 0-.8 2 2 2 0 0 0 1 1.6 10 10 0 0 0 3 1.3 15.5 15.5 0 0 1 3.4 1.5 5.6 5.6 0 0 1 2 1.9 4.9 4.9 0 0 1 .7 2.6 4.6 4.6 0 0 1-.8 2.7 5.2 5.2 0 0 1-2.3 1.8 10 10 0 0 1-7 0 6.8 6.8 0 0 1-2.8-2 5 5 0 0 1-1-3.3h3.2a3 3 0 0 0 1.1 2.5 4.9 4.9 0 0 0 3 .8 4.1 4.1 0 0 0 2.6-.7 2.2 2.2 0 0 0 .8-1.8 2.3 2.3 0 0 0-.8-1.8zM415.1 116.9h3.3v12.5a6.5 6.5 0 0 1-1 3.5 5.7 5.7 0 0 1-2.4 2.2 8.3 8.3 0 0 1-3.6.8 8.5 8.5 0 0 1-3.6-.8 5.6 5.6 0 0 1-2.5-2.2 6.7 6.7 0 0 1-1-3.5v-12.5h3.3v12.5a3.9 3.9 0 0 0 1 2.9 4.4 4.4 0 0 0 5.5 0 3.9 3.9 0 0 0 1-3zM437.8 135.6l-3.8-7.2h-3.6v7.2H427V117h6.6a7.6 7.6 0 0 1 5 1.4 5.1 5.1 0 0 1 1.8 4.2 5.4 5.4 0 0 1-1 3.1 5.6 5.6 0 0 1-2.5 2l4.2 7.9v.1zm-7.4-16.1v6.3h3.3a4.2 4.2 0 0 0 2-.4 2.8 2.8 0 0 0 1.1-1.1 3.5 3.5 0 0 0-.4-4 3.6 3.6 0 0 0-2.6-.9zM447.2 135.6l7-18.7h3l7 18.7H461l-1.6-4.4h-7.2l-1.5 4.4zm5.8-7h5.4l-2.7-7.8zM486.5 116.9v18.7h-3.3l-8.3-13.3v13.3h-3.2V117h3.2l8.4 13.3v-13.3zM510 129.5a7.6 7.6 0 0 1-1 3.3 6.2 6.2 0 0 1-2.6 2.2 8.4 8.4 0 0 1-3.8.9 7.3 7.3 0 0 1-4-1.1 7.2 7.2 0 0 1-2.6-3.1 11 11 0 0 1-1-4.7v-1.5a11 11 0 0 1 1-4.7 7 7 0 0 1 2.6-3 7.6 7.6 0 0 1 4.1-1.2 7.8 7.8 0 0 1 3.7.8 6 6 0 0 1 2.4 2.3 8.2 8.2 0 0 1 1 3.4h-3.1a4.9 4.9 0 0 0-1.2-2.9 3.7 3.7 0 0 0-2.8-1 3.8 3.8 0 0 0-3.3 1.6 8 8 0 0 0-1.1 4.5v1.7a8.5 8.5 0 0 0 1 4.6 3.5 3.5 0 0 0 3.2 1.6 4.9 4.9 0 0 0 2.2-.4 2.8 2.8 0 0 0 1.3-1.2 6 6 0 0 0 .6-2zM518.1 135.6V117h12.2v2.6h-9v5.2h7.7v2.5h-7.7v5.8h9v2.6zM559.1 129a10.5 10.5 0 0 0-3.4-1.5 12.5 12.5 0 0 1-4.4-2.2 4.3 4.3 0 0 1-1.6-3.5 4.5 4.5 0 0 1 .8-2.7 5.6 5.6 0 0 1 2.4-1.8 8.6 8.6 0 0 1 3.5-.7 8 8 0 0 1 3.5.8 5.6 5.6 0 0 1 2.4 2 5.3 5.3 0 0 1 .8 3h-3.2a3 3 0 0 0-1-2.3 4.7 4.7 0 0 0-5-.2 2.3 2.3 0 0 0-1 2 2 2 0 0 0 1 1.6 10 10 0 0 0 3 1.3 15.6 15.6 0 0 1 3.5 1.5 5.8 5.8 0 0 1 2 1.9 5 5 0 0 1 .7 2.6 4.6 4.6 0 0 1-.8 2.7 5.2 5.2 0 0 1-2.3 1.8 10 10 0 0 1-7 0 6.8 6.8 0 0 1-2.8-2 5 5 0 0 1-1.1-3.3h3.3a3 3 0 0 0 1 2.5 4.9 4.9 0 0 0 3 .8 4.1 4.1 0 0 0 2.6-.7 2.2 2.2 0 0 0 .9-1.8 2.3 2.3 0 0 0-.8-1.8zM571.3 135.6V117h12.1v2.6h-8.9v5.2h7.7v2.5h-7.7v5.8h9v2.6zM602 135.6l-3.7-7.2h-3.6v7.2h-3.3V117h6.6a7.6 7.6 0 0 1 5 1.4 5.1 5.1 0 0 1 1.8 4.2 5.4 5.4 0 0 1-1 3.1 5.6 5.6 0 0 1-2.5 2l4.2 7.9v.1zm-7.3-16.1v6.3h3.3a4.2 4.2 0 0 0 2-.4 2.8 2.8 0 0 0 1.1-1.1 3.5 3.5 0 0 0-.5-4 3.6 3.6 0 0 0-2.6-.9zM627.8 116.9l-6.7 18.7h-3.2l-6.7-18.7h3.6l4.7 14.6 4.7-14.6zM638.7 116.9v18.7h-3.3V117zM662.2 129.5a7.5 7.5 0 0 1-1 3.3 6.2 6.2 0 0 1-2.5 2.2 8.4 8.4 0 0 1-3.8.9 7.3 7.3 0 0 1-4-1.1 7.2 7.2 0 0 1-2.6-3.1 11.2 11.2 0 0 1-1-4.7v-1.5a11 11 0 0 1 1-4.7 7.1 7.1 0 0 1 2.7-3 7.6 7.6 0 0 1 4-1.2 7.9 7.9 0 0 1 3.8.8 6 6 0 0 1 2.4 2.3 8.2 8.2 0 0 1 1 3.4H659a5 5 0 0 0-1.1-2.9 4.4 4.4 0 0 0-6.1.6 8 8 0 0 0-1.2 4.6v1.6a8.5 8.5 0 0 0 1 4.6 3.5 3.5 0 0 0 3.3 1.6 4.8 4.8 0 0 0 2.2-.4 2.8 2.8 0 0 0 1.3-1.2 6.3 6.3 0 0 0 .6-2zM670.4 135.6V117h12.1v2.6h-8.9v5.2h7.7v2.5h-7.7v5.8h9v2.6z"/><path class="cls-2" d="M29.2 0A29.2 29.2 0 0 0 4 43.7l14.2 24.7 14.2 24.7.1.2-2.2-3.8a32.1 32.1 0 0 1 20.6-47.3A29.2 29.2 0 0 1 76.5.1H57.7L29.3 0"/><path class="cls-4" d="M133.5 88.1l-3 5.2a29.2 29.2 0 0 1-49.1 2.1 29.2 29.2 0 0 1-49-2l9.4 16.4 11.7 20.3a32.1 32.1 0 0 0 55.6.1L121 110l11.7-20.2 1-1.6"/><path d="M50.8 42.2a32.1 32.1 0 0 0-20.6 47.3l2.2 3.8a29.2 29.2 0 0 0 49 2.1L80 93.2 65.8 68.5 51.6 43.8l-.9-1.6" fill="#0020a9"/><path class="cls-6" d="M77 .1h-.5 9.7a29.2 29.2 0 0 1 26 42.2 32.2 32.2 0 0 1 21.3 45.8l11.3-19.4L159.1 44A29.2 29.2 0 0 0 133.9.2h-28.5L77 0"/><path d="M76.5.1a29.2 29.2 0 0 0-25.8 42.1 32.4 32.4 0 0 1 7.4-.8H105a32.6 32.6 0 0 1 7.4 1A29.2 29.2 0 0 0 86.2 0h-9.7" fill="#1d4bc6"/><path d="M112.3 42.4l-1 1.6-14.2 24.6-14.3 24.6-1.4 2.2a29.2 29.2 0 0 0 49.1-2.1l3-5.2a32.2 32.2 0 0 0-21.2-45.7" fill="#5381fe"/><path d="M58 41.4a32.4 32.4 0 0 0-7.3.8l1 1.6 14 24.7L80 93.2l1.4 2.2 1.5-2.2L97 68.6 111.4 44l.9-1.6a32.6 32.6 0 0 0-7.4-.9H58.1" fill="#002587"/></g></g></svg>