<svg width="204" height="43" xmlns="http://www.w3.org/2000/svg" xmlns:xlink="http://www.w3.org/1999/xlink"><defs><path id="a" d="M0 .2h24.4v26H0z"/></defs><g fill="none" fill-rule="evenodd"><path d="M71.7 12.6c0 .9-.1 1.5-.5 2-.4.4-.8.8-1.3 1-.5.2-1.1.4-1.9.4l-2.4.1v-7l2.8.1c1 .1 1.6.4 2 .7.5.4.8.8 1 1.2.2.4.3 1 .3 1.5zm4.7-.2a9.9 9.9 0 0 0-.6-3.3l-1-1.6-1.5-1.2A9.3 9.3 0 0 0 68.5 5h-7.6v22.3h4.8v-6.7h2.5a11 11 0 0 0 4.2-1c.7-.2 1.3-.6 1.8-1.2.4-.3.8-.8 1.1-1.4.3-.5.6-1.1.8-1.8.2-.8.3-1.7.3-2.8zM88 19h-6.2l3-8.1 3.1 8zm33.2-13.1a1 1 0 0 0-.4-.7l-.3-.2a5.3 5.3 0 0 0-4.1 0 2.7 2.7 0 0 0-.5.4 1 1 0 0 0-.3.4l-7 11.3-7-11.4-.3-.3-.3-.3-.3-.1c-.7-.4-1.5-.5-2.2-.4a9 9 0 0 0-1.7.3l-.4.2a1 1 0 0 0-.2.3L96 6v20.7L87.6 5.8c0-.3-.3-.5-.6-.6a4.5 4.5 0 0 0-2.2-.5l-1.4.1-.8.4c-.3.1-.5.3-.6.6L73.4 27h5.4l1.4-3.8h9.3l1.5 3.8h9.8V13l7.6 12.2h.5l7.6-12.1V27h4.7V5.9z" fill="#0060A9"/><g fill="#AB54FF"><path d="M136.3 12.6c0 .9-.2 1.5-.5 2-.4.4-.8.8-1.3 1-.5.2-1.2.4-1.9.4l-2.4.1v-7l2.8.1c1 .1 1.6.4 2 .7.5.4.8.8 1 1.2.2.4.3 1 .3 1.5zm4.7-.2c0-.6 0-1.2-.2-1.8 0-.5-.2-1-.5-1.5a6.5 6.5 0 0 0-2.5-2.8A9.3 9.3 0 0 0 133 5h-7.5v22.3h4.8v-6.7h2.5a11 11 0 0 0 4.2-1c.7-.2 1.3-.6 1.8-1.2.4-.3.8-.8 1.1-1.4.3-.5.6-1.1.8-1.8.2-.8.3-1.7.3-2.8zM154.8 19.2h-6.1l3-8 3 8zM154.5 6l-.6-.6a4.5 4.5 0 0 0-2.3-.5c-.5 0-1 0-1.3.2-.4 0-.7.2-.9.3l-.5.6-8.6 21.3h5.3l1.5-3.7h9.3l1.5 3.7h5.2L154.5 6z"/></g><g fill="#4578FF"><path d="M178.8 16.1c0 2.1-.5 3.8-1.4 5-1 1.1-2.4 1.7-4.3 1.7h-3.7V9.5h3.7c1 0 1.8.2 2.5.5s1.3.7 1.7 1.3c.5.5.9 1.2 1.1 2 .3.8.4 1.7.4 2.7m1.8-8c-1-1-2-1.7-3.3-2.2-1.3-.5-2.7-.7-4.2-.7h-8.3v22h8.3c1.5 0 3-.2 4.2-.8a9.6 9.6 0 0 0 5.4-5.7 13 13 0 0 0 0-9c-.5-1.4-1.2-2.6-2.1-3.5M203.4 5.2a4.5 4.5 0 0 0-2-.5c-.3 0-.7 0-1 .2-.4 0-.6.2-.9.3-.4.2-.4.6-.4.8v9.9l-.1 1c0 1.2 0 2.2-.2 3-.2.8-.4 1.4-.8 2-.3.4-.8.8-1.4 1-.6.3-1.4.4-2.4.4s-1.8 0-2.5-.3c-.6-.3-1-.7-1.4-1.2a5 5 0 0 1-.7-2 16 16 0 0 1-.3-2.8V6v-.4a1 1 0 0 0-.2-.2l-.2-.2a4.5 4.5 0 0 0-1.6-.5H186c-.4 0-.9.2-1.3.5l-.2.2-.2.6v11c0 3.5.8 6.2 2.5 8 1.6 2 4 3 7.3 3 3.2-.1 5.6-1.1 7.3-3 1.6-1.9 2.4-4.6 2.4-8V6a1 1 0 0 0-.5-.9"/></g><g><mask id="b" fill="#fff"><use xlink:href="#a"/></mask><path d="M8.5.2a8.5 8.5 0 0 0-7.4 12.7l4.2 7.3 3.4 6a9.4 9.4 0 0 1 6-13.7A8.5 8.5 0 0 1 22.5.2h2H8.5" fill="#0060A9" mask="url(#b)"/></g><path d="M38.9 25.9l-.9 1.5a8.4 8.4 0 0 1-7.3 4.2 8.4 8.4 0 0 1-7-3.6 8.4 8.4 0 0 1-7 3.6 8.4 8.4 0 0 1-7.3-4.3l-.7-1.1h.1l3.4 6 3.4 6c1.8 3 5 4.6 8.1 4.6 3.2 0 6.3-1.5 8.1-4.6l3.4-6 3.4-5.9.3-.4" fill="#AB54FF"/><path d="M14.8 12.4a9.4 9.4 0 0 0-6 13.8l.6 1.1a8.4 8.4 0 0 0 7.4 4.3c2.6 0 5.2-1.2 7-3.6l-.5-.7-4.1-7.2L15 13l-.2-.5" fill="#0020A9"/><path d="M24.4.1h.7a8.5 8.5 0 0 1 7.6 12.4c5.7 1.3 9 7.8 6.2 13.4l3.3-5.7 4.1-7.2A8.5 8.5 0 0 0 39 .2H24.4" fill="#4578FF"/><path d="M22.4.1a8.5 8.5 0 0 0-7.6 12.3l2.1-.2h13.7l2.1.3A8.5 8.5 0 0 0 25.1 0h-2.7" fill="#1D4BC6"/><path d="M32.7 12.5l-.2.5-4.2 7.1-4.2 7.2-.4.7a8.4 8.4 0 0 0 7 3.6c2.8 0 5.7-1.4 7.3-4.2l.9-1.5c2.8-5.6-.5-12-6.2-13.4" fill="#5381FE"/><path d="M17 12.2c-.8 0-1.5 0-2.2.2l.2.5 4.2 7.2 4 7.2.5.7.4-.7 4.2-7.2 4.1-7.1.3-.5-2.1-.3H16.9" fill="#002587"/><path d="M65.1 36l-.1-.4a1.2 1.2 0 0 0-.7-.6l-.5-.1c-.3 0-.6 0-.8.2-.2 0-.4.3-.5.4l-.3.7a3.1 3.1 0 0 0 0 1.6l.3.6.5.5.8.2.5-.1.5-.3.2-.5.2-.6h.9l-.2 1-.5.7-.7.4-1 .2c-.3 0-.7-.1-1-.3-.4-.1-.6-.3-.9-.6-.2-.2-.4-.5-.5-.9a3.4 3.4 0 0 1 .5-3.1 2.5 2.5 0 0 1 2-.9l.8.1.7.4a2 2 0 0 1 .8 1.4h-1zM67.6 34.2h4v.9h-3v1.4h2.7v.8h-2.7v1.6h3v.8h-4zM74 36.8h1.8c.1 0 .2 0 .3-.2l.2-.2.1-.5v-.4a.7.7 0 0 0-.6-.4h-1.7v1.7zm-.9-2.6h2.4l1 .2.5.4.3.6v1.1c0 .2-.1.4-.3.5 0 .2-.3.4-.5.5l-1 .1h-1.4v2.1h-1v-5.5zM79.8 39h1.7c.3 0 .6-.1.7-.3.2-.1.3-.3.3-.6s-.1-.5-.3-.6a1 1 0 0 0-.7-.3h-1.7V39zm0-2.5h1.6c.2 0 .4 0 .6-.2l.2-.5c0-.3 0-.5-.2-.6l-.6-.2h-1.6v1.5zm-1-2.3h2.7c.5 0 1 .2 1.2.4.3.2.5.6.5 1l-.2.7-.6.5c.3 0 .6.2.8.5l.2 1-.1.5c0 .2-.2.4-.4.5l-.6.3a3 3 0 0 1-1 .1H79v-5.5zM85 34.2h.9v4.1l2.3-4h1.1v5.4h-1v-4l-2.3 4h-1zM94.8 36l-.1-.4a1.2 1.2 0 0 0-.7-.6l-.5-.1c-.3 0-.6 0-.8.2-.2 0-.4.3-.5.4l-.3.7a3.1 3.1 0 0 0 0 1.6l.3.6.5.5.8.2.5-.1.4-.3c.2-.2.3-.3.3-.5l.2-.6h.9l-.2 1-.5.7-.7.4-1 .2c-.4 0-.7-.1-1-.3-.4-.1-.6-.3-.9-.6-.2-.2-.4-.5-.5-.9a3.4 3.4 0 0 1 .5-3.1 2.5 2.5 0 0 1 2-.9l.8.1.7.4a2 2 0 0 1 .8 1.4h-1zM102.4 34.9c-.3 0-.5 0-.7.2-.2 0-.4.3-.5.4-.2.2-.3.5-.3.7a3.1 3.1 0 0 0 0 1.6l.3.6a1.5 1.5 0 0 0 1.2.7c.3 0 .6 0 .8-.2l.5-.5.3-.6a3.1 3.1 0 0 0 0-1.6l-.3-.7a1.5 1.5 0 0 0-1.3-.6m0-.8a2.5 2.5 0 0 1 2 .9c.2.2.4.5.5.9a3.4 3.4 0 0 1-.5 3.1c-.3.3-.5.5-.9.6-.3.2-.7.3-1 .3-.5 0-.8-.1-1.2-.3-.3-.1-.6-.3-.8-.6-.2-.2-.4-.5-.5-.9a3.4 3.4 0 0 1 .5-3.1 2.5 2.5 0 0 1 2-.9M106.6 34.2h1v2.2h2.4v-2.2h1v5.5h-1v-2.4h-2.5v2.4h-1zM112.5 39l.4-.1.2-.3.2-.4a4.3 4.3 0 0 0 .1-.9 6.8 6.8 0 0 0 0-.9V36l.1-.7v-1h3.8v5.5h-1v-4.6h-1.9a38.1 38.1 0 0 0-.2 3v.5l-.4.5c0 .2-.2.4-.4.5l-.8.2a3.6 3.6 0 0 1-.4 0v-.9H112.5M120.2 37.6h1.7l-.8-2.4-.9 2.4zm.3-3.4h1l2.2 5.5h-1l-.6-1.4H120l-.5 1.4h-1l2.1-5.5zM126.2 32.6c0 .2.2.4.3.4l.6.2c.2 0 .3 0 .5-.2l.2-.4h.5c0 .4-.2.6-.4.8-.3.2-.5.3-.9.3s-.6-.1-.8-.3c-.3-.2-.4-.5-.4-.8h.4zm-1.4 1.6h1v4.1l2.3-4h1.1v5.4h-1v-4l-2.3 4h-1v-5.5zM131 34.2h1v2.2h2.5v-2.2h1v5.5h-1v-2.4H132v2.4h-1zM143.7 36l-.1-.4a1.2 1.2 0 0 0-.7-.6l-.5-.1c-.3 0-.6 0-.8.2-.2 0-.4.3-.5.4-.2.2-.3.5-.3.7a3.1 3.1 0 0 0 0 1.6l.3.6.5.5.8.2.5-.1.4-.3c.2-.2.3-.3.3-.5l.1-.6h1l-.2 1-.5.7-.7.4-1 .2c-.4 0-.7-.1-1-.3-.4-.1-.6-.3-.9-.6-.2-.2-.4-.5-.5-.9a3.4 3.4 0 0 1 .5-3.1 2.5 2.5 0 0 1 2-.9l.8.1.7.4a2 2 0 0 1 .8 1.4h-1zM145.7 34.2h4.4v.9h-1.7v4.6h-1v-4.6h-1.7zM152.4 36.8h1.7c.1 0 .2 0 .3-.2l.2-.2.1-.5v-.4a.7.7 0 0 0-.5-.4H152.4v1.7zm-1-2.6h2.4l1 .2.6.4.2.6.1.5v.6l-.3.5-.6.5-1 .1h-1.4v2.1h-1v-5.5zM158.3 37.6h1.7l-.8-2.4-.9 2.4zm.4-3.4h1l2 5.5h-1l-.5-1.4h-2.1l-.6 1.4h-1l2.2-5.5zM162.5 34.2h1.1l1.3 2 1.3-2h1l-1.8 2.7 2 2.8h-1.2l-1.4-2-1.3 2h-1.1l1.9-2.8zM171 34.9c-.4 0-.6 0-.8.2-.3 0-.4.3-.6.4l-.3.7a3.1 3.1 0 0 0 0 1.6l.3.6a1.5 1.5 0 0 0 1.3.7c.3 0 .6 0 .8-.2l.5-.5.3-.6a3.2 3.2 0 0 0 0-1.6l-.3-.7-.5-.4-.8-.2m0-.8c.4 0 .8 0 1.1.2l.8.7c.3.2.4.5.6.9a3.4 3.4 0 0 1-.6 3.1c-.2.3-.5.5-.8.6-.3.2-.7.3-1 .3-.5 0-.9-.1-1.2-.3-.3-.1-.6-.3-.8-.6-.2-.2-.4-.5-.5-.9a3.4 3.4 0 0 1 .5-3.1 2.5 2.5 0 0 1 2-.9M176 39h1.7c.3 0 .5-.1.7-.3.2-.1.2-.3.2-.6s0-.5-.2-.6a1 1 0 0 0-.7-.3H176V39zm0-2.5h1.6c.2 0 .4 0 .6-.2l.2-.5c0-.3 0-.5-.2-.6l-.6-.2H176v1.5zm-1-2.3h2.7c.5 0 1 .2 1.2.4.3.2.5.6.5 1l-.2.7-.6.5c.3 0 .6.2.7.5.2.2.3.5.3 1l-.1.5c0 .2-.2.4-.4.5l-.6.3a3 3 0 0 1-1 .1h-2.4v-5.5zM182.2 37.6h1.7l-.8-2.4-.9 2.4zm.4-3.4h1l2.1 5.5h-1l-.5-1.4H182l-.5 1.4h-1l2-5.5zM186.9 34.2h1v2.2h2.4v-2.2h1v5.5h-1v-2.4h-2.5v2.4h-1zM193 34.2h1v4.1l2.3-4h1.2v5.4h-1v-4l-2.3 4H193zM202.3 35h-1.5-.3l-.3.2-.2.3v.9l.2.3.3.1H202.3V35zm1 4.7h-1v-2h-1l-1.5 2h-1.2l1.6-2.1c-.3 0-.5-.2-.6-.3a1.4 1.4 0 0 1-.6-.9 2.2 2.2 0 0 1 0-1 1.4 1.4 0 0 1 .9-1l1-.2h2.3v5.5z" fill="#231F20"/></g></svg>