<svg xmlns="http://www.w3.org/2000/svg" fill="none" viewBox="0 0 45 47"><path fill="#7245FF" d="M2.54 35.564l2.178-3.266 13.427 7.62-2.177 3.63L2.54 35.564z"/><path fill="#000" d="M44.99 28.75a3.492 3.492 0 00-1.412-2.55 3.475 3.475 0 00-4.544.342l-2.96 2.96a8.571 8.571 0 01-4.976 2.456 3.41 3.41 0 00.362-1.532 3.435 3.435 0 00-3.431-3.432H22.41a8.533 8.533 0 00-5.798-2.25 11.807 11.807 0 00-8.403 3.481l-2.727 2.727-.6-.346a.913.913 0 00-1.246.334L.122 37.025a.913.913 0 00.334 1.247l3.647 2.105a.912.912 0 10.912-1.58l-2.856-1.65 2.601-4.504 12.848 7.417-2.601 4.505-2.88-1.662a.913.913 0 00-.912 1.58l3.67 2.119a.912.912 0 001.247-.334l3.513-6.085a.912.912 0 00.094-.677h10.272c3.833 0 7.437-1.493 10.147-4.203l3.818-3.819a3.492 3.492 0 001.014-2.734zm-2.304 1.444l-3.819 3.818a12.442 12.442 0 01-8.856 3.669H17.136L7.118 31.897 9.5 29.516a9.994 9.994 0 017.114-2.947c1.808 0 3.507.704 4.786 1.983a.913.913 0 00.645.267h5.985c.886 0 1.606.72 1.606 1.607 0 .885-.72 1.606-1.606 1.606H21.09a.913.913 0 000 1.825h8.875c2.795 0 5.422-1.088 7.398-3.064l2.96-2.96a1.66 1.66 0 012.171-.164 1.668 1.668 0 01.19 2.525zM34.719 3.377h.639v.638a.913.913 0 001.825 0v-.638h.639a.913.913 0 000-1.826h-.64V.913a.913.913 0 00-1.824 0v.638h-.64a.913.913 0 000 1.826zM11.489 18.832h.638v.638a.913.913 0 001.826 0v-.638h.639a.913.913 0 000-1.826h-.64v-.638a.913.913 0 00-1.825 0v.638h-.638a.913.913 0 000 1.826z"/><path fill="#000" d="M8.115 40.727a.917.917 0 00-.645.266.915.915 0 00.645 1.558c.24 0 .476-.097.646-.267a.919.919 0 00.267-.645.923.923 0 00-.267-.646.919.919 0 00-.646-.266z"/><path fill="#7245FF" d="M25.766 16.328l-1.815 4.718 3.63-1.814 5.806 2.903-1.089-6.533 3.992-3.266v-1.814h-6.17l-2.54-5.807-2.54 6.896h-3.266l3.992 4.717z"/><path fill="#000" d="M18.115 13.148l4.072 2.945-1.56 4.765c-.26.796.01 1.627.686 2.12.677.491 1.552.49 2.228-.003l4.05-2.956 4.05 2.956c.338.247.726.37 1.115.37.387 0 .774-.122 1.112-.367a1.863 1.863 0 00.686-2.12l-1.56-4.765 4.072-2.945c.677-.49.949-1.32.691-2.115a1.864 1.864 0 00-1.8-1.31H30.93l-1.54-4.762a1.864 1.864 0 00-1.8-1.31c-.836 0-1.542.515-1.8 1.31l-1.539 4.762h-5.027c-.836 0-1.543.514-1.8 1.31a1.863 1.863 0 00.691 2.115zm1.045-1.553c.015-.046.036-.046.064-.046h5.691a.913.913 0 00.868-.632l1.744-5.394c.009-.027.015-.046.063-.046.05 0 .055.019.064.046l1.744 5.394a.913.913 0 00.868.632h5.691c.028 0 .049 0 .064.046s-.002.058-.025.074l-4.611 3.336a.913.913 0 00-.333 1.023l1.767 5.398c.009.027.015.046-.024.075-.04.028-.056.016-.079 0l-4.588-3.349a.912.912 0 00-1.076 0l-4.587 3.349c-.023.016-.04.028-.079 0-.04-.029-.033-.048-.024-.075l1.767-5.398a.912.912 0 00-.333-1.023l-4.611-3.336c-.023-.016-.04-.028-.025-.074z"/></svg>