<svg width="35" height="35" fill="none" xmlns="http://www.w3.org/2000/svg"><path d="M34.487 12.348h-4.614V.512A.513.513 0 0029.36 0H5.64a.513.513 0 00-.513.513v11.834H.513A.513.513 0 000 12.86v21.62c0 .284.23.513.513.513h33.974c.283 0 .513-.23.513-.513V12.86a.513.513 0 00-.513-.512zm-.512 19.57L23.15 23.67l10.825-8.247v16.494zM6.6 28.313a.513.513 0 00-.718-.097l-4.857 3.7V15.425L11.85 23.67l-4.337 3.303a.513.513 0 00.621.816l4.561-3.475 2.008 1.53c.824.627 1.81.94 2.797.94.986 0 1.973-.313 2.796-.94l2.009-1.53 11.064 8.43c.38.289.605.746.606 1.223H1.025c0-.477.227-.934.606-1.223l4.872-3.712a.513.513 0 00.097-.719zM33.37 14.596l-3.496 2.663v-3.886h4.102c0 .477-.227.934-.606 1.223zm-4.521-13.57V18.04l-9.173 6.99a3.598 3.598 0 01-4.35 0l-9.173-6.99V1.026h22.696zM5.127 17.258L1.63 14.596a1.547 1.547 0 01-.606-1.223h4.102v3.886z" fill="#7D8D93"/><path d="M17.5 21.67c5.126 0 9.297-4.17 9.297-9.297 0-5.126-4.17-9.297-9.297-9.297-5.126 0-9.297 4.17-9.297 9.297 0 5.126 4.17 9.297 9.297 9.297zm0-17.568c4.56 0 8.271 3.71 8.271 8.271 0 4.561-3.71 8.272-8.271 8.272-4.56 0-8.271-3.711-8.271-8.272 0-4.56 3.71-8.271 8.271-8.271z" fill="#7D8D93"/><path d="M17.5 12.305a3.593 3.593 0 003.589-3.59A3.593 3.593 0 0017.5 5.128a3.593 3.593 0 00-3.589 3.589 3.593 3.593 0 003.589 3.589zm0-6.153a2.566 2.566 0 012.564 2.564 2.566 2.566 0 01-2.564 2.563 2.566 2.566 0 01-2.563-2.563A2.566 2.566 0 0117.5 6.152zM17.5 19.62a7.23 7.23 0 006.07-3.288.513.513 0 00.083-.28v-.158a2.566 2.566 0 00-2.564-2.564h-7.178a2.566 2.566 0 00-2.564 2.564v.158c0 .1.03.197.084.28A7.23 7.23 0 0017.5 19.62zm-5.127-3.726c0-.848.69-1.539 1.538-1.539h7.178c.848 0 1.538.69 1.538 1.539a6.202 6.202 0 01-5.127 2.7 6.202 6.202 0 01-5.127-2.7z" fill="#7D8D93"/></svg>