<svg width="40" height="40" xmlns="http://www.w3.org/2000/svg" xmlns:xlink="http://www.w3.org/1999/xlink"><defs><circle id="b" cx="26.5" cy="27.5" r="10.5"/><filter x="-69%" y="-59.5%" width="238.1%" height="238.1%" filterUnits="objectBoundingBox" id="a"><feOffset dy="2" in="SourceAlpha" result="shadowOffsetOuter1"/><feGaussianBlur stdDeviation="4.5" in="shadowOffsetOuter1" result="shadowBlurOuter1"/><feColorMatrix values="0 0 0 0 0.905740489 0 0 0 0 0.905740489 0 0 0 0 0.905740489 0 0 0 0.84642701 0" in="shadowBlurOuter1"/></filter></defs><g fill="none" fill-rule="evenodd"><path d="M2.8 28.97v-4.93c0-4.51 3.2-8.37 7.48-9.23a7.22 7.22 0 0 1-4.92-6.87 6.95 6.95 0 0 1 7.06-6.87c3.85 0 6.85 3 6.85 6.87 0 3.22-1.93 6-4.92 6.87a9.43 9.43 0 0 1 7.49 9.23v4.93c-5.78 3-13.27 3-19.05 0zm17.32-1.07v-3.86c0-4.3-3.42-7.73-7.7-7.73a7.87 7.87 0 0 0-7.92 7.73v3.86c4.5 1.93 11.34 1.93 15.62 0zm-7.7-25.11a5.26 5.26 0 1 0 0 10.51 5.26 5.26 0 0 0 0-10.51z" fill="#FFF" fill-rule="nonzero" stroke="#FFF" stroke-width=".01"/><g transform="translate(2 1)"><use fill="#000" filter="url(#a)" xlink:href="#b"/><use fill="#FFF" xlink:href="#b"/></g><g stroke="#DA0B0B" stroke-width="2"><path d="M23 23l11 11M34 23L23 34"/></g></g></svg>