<svg width="40" height="40" xmlns="http://www.w3.org/2000/svg"><g fill="#000" fill-rule="evenodd"><path d="M38.58 17.7a6.5 6.5 0 0 0-1.34-1.39l-.32-.28-.29-.36c-.22-.26-.47-.57-.5-.7 0-.04.05-.2.38-.53 1.04-1.05.25-2.4-.22-3.2-.11-.21-.28-.5-.34-.66.12-.24.27-.63.14-1.08-.16-.56-.68-.9-1.16-1.16l-.18-.1c-.2-.14-.59-.38-1.05-.14-.27.14-.48.4-.86.9-.07.1-.22.23-.38.38l-.36.35a.74.74 0 0 0-.03 1.01c.26.3.7.3.97.03l.32-.3c.22-.2.42-.39.57-.6l.25-.32.12.06c.25.14.38.24.44.3a2.3 2.3 0 0 1-.05.1c-.34.64.05 1.31.43 1.97.2.35.42.71.5 1.02.07.27 0 .34-.06.4-1.43 1.44-.62 2.43.04 3.22l.27.33c.12.15.28.29.51.48.9.75 1.38 1.3 1.2 1.82a4.53 4.53 0 0 1-1.7-.83c-.43-.38-1.54-1.1-2.87.3-1.05 1.12-1.5 2.42-1.2 3.5.17.61.58 1.05 1.1 1.18.55.14 1.14-.1 1.63-.64.1-.1.5-.18.77.01.43.3.15 1.1 0 1.44-.34.83-.03 1.5.2 1.97.25.52.42.87.05 1.57-.32.59-.59.75-.7.78.13-.4.07-.72.02-1.03-.04-.17-.07-.37-.09-.65a.96.96 0 0 0-.52-.82c-.65-.33-1.61.11-1.9.31 0 0-.02.02-.09 0a.55.55 0 0 1-.26-.15 1.32 1.32 0 0 0-1.12-1.12c-.7-.1-1.35.29-1.61.97a3.65 3.65 0 0 0-.23 1.71h-.05c-.81 0-1.18.36-1.38.73-.44-.1-.92 0-1.34.08l-.19.04c-.37-1.03-1.1-1.36-1.7-1.32a1.7 1.7 0 0 0-1.52 1.54c-.03.28-.1.38-.1.4a.2.2 0 0 1-.09-.01c-1.04-.6-1.7-.08-2.07.2-.07.05-.18.13-.23.15a2.4 2.4 0 0 1-1.26-.64.66.66 0 0 0-.97.09c-.24.3-.2.75.08 1.01a3.7 3.7 0 0 0 2.16.98c.47 0 .8-.26 1.03-.44.3-.22.33-.25.6-.09.33.18.88.3 1.38.02.33-.18.74-.59.83-1.52.02-.14.15-.25.25-.26.15-.01.32.26.4.66.08.34.38.7.96.7.22 0 .46-.05.7-.1.26-.05.65-.13.8-.08.68.2 1.16 0 1.43-.62l.02-.06c.04 0 .1-.02.21-.02.45 0 .9-.05 1.2-.4.3-.34.26-.76.23-1.07-.03-.3-.07-.65.12-1.15a.12.12 0 0 1 .07-.07l.04-.01c.08.53.54.93.93 1.12.53.27 1.1.24 1.55-.08.06-.04.19-.1.32-.13l.06.37c.05.26.04.27.03.3-.26.68.03 1.46.66 1.77.66.33 1.72.16 2.54-1.4.71-1.36.27-2.29-.02-2.9-.2-.43-.25-.56-.17-.75.87-2.06-.17-2.98-.51-3.22-.79-.54-1.94-.44-2.53.21-.17.2-.29.23-.3.23-.02-.01-.09-.08-.12-.27-.07-.44.12-1.2.87-2 .58-.61.8-.4 1-.23.53.48 2.06 1.32 2.96 1.16.33-.06.59-.24.74-.5.46-.77.42-1.65-.1-2.47"/><path d="M9.06 20.06c-.3-.1-1.18-.79-2.11-2.06-1.01-1.38-1.59-2.78-1.59-3.84a3.72 3.72 0 0 1 3.7-3.7h.01a3.72 3.72 0 0 1 3.7 3.7c0 .75-.3 1.66-.81 2.62-.22.4-.48.8-.78 1.22a6.75 6.75 0 0 1-2.12 2.06zm12.05-3.8c.67-.63.95-.83 1.47-.67.31.1.34.17.38.25.18.4.57.8 1.4.5.47-.19.8-.3.99-.36.16.1.37.17.7.2 1.56.12 1.95-.55 2.2-1.2.09-.25.12-.3.22-.35l.08-.03a.73.73 0 0 0 .4-.96.74.74 0 0 0-.98-.39l-.16.07c-.64.32-.84.84-.95 1.15-.03.07-.07.18-.1.21-.02.01-.16.07-.58.03h-.09c-.46-.4-.9-.27-2 .15-.2-.25-.5-.5-1.06-.67-1.4-.44-2.3.4-2.94 1.01-.82.76-1.4 1.31-2.98.5a1 1 0 0 0-1.06.06c-.18.13-.3.3-.42.44-.16.22-.22.27-.3.28a1.1 1.1 0 0 0-.37.1 2.43 2.43 0 0 1-.12-.13c-.26-.3-.6-.37-.96-.34A5.2 5.2 0 0 0 9.08 9h-.06a5.2 5.2 0 0 0-5.14 5.16c0 1.25.51 2.49 1.08 3.48-.72.35-.71 1.1-.7 1.51 0 .54-.02.7-.46.86a.74.74 0 0 0-.44.47c-.13.42-.15.77.16 1.14.01.04.06.19.06.59 0 .42.07.8.14 1.11.04.2.1.5.08.6-.03.03-.21.16-.87.24-.3.03-.55.18-.71.4-.33.45-.22 1.02-.11 1.56.05.26.1.54.1.73-.05.83.6 1.08.85 1.18.24.08.39.14.48.77.1.68.8 1.2 1.58 1.2h.12c.7-.05 1.53-.58 1.55-1.91.24-.05.63-.14.92-.52.27-.35.35-.84.28-1.58-.05-.43.14-.66.29-.68.12-.02.2.17.25.35.2.98.86 2.02 1.83 2.14.53.07 1.3-.12 1.93-1.36l.04-.01a.73.73 0 0 0 .43-.95.74.74 0 0 0-.95-.43c-.38.14-.67.39-.83.72-.23.45-.4.55-.44.57-.12-.04-.44-.4-.57-.99-.25-1.19-1.17-1.6-1.92-1.49-.84.13-1.67.97-1.54 2.28.03.27.02.43.01.5l-.05.01c-.28.06-1.16.21-1.16 1.4 0 .3-.08.46-.13.48-.06.02-.14 0-.19-.03-.21-1.3-.9-1.65-1.3-1.8-.02-.3-.08-.59-.13-.86l-.05-.29c.74-.14 1.2-.38 1.5-.78.4-.56.27-1.18.16-1.74-.06-.27-.11-.55-.11-.82 0-.53-.06-.87-.16-1.13.85-.59.84-1.48.83-1.94v-.24l.04-.02.09.12c.32.43 1.97 2.53 3.2 2.53 1.24 0 2.9-2.1 3.21-2.53.24-.31.53-.73.81-1.21a14.85 14.85 0 0 0 .8-.2c.27.27.61.52 1.04.52.2 0 .4-.05.63-.18.63-.09 1-.5 1.2-.77 2.3 1.02 3.53-.12 4.36-.9z"/><path d="M9 15.33c-.37 0-.67-.37-.67-.83 0-.46.3-.83.67-.83.37 0 .67.37.67.83 0 .46-.3.83-.67.83M9 12c-1.1 0-2 1.12-2 2.5S7.9 17 9 17s2-1.12 2-2.5-.9-2.5-2-2.5M30.36 14.77a1 1 0 0 0 1.4-.13 1 1 0 1 0-1.4.13M15.52 27.15a1 1 0 1 0-1.05 1.7 1 1 0 0 0 1.05-1.7"/></g></svg>