<svg width="50" height="58" fill="none" xmlns="http://www.w3.org/2000/svg"><path d="M25 8.686a16.406 16.406 0 1016.406 16.406A16.424 16.424 0 0025 8.686zm0 30.882a14.476 14.476 0 1114.476-14.476A14.492 14.492 0 0125 39.568z" fill="#414141"/><path d="M25 12.546a12.545 12.545 0 1012.546 12.546A12.56 12.56 0 0025 12.546zm0 23.162a10.616 10.616 0 1110.616-10.616A10.628 10.628 0 0125 35.708z" fill="#414141"/><path d="M49.763 24.367l-4.24-4.871 1.246-6.332a.966.966 0 00-.636-1.1l-6.114-2.082-2.083-6.114a.964.964 0 00-1.1-.636l-6.332 1.245-4.87-4.24a.963.963 0 00-1.267 0l-4.871 4.24-6.332-1.245a.97.97 0 00-1.1.636L9.98 9.982l-6.114 2.082a.966.966 0 00-.636 1.1l1.245 6.332-4.239 4.871a.965.965 0 000 1.268l4.24 4.86-1.246 6.342a.965.965 0 00.636 1.098l6.115 2.084 1.385 4.067-5.347 5.347a.965.965 0 00.682 1.648h5.858v5.858a.977.977 0 00.596.892 1.029 1.029 0 001.051-.21l8.93-8.929 1.23 1.071c.491.42.752.426 1.266 0l1.23-1.07 8.93 8.928a.994.994 0 001.051.21.97.97 0 00.596-.892v-5.858h5.858a.965.965 0 00.682-1.648l-5.347-5.346 1.386-4.068 6.114-2.083a.965.965 0 00.636-1.1l-1.245-6.34 4.239-4.861a.965.965 0 000-1.268zM14.49 54.61v-4.493a.963.963 0 00-.965-.965H9.032l3.029-3.029.002.008a.965.965 0 001.1.638l6.332-1.245 2.182 1.9-7.187 7.186zm26.478-5.458h-4.493a.965.965 0 00-.965.965v4.493l-7.188-7.187 2.182-1.899 6.332 1.245a.964.964 0 001.1-.636l.003-.01 3.029 3.029zm2.79-19.568a.966.966 0 00-.22.82l1.174 5.977-5.765 1.965a.962.962 0 00-.602.603l-1.964 5.764-5.968-1.174a.963.963 0 00-.819.22l-4.595 3.998-4.592-3.998a.964.964 0 00-.634-.238c-.062 0-6.152 1.19-6.152 1.19l-1.966-5.763a.964.964 0 00-.602-.601L5.288 36.38l1.174-5.977a.965.965 0 00-.22-.82L2.245 25l3.997-4.594a.965.965 0 00.22-.82L5.288 13.62l5.765-1.964a.963.963 0 00.602-.602l1.964-5.765 5.968 1.173a.96.96 0 00.819-.22L25 2.245l4.594 3.998a.96.96 0 00.82.22l5.967-1.174 1.964 5.765a.963.963 0 00.602.602l5.765 1.964-1.174 5.967a.964.964 0 00.22.82l3.997 4.593-3.997 4.585z" fill="#414141"/><path d="M30.417 19.687a.964.964 0 00-1.365 0l-9.47 9.47a.965.965 0 001.366 1.365l9.469-9.47a.964.964 0 000-1.365zM21.063 23.972a2.896 2.896 0 110-5.791 2.896 2.896 0 010 5.791zm0-3.86a.965.965 0 100 1.93.965.965 0 000-1.93zM29.157 32.066a2.895 2.895 0 110-5.79 2.895 2.895 0 010 5.79zm0-3.86a.965.965 0 100 1.93.965.965 0 000-1.93z" fill="#414141"/></svg>