<svg xmlns="http://www.w3.org/2000/svg" width="215.96" height="164.2"><g transform="translate(-1.82 -1.8)"><path d="M185.47 151.97A85.52 85.52 0 0 0 196.99 109c0-48.06-39.62-87.03-88.5-87.03S20 60.94 20 109a85.51 85.51 0 0 0 11.1 42.23" fill="none" stroke="#23273d" stroke-miterlimit="10" stroke-width="34" opacity=".17"/><path d="M108.5 1.97v10" fill="none" stroke="#c0c2cc" stroke-miterlimit="10"/><path d="M162.02 15.2l-4.58 8.63" fill="none" stroke="#c0c2cc" stroke-miterlimit="10" stroke-width=".99982"/><path d="M202.4 53.84l-7.8 5.88" fill="none" stroke="#c0c2cc" stroke-miterlimit="10" stroke-width="1.0004"/><path d="M217.77 107.47l-9.77.17" fill="none" stroke="#c0c2cc" stroke-miterlimit="10" stroke-width="1.00014"/><path d="M201.54 165.57l-8.28-5.17M16.26 162.57l8.28-5.17" fill="none" stroke="#c0c2cc" stroke-miterlimit="10"/><path d="M2 109.47l9.77.17" fill="none" stroke="#c0c2cc" stroke-miterlimit="10" stroke-width="1.00014"/><path d="M15.23 55.41l8.55 4.74" fill="none" stroke="#c0c2cc" stroke-miterlimit="10" stroke-width="1.00042"/><path d="M55.14 16.38l5.18 8.28" fill="none" stroke="#c0c2cc" stroke-miterlimit="10"/><path d="M170.68 145.97a71.5 71.5 0 1 0-124.72-.61" fill="none" stroke="#b7b9c5" stroke-miterlimit="10" opacity=".34"/><path d="M115.17 2.01l-.41 5.93" fill="none" stroke="#c0c2cc" stroke-miterlimit="10" stroke-width="1.00045"/><path d="M120.24 1.86l-.72 5.9M125.66 2.88l-1.13 5.83M130.97 3.9l-1.44 5.76" fill="none" stroke="#c0c2cc" stroke-miterlimit="10"/><path d="M136.37 4.92l-1.83 5.64" fill="none" stroke="#c0c2cc" stroke-miterlimit="10" stroke-width=".99994"/><path d="M141.67 6.93l-2.13 5.54M147.05 7.94l-2.5 5.38" fill="none" stroke="#c0c2cc" stroke-miterlimit="10"/><path d="M152.42 9.94l-2.88 5.2M157.42 12.94l-2.88 5.2" fill="none" stroke="#c0c2cc" stroke-miterlimit="10" stroke-width="1.00042"/><path d="M167.69 17.94l-3.15 5.04" fill="none" stroke="#c0c2cc" stroke-miterlimit="10"/><path d="M172.02 20.94l-3.49 4.8" fill="none" stroke="#c0c2cc" stroke-miterlimit="10" stroke-width="1.00011"/><path d="M176.26 23.93l-3.73 4.62M180.57 27.92l-4.05 4.34" fill="none" stroke="#c0c2cc" stroke-miterlimit="10"/><path d="M184.78 31.91l-4.27 4.13" fill="none" stroke="#c0c2cc" stroke-miterlimit="10" stroke-width=".99999"/><path d="M189.04 35.89l-4.55 3.82" fill="none" stroke="#c0c2cc" stroke-miterlimit="10"/><path d="M192.22 39.87l-4.74 3.58" fill="none" stroke="#c0c2cc" stroke-miterlimit="10" stroke-width="1.0004"/><path d="M196.44 44.85l-4.98 3.23M199.44 48.85l-4.98 3.23" fill="none" stroke="#c0c2cc" stroke-miterlimit="10" stroke-width="1.00047"/><path d="M205.76 58.79l-5.34 2.6" fill="none" stroke="#c0c2cc" stroke-miterlimit="10" stroke-width="1.00002"/><path d="M207.9 63.75l-5.5 2.22M209.99 68.72l-5.62 1.93" fill="none" stroke="#c0c2cc" stroke-miterlimit="10"/><path d="M212.08 73.67l-5.74 1.54" fill="none" stroke="#c0c2cc" stroke-miterlimit="10" stroke-width="1.00012"/><path d="M213.13 79.64l-5.8 1.23" fill="none" stroke="#c0c2cc" stroke-miterlimit="10" stroke-width=".99987"/><path d="M215.17 84.58l-5.88.83" fill="none" stroke="#c0c2cc" stroke-miterlimit="10"/><path d="M216.18 90.53l-5.92.42" fill="none" stroke="#c0c2cc" stroke-miterlimit="10" stroke-width="1.00045"/><path d="M217.17 96.49l-5.94.1" fill="none" stroke="#c0c2cc" stroke-miterlimit="10" stroke-width="1.00014"/><path d="M217.18 101.8l-5.93-.31" fill="none" stroke="#c0c2cc" stroke-miterlimit="10"/><path d="M217.17 112.49l-5.94.1" fill="none" stroke="#c0c2cc" stroke-miterlimit="10" stroke-width="1.00014"/><path d="M217.2 118.17l-5.94-.21" fill="none" stroke="#c0c2cc" stroke-miterlimit="10" stroke-width=".99961"/><path d="M217.17 123.58l-5.94-.1" fill="none" stroke="#c0c2cc" stroke-miterlimit="10" stroke-width="1.00014"/><path d="M216.15 129.57l-5.93-.2" fill="none" stroke="#c0c2cc" stroke-miterlimit="10" stroke-width=".99961"/><path d="M215.1 134.97l-5.9-.73M214.16 140.43l-5.86-.93M212.16 145.43l-5.86-.93" fill="none" stroke="#c0c2cc" stroke-miterlimit="10"/><path d="M204.68 161.31l-5.25-2.78M207.68 156.31l-5.25-2.78M209.68 151.31l-5.25-2.78M10.96 153.31l5.24-2.78M40.96 147.31l5.24-2.78" fill="none" stroke="#c0c2cc" stroke-miterlimit="10" stroke-width=".99982"/><path d="M170.72 145.27l5.04 3.15" fill="none" stroke="#c0c2cc" stroke-miterlimit="10"/><path d="M12.96 158.31l5.24-2.78" fill="none" stroke="#c0c2cc" stroke-miterlimit="10" stroke-width=".99982"/><path d="M7.95 147.94l5.43-2.42" fill="none" stroke="#c0c2cc" stroke-miterlimit="10" stroke-width="1.00052"/><path d="M6.94 142.55l5.58-2.03M4.93 137.26l5.68-1.74M3.91 131.85l5.79-1.34" fill="none" stroke="#c0c2cc" stroke-miterlimit="10"/><path d="M2.9 125.54l5.84-1.04" fill="none" stroke="#c0c2cc" stroke-miterlimit="10" stroke-width="1.00025"/><path d="M1.95 120.6l5.91-.62" fill="none" stroke="#c0c2cc" stroke-miterlimit="10" stroke-width="1.00052"/><path d="M1.85 114.8l5.93-.31" fill="none" stroke="#c0c2cc" stroke-miterlimit="10"/><path d="M1.83 103.49l5.94.1" fill="none" stroke="#c0c2cc" stroke-miterlimit="10" stroke-width="1.00014"/><path d="M2.85 92.53l5.93.42M2.85 98.53l5.93.42" fill="none" stroke="#c0c2cc" stroke-miterlimit="10" stroke-width="1.00045"/><path d="M3.88 87.58l5.88.83" fill="none" stroke="#c0c2cc" stroke-miterlimit="10"/><path d="M4.9 81.64l5.82 1.23" fill="none" stroke="#c0c2cc" stroke-miterlimit="10" stroke-width=".99987"/><path d="M6.92 76.67l5.74 1.54" fill="none" stroke="#c0c2cc" stroke-miterlimit="10" stroke-width="1.00012"/><path d="M7.94 70.72l5.61 1.93M10.95 65.75l5.5 2.22" fill="none" stroke="#c0c2cc" stroke-miterlimit="10"/><path d="M12.96 60.79l5.34 2.6" fill="none" stroke="#c0c2cc" stroke-miterlimit="10" stroke-width="1.00002"/><path d="M18.96 50.81l5.2 2.88" fill="none" stroke="#c0c2cc" stroke-miterlimit="10" stroke-width="1.00042"/><path d="M21.96 45.84l4.98 3.24" fill="none" stroke="#c0c2cc" stroke-miterlimit="10" stroke-width="1.00047"/><path d="M24.96 41.87l4.74 3.58" fill="none" stroke="#c0c2cc" stroke-miterlimit="10" stroke-width="1.0004"/><path d="M28.95 37.89l4.55 3.82" fill="none" stroke="#c0c2cc" stroke-miterlimit="10"/><path d="M32.94 33.91l4.27 4.13" fill="none" stroke="#c0c2cc" stroke-miterlimit="10" stroke-width=".99999"/><path d="M36.92 29.92l4.05 4.34M40.9 25.93l3.74 4.62" fill="none" stroke="#c0c2cc" stroke-miterlimit="10"/><path d="M44.88 21.94l3.5 4.8" fill="none" stroke="#c0c2cc" stroke-miterlimit="10" stroke-width="1.00011"/><path d="M49.86 18.94L53 23.98" fill="none" stroke="#c0c2cc" stroke-miterlimit="10"/><path d="M64.83 10.94l2.88 5.2M59.83 13.94l2.88 5.2" fill="none" stroke="#c0c2cc" stroke-miterlimit="10" stroke-width="1.00042"/><path d="M69.8 8.94l2.5 5.38M74.76 6.93l2.12 5.54" fill="none" stroke="#c0c2cc" stroke-miterlimit="10"/><path d="M80.72 5.92l1.84 5.64" fill="none" stroke="#c0c2cc" stroke-miterlimit="10" stroke-width=".99994"/><path d="M85.68 3.9l1.43 5.76M91.64 2.88l1.13 5.83M96.59 1.86l.72 5.9" fill="none" stroke="#c0c2cc" stroke-miterlimit="10"/><path d="M102.55 1.84l.41 5.92" fill="none" stroke="#c0c2cc" stroke-miterlimit="10" stroke-width="1.00045"/><circle cx="10.5" cy="10.5" r="10.5" transform="translate(98 98.97)" fill="none" stroke="#b7b9c5" stroke-miterlimit="10" opacity=".34"/><path fill="#343e70" d="M51 140.97h2v2h-2zM42 107.97h2v2h-2zM51 75.97h2v2h-2zM75 51.97h2v2h-2zM107 42.97h2v2h-2zM139 51.97h2v2h-2zM164 74.97h2v2h-2zM173 107.97h2v2h-2zM164 140.97h2v2h-2z"/></g></svg>