<svg xmlns="http://www.w3.org/2000/svg" width="215.96" height="164.2"><g transform="translate(-1.82 -.82)"><path d="M108.5 1v10M108.5.83v5.94" fill="none" stroke="#c0c2cc" stroke-miterlimit="10"/><path d="M162.02 14.23l-4.58 8.63" fill="none" stroke="#c0c2cc" stroke-miterlimit="10" stroke-width=".99982"/><path d="M202.4 52.87l-7.8 5.88" fill="none" stroke="#c0c2cc" stroke-miterlimit="10" stroke-width="1.0004"/><path d="M217.77 106.5l-9.77.17" fill="none" stroke="#c0c2cc" stroke-miterlimit="10" stroke-width="1.00014"/><path d="M201.54 164.6l-8.28-5.18M16.26 161.6l8.28-5.18" fill="none" stroke="#c0c2cc" stroke-miterlimit="10"/><path d="M2 108.5l9.77.17" fill="none" stroke="#c0c2cc" stroke-miterlimit="10" stroke-width="1.00014"/><path d="M15.23 54.44l8.55 4.73" fill="none" stroke="#c0c2cc" stroke-miterlimit="10" stroke-width="1.00042"/><path d="M55.14 15.4l5.18 8.29" fill="none" stroke="#c0c2cc" stroke-miterlimit="10"/><path d="M170.68 145a71.5 71.5 0 1 0-124.72-.61" fill="none" stroke="#b7b9c5" stroke-miterlimit="10" opacity=".34"/><path d="M20 110a85.28 85.28 0 0 0 11 42" fill="none" stroke="#d863e0" stroke-miterlimit="10" stroke-width="35" opacity=".14"/><path d="M115.17 1.04l-.41 5.93" fill="none" stroke="#c0c2cc" stroke-miterlimit="10" stroke-width="1.00045"/><path d="M120.24.88l-.72 5.9M125.66 1.9l-1.13 5.84M130.97 2.93l-1.44 5.76" fill="none" stroke="#c0c2cc" stroke-miterlimit="10"/><path d="M136.37 3.94l-1.83 5.65" fill="none" stroke="#c0c2cc" stroke-miterlimit="10" stroke-width=".99994"/><path d="M141.67 5.95l-2.13 5.55M147.05 6.96l-2.5 5.39" fill="none" stroke="#c0c2cc" stroke-miterlimit="10"/><path d="M152.42 8.97l-2.88 5.2M157.42 11.97l-2.88 5.2" fill="none" stroke="#c0c2cc" stroke-miterlimit="10" stroke-width="1.00042"/><path d="M167.69 16.97L164.54 22" fill="none" stroke="#c0c2cc" stroke-miterlimit="10"/><path d="M172.02 19.96l-3.49 4.8" fill="none" stroke="#c0c2cc" stroke-miterlimit="10" stroke-width="1.00011"/><path d="M176.26 22.96l-3.73 4.61M180.57 26.95l-4.05 4.34" fill="none" stroke="#c0c2cc" stroke-miterlimit="10"/><path d="M184.78 30.94l-4.27 4.12" fill="none" stroke="#c0c2cc" stroke-miterlimit="10" stroke-width=".99999"/><path d="M189.04 34.92l-4.55 3.81" fill="none" stroke="#c0c2cc" stroke-miterlimit="10"/><path d="M192.22 38.9l-4.74 3.57" fill="none" stroke="#c0c2cc" stroke-miterlimit="10" stroke-width="1.0004"/><path d="M196.44 43.87l-4.98 3.24M199.44 47.87l-4.98 3.24" fill="none" stroke="#c0c2cc" stroke-miterlimit="10" stroke-width="1.00047"/><path d="M205.76 57.81l-5.34 2.6" fill="none" stroke="#c0c2cc" stroke-miterlimit="10" stroke-width="1.00002"/><path d="M207.9 62.77L202.4 65M209.99 67.74l-5.62 1.94" fill="none" stroke="#c0c2cc" stroke-miterlimit="10"/><path d="M212.08 72.7l-5.74 1.54" fill="none" stroke="#c0c2cc" stroke-miterlimit="10" stroke-width="1.00012"/><path d="M213.13 78.66l-5.8 1.24" fill="none" stroke="#c0c2cc" stroke-miterlimit="10" stroke-width=".99987"/><path d="M215.17 83.61l-5.88.83" fill="none" stroke="#c0c2cc" stroke-miterlimit="10"/><path d="M216.18 89.56l-5.92.41" fill="none" stroke="#c0c2cc" stroke-miterlimit="10" stroke-width="1.00045"/><path d="M217.17 95.51l-5.94.1" fill="none" stroke="#c0c2cc" stroke-miterlimit="10" stroke-width="1.00014"/><path d="M217.18 100.82l-5.93-.3" fill="none" stroke="#c0c2cc" stroke-miterlimit="10"/><path d="M217.17 111.51l-5.94.1" fill="none" stroke="#c0c2cc" stroke-miterlimit="10" stroke-width="1.00014"/><path d="M217.2 117.2l-5.94-.21" fill="none" stroke="#c0c2cc" stroke-miterlimit="10" stroke-width=".99961"/><path d="M217.17 122.6l-5.94-.1" fill="none" stroke="#c0c2cc" stroke-miterlimit="10" stroke-width="1.00014"/><path d="M216.15 128.6l-5.93-.21" fill="none" stroke="#c0c2cc" stroke-miterlimit="10" stroke-width=".99961"/><path d="M215.1 134l-5.9-.73M213.03 139.3l-5.86-.93M212.16 144.46l-5.86-.93" fill="none" stroke="#c0c2cc" stroke-miterlimit="10"/><path d="M204.68 160.34l-5.25-2.79M207.68 155.34l-5.25-2.79M209.68 150.34l-5.25-2.79M10.96 152.34l5.24-2.79M40.96 146.34l5.24-2.79" fill="none" stroke="#c0c2cc" stroke-miterlimit="10" stroke-width=".99982"/><path d="M170.72 144.3l5.04 3.14" fill="none" stroke="#c0c2cc" stroke-miterlimit="10"/><path d="M12.96 157.34l5.24-2.79" fill="none" stroke="#c0c2cc" stroke-miterlimit="10" stroke-width=".99982"/><path d="M7.95 146.97l5.43-2.42" fill="none" stroke="#c0c2cc" stroke-miterlimit="10" stroke-width="1.00052"/><path d="M6.94 141.58l5.58-2.03M4.93 136.28l5.68-1.73M3.91 130.88l5.79-1.34" fill="none" stroke="#c0c2cc" stroke-miterlimit="10"/><path d="M2.9 124.56l5.84-1.03" fill="none" stroke="#c0c2cc" stroke-miterlimit="10" stroke-width="1.00025"/><path d="M1.95 119.63l5.91-.62" fill="none" stroke="#c0c2cc" stroke-miterlimit="10" stroke-width="1.00052"/><path d="M1.85 113.82l5.93-.3" fill="none" stroke="#c0c2cc" stroke-miterlimit="10"/><path d="M1.83 102.51l5.94.1" fill="none" stroke="#c0c2cc" stroke-miterlimit="10" stroke-width="1.00014"/><path d="M2.85 91.56l5.93.41M2.85 97.56l5.93.41" fill="none" stroke="#c0c2cc" stroke-miterlimit="10" stroke-width="1.00045"/><path d="M3.88 86.61l5.88.83" fill="none" stroke="#c0c2cc" stroke-miterlimit="10"/><path d="M4.9 80.66l5.82 1.24" fill="none" stroke="#c0c2cc" stroke-miterlimit="10" stroke-width=".99987"/><path d="M6.92 75.7l5.74 1.54" fill="none" stroke="#c0c2cc" stroke-miterlimit="10" stroke-width="1.00012"/><path d="M7.94 69.74l5.61 1.94M10.95 64.77l5.5 2.23" fill="none" stroke="#c0c2cc" stroke-miterlimit="10"/><path d="M12.96 59.81l5.34 2.6" fill="none" stroke="#c0c2cc" stroke-miterlimit="10" stroke-width="1.00002"/><path d="M18.96 49.84l5.2 2.88" fill="none" stroke="#c0c2cc" stroke-miterlimit="10" stroke-width="1.00042"/><path d="M21.96 44.87l4.98 3.24" fill="none" stroke="#c0c2cc" stroke-miterlimit="10" stroke-width="1.00047"/><path d="M24.96 40.9l4.74 3.57" fill="none" stroke="#c0c2cc" stroke-miterlimit="10" stroke-width="1.0004"/><path d="M28.95 36.92l4.55 3.81" fill="none" stroke="#c0c2cc" stroke-miterlimit="10"/><path d="M32.94 32.94l4.27 4.12" fill="none" stroke="#c0c2cc" stroke-miterlimit="10" stroke-width=".99999"/><path d="M36.92 28.95l4.05 4.34M40.9 24.96l3.74 4.61" fill="none" stroke="#c0c2cc" stroke-miterlimit="10"/><path d="M44.88 20.96l3.5 4.8" fill="none" stroke="#c0c2cc" stroke-miterlimit="10" stroke-width="1.00011"/><path d="M49.86 17.97L53 23" fill="none" stroke="#c0c2cc" stroke-miterlimit="10"/><path d="M64.83 9.97l2.88 5.2M59.83 12.97l2.88 5.2" fill="none" stroke="#c0c2cc" stroke-miterlimit="10" stroke-width="1.00042"/><path d="M69.8 7.96l2.5 5.39M74.76 5.95l2.12 5.55" fill="none" stroke="#c0c2cc" stroke-miterlimit="10"/><path d="M80.72 4.94l1.84 5.65" fill="none" stroke="#c0c2cc" stroke-miterlimit="10" stroke-width=".99994"/><path d="M85.68 2.93l1.43 5.76M91.64 1.9l1.13 5.84M96.59.88l.72 5.9" fill="none" stroke="#c0c2cc" stroke-miterlimit="10"/><path d="M102.55.86l.41 5.93" fill="none" stroke="#c0c2cc" stroke-miterlimit="10" stroke-width="1.00045"/><circle cx="10.5" cy="10.5" r="10.5" transform="translate(98 98)" fill="none" stroke="#b7b9c5" stroke-miterlimit="10" opacity=".34"/><path fill="#d863e0" d="M51 140h2v2h-2zM42 107h2v2h-2zM51 75h2v2h-2zM75 51h2v2h-2zM107 42h2v2h-2zM139 51h2v2h-2zM164 74h2v2h-2zM173 107h2v2h-2zM164 140h2v2h-2z"/></g></svg>