<svg width="35" height="31" fill="none" xmlns="http://www.w3.org/2000/svg"><path d="M34.98 12.48c.08-3.34-.13-6.68-.63-10A2.4 2.4 0 0032.14.45L29.89.32a.51.51 0 00-.05 1.02l2.23.14c.64.04 1.17.52 1.27 1.15a56.7 56.7 0 010 16.88c-.1.63-.63 1.12-1.27 1.16-9.67.6-19.47.6-29.14 0a1.37 1.37 0 01-1.27-1.16 56.7 56.7 0 010-16.88c.1-.63.63-1.11 1.27-1.15 8.25-.52 16.62-.6 24.86-.23a.51.51 0 10.05-1.02c-8.28-.37-16.69-.3-24.98.22A2.4 2.4 0 00.65 2.48c-.5 3.32-.71 6.66-.63 10-.03.92-.03 4.51 0 5.36-.08 3.26.14 6.56.63 9.82a2.4 2.4 0 002.21 2.02 236.42 236.42 0 0029.28 0 2.4 2.4 0 002.21-2.02c.5-3.26.7-6.56.64-9.82.02-.85.02-4.44 0-5.36zM2.86 21.7a236.58 236.58 0 0029.28 0c.51-.03.99-.23 1.37-.54l-.17 1.2c-.1.64-.63 1.12-1.27 1.16-9.67.6-19.47.6-29.14 0a1.37 1.37 0 01-1.27-1.15l-.17-1.21c.38.31.86.51 1.37.54zm30.63 2.32l-.15 1.05c-.1.63-.63 1.12-1.27 1.16-9.67.6-19.47.6-29.14 0a1.37 1.37 0 01-1.27-1.16l-.15-1.05c.38.3.85.5 1.35.53a236.73 236.73 0 0029.28 0c.5-.04.97-.23 1.35-.53zm-1.42 4.65c-9.67.6-19.47.6-29.14 0a1.37 1.37 0 01-1.27-1.16l-.1-.75c.36.28.81.46 1.3.5a236.81 236.81 0 0029.28 0c.49-.04.94-.22 1.3-.5l-.1.75c-.1.63-.63 1.12-1.27 1.16z" fill="#000"/><path d="M17.5 2.1c-3.66 0-7.4.09-11.13.27a.51.51 0 00-.5.54l.01.14A2.68 2.68 0 012.9 5.71a.51.51 0 00-.57.46 55.75 55.75 0 000 9.8.51.51 0 00.57.47 2.67 2.67 0 012.99 2.8.51.51 0 00.49.54l1.85.08a.51.51 0 00.04-1.03l-1.37-.05a3.7 3.7 0 00-3.59-3.39 54.75 54.75 0 010-8.64 3.7 3.7 0 003.6-3.38 234.74 234.74 0 0120.82-.02 3.7 3.7 0 003.98 3.4 54.7 54.7 0 010 8.65h-.29a3.7 3.7 0 00-3.69 3.4 234.62 234.62 0 01-17.42.1.51.51 0 10-.03 1.02 232.74 232.74 0 0017.98-.12.51.51 0 00.5-.55l-.01-.16a2.68 2.68 0 013.3-2.6.51.51 0 00.63-.45c.3-3.3.3-6.64 0-9.93a.51.51 0 00-.63-.46 2.68 2.68 0 01-3.3-2.76.51.51 0 00-.49-.54c-3.59-.17-7.2-.25-10.75-.25z" fill="#000"/><path d="M24.7 11.07c0-3.6-3.23-6.54-7.2-6.54s-7.2 2.93-7.2 6.54 3.23 6.55 7.2 6.55 7.2-2.94 7.2-6.55zm-13.37 0c0-3.04 2.77-5.52 6.17-5.52s6.17 2.48 6.17 5.52c0 3.05-2.77 5.52-6.17 5.52s-6.17-2.47-6.17-5.52zM5.1 11.07a2.16 2.16 0 104.32 0 2.16 2.16 0 00-4.33 0zm3.29 0a1.14 1.14 0 11-2.28 0 1.14 1.14 0 012.28 0zM29.9 11.07a2.16 2.16 0 10-4.32 0 2.16 2.16 0 004.33 0zm-3.29 0a1.14 1.14 0 112.28 0 1.14 1.14 0 01-2.28 0z" fill="#000"/><path d="M17.97 14.8v-.37c1.13-.2 1.82-1.02 1.94-1.83.13-.94-.47-1.74-1.54-2.05a8.04 8.04 0 01-1.86-.72c-.21-.14-.21-.36-.2-.47.05-.25.25-.55.69-.66a2 2 0 011.6.22.51.51 0 00.61-.82 2.8 2.8 0 00-1.24-.46v-.3a.51.51 0 10-1.03 0v.33l-.19.04c-.76.19-1.32.77-1.44 1.48-.1.6.14 1.18.64 1.5.44.28 1.06.53 2.14.84.57.17.86.5.8.93-.09.64-.8.98-1.44.99-.72 0-1-.02-1.62-.35a.51.51 0 10-.48.9 3.4 3.4 0 001.6.46v.35a.51.51 0 101.02 0z" fill="#000"/></svg>