<svg width="45" height="45" viewBox="0 0 45 45" fill="none" xmlns="http://www.w3.org/2000/svg">
<g clip-path="url(#clip0)">
<path d="M42.8644 14.5102C42.6217 14.09 42.0841 13.9459 41.6638 14.1887C41.2435 14.4316 41.0995 14.9691 41.3423 15.3894C42.5853 17.541 43.2423 19.9996 43.2423 22.4995C43.2423 30.3487 36.8566 36.7344 29.0074 36.7344C21.1583 36.7344 14.7726 30.3487 14.7726 22.4995C14.7726 14.6503 21.1583 8.26465 29.0074 8.26465C31.5078 8.26465 33.9668 8.92189 36.1184 10.1651C36.5386 10.4083 37.0762 10.2641 37.3191 9.84387C37.562 9.42366 37.4181 8.88604 36.9978 8.64319C34.5792 7.24564 31.8162 6.50684 29.0074 6.50684C24.9145 6.50684 21.1765 8.05301 18.3448 10.591H8.43759C7.95226 10.591 7.55868 10.9846 7.55868 11.4699C7.55868 11.9553 7.95226 12.3488 8.43759 12.3488H16.6582C15.7272 13.4794 14.9491 14.7398 14.3535 16.0979H9.63773C9.1524 16.0979 8.75883 16.4915 8.75883 16.9768C8.75883 17.4621 9.1524 17.8557 9.63773 17.8557H13.7031C13.3378 19.0574 13.1101 20.3184 13.0392 21.6206H5.44702C4.96169 21.6206 4.56812 22.0142 4.56812 22.4995C4.56812 22.9848 4.96169 23.3784 5.44702 23.3784H13.0393C13.1101 24.6806 13.3378 25.9416 13.7032 27.1433H9.93173C9.4464 27.1433 9.05282 27.5369 9.05282 28.0222C9.05282 28.5075 9.4464 28.9011 9.93173 28.9011H14.3535C14.9491 30.2592 15.7272 31.5196 16.6582 32.6502H7.89267C7.40733 32.6502 7.01376 33.0437 7.01376 33.5291C7.01376 34.0144 7.40733 34.408 7.89267 34.408H18.3449C21.1765 36.946 24.9146 38.4922 29.0075 38.4922C37.8258 38.4922 45.0001 31.3179 45.0001 22.4995C45.0001 19.6913 44.2616 16.9286 42.8644 14.5102Z" fill="black"/>
<path d="M39.6961 12.6904C39.9211 12.6904 40.1459 12.6046 40.3176 12.433L40.3273 12.4232C40.6705 12.08 40.6705 11.5235 40.3273 11.1802C39.984 10.8371 39.4277 10.8371 39.0843 11.1802L39.0745 11.19C38.7313 11.5332 38.7313 12.0897 39.0745 12.433C39.2463 12.6046 39.4712 12.6904 39.6961 12.6904Z" fill="black"/>
<path d="M16.8784 22.5C16.8784 29.188 22.3194 34.6289 29.0073 34.6289C35.6953 34.6289 41.1362 29.188 41.1362 22.5C41.1362 15.8121 35.6953 10.3711 29.0073 10.3711C22.3194 10.3711 16.8784 15.8121 16.8784 22.5ZM39.3784 22.5C39.3784 28.2186 34.7259 32.8711 29.0073 32.8711C23.2887 32.8711 18.6362 28.2186 18.6362 22.5C18.6362 16.7814 23.2887 12.1289 29.0073 12.1289C34.7259 12.1289 39.3784 16.7814 39.3784 22.5Z" fill="black"/>
<path d="M28.1285 15.4081V16.1311C28.0119 16.1554 27.8941 16.1843 27.7748 16.2201C26.6224 16.5663 25.7612 17.551 25.5272 18.7897C25.3131 19.9233 25.6782 21.0182 26.4799 21.6471C26.8978 21.9749 27.417 22.2743 28.1286 22.5903V27.0797C27.5353 27.0319 27.1514 26.8826 26.5032 26.4585C26.0972 26.1929 25.5524 26.3066 25.2866 26.7129C25.0209 27.1191 25.1346 27.6638 25.5409 27.9295C26.5509 28.5903 27.2418 28.7902 28.1286 28.8421V29.5906C28.1286 30.0759 28.5222 30.4695 29.0075 30.4695C29.4928 30.4695 29.8864 30.0759 29.8864 29.5906V28.7424C31.5317 28.339 32.5868 26.94 32.8187 25.5604C33.1188 23.7754 32.1857 22.2238 30.4417 21.6072C30.259 21.5426 30.0727 21.4755 29.8864 21.4061V17.9542C30.3536 18.1089 30.6608 18.3271 30.6758 18.3379C31.0626 18.6271 31.6106 18.5501 31.9026 18.1647C32.1957 17.7778 32.1198 17.2265 31.7328 16.9334C31.6861 16.898 30.9592 16.3588 29.8863 16.1371V15.4082C29.8863 14.9229 29.4928 14.5293 29.0074 14.5293C28.5221 14.5293 28.1285 14.9228 28.1285 15.4081ZM31.0852 25.2688C30.98 25.895 30.5733 26.557 29.8863 26.887V23.2762C31.2255 23.7677 31.1432 24.9239 31.0852 25.2688ZM27.5646 20.2639C27.2858 20.0452 27.1641 19.5946 27.2545 19.1158C27.3345 18.692 27.6061 18.1868 28.1285 17.9603V20.6311C27.9175 20.5132 27.7263 20.3907 27.5646 20.2639Z" fill="black"/>
<path d="M5.39054 27.1436H2.03101C1.54567 27.1436 1.1521 27.5371 1.1521 28.0225C1.1521 28.5078 1.54567 28.9014 2.03101 28.9014H5.39054C5.87587 28.9014 6.26944 28.5078 6.26944 28.0225C6.26944 27.5371 5.87587 27.1436 5.39054 27.1436Z" fill="black"/>
<path d="M1.75781 22.5C1.75781 22.2688 1.66377 22.0421 1.50021 21.8786C1.33682 21.715 1.11006 21.6211 0.878906 21.6211C0.647754 21.6211 0.420996 21.715 0.25752 21.8786C0.094043 22.0422 0 22.2688 0 22.5C0 22.7312 0.0939551 22.9579 0.25752 23.1213C0.420996 23.2849 0.647754 23.3789 0.878906 23.3789C1.11006 23.3789 1.33682 23.2849 1.50021 23.1213C1.66377 22.9579 1.75781 22.7312 1.75781 22.5Z" fill="black"/>
<path d="M2.03101 17.8555H5.39054C5.87587 17.8555 6.26944 17.4619 6.26944 16.9766C6.26944 16.4912 5.87587 16.0977 5.39054 16.0977H2.03101C1.54567 16.0977 1.1521 16.4912 1.1521 16.9766C1.1521 17.4619 1.54567 17.8555 2.03101 17.8555Z" fill="black"/>
</g>
<defs>
<clipPath id="clip0">
<rect width="45" height="45" fill="white"/>
</clipPath>
</defs>
</svg>
