<svg xmlns="http://www.w3.org/2000/svg" xmlns:xlink="http://www.w3.org/1999/xlink" viewBox="0 0 115.12 24.19"><g transform="translate(-11.56 -11.12)"><path id="a" d="M14.05 32.73V13.66L33.1 32.73V13.66" fill="none" stroke="#090" stroke-linecap="round" stroke-linejoin="round" stroke-width="5"/><path d="M44.69 11.19L44 12.47l-5.31 9.65-.69 1.22.69 1.22L44 33.91l.72 1.28h13.9l.7-1.4 3.96-8 1.78-3.63h-4.03l-10.16.03c-1.32-.02-2.53 1.18-2.53 2.5s1.21 2.52 2.53 2.5l6.13-.03-1.5 3.03h-7.88l-3.9-6.88 3.94-7.12h8.37l1.96 4h5.03l-3.17-7.6-.7-1.4H46.2zM70.01 11.16a2.6 2.6 0 00-2.46 2.53v6.51h5V13.7A2.6 2.6 0 0070 11.16z" fill="#090"/><use height="1052.36" transform="matrix(-1 0 0 1 111.14 .05)" width="744.09" xlink:href="#a"/><g transform="translate(.1 .33)"><path id="b" d="M104.9 13.37L124 32.4" fill="none" stroke="#090" stroke-linecap="round" stroke-linejoin="round" stroke-width="5"/><use height="1052.36" transform="matrix(-1 0 0 1 228.93 0)" width="744.09" xlink:href="#b"/></g><path d="M70.01 35.2a2.6 2.6 0 01-2.46-2.53V22.21h5v10.46A2.6 2.6 0 0170 35.2z" fill="#090"/></g></svg>