<svg width="35" height="35" fill="none" xmlns="http://www.w3.org/2000/svg"><path d="M9.61 20.023c-.856-.31-1.875-.255-2.87.155a5.223 5.223 0 00-2.374 1.963c-.643.993-.832 2.095-.52 3.025.26.773.843 1.358 1.642 1.648.375.136.774.2 1.182.2 1.507 0 3.132-.882 4.062-2.319.643-.992.832-2.095.52-3.025-.26-.773-.843-1.358-1.642-1.648zm.261 4.115c-.725 1.12-2.06 1.846-3.224 1.846-.284 0-.558-.043-.81-.134-.506-.184-.858-.533-1.018-1.01-.213-.632-.064-1.413.408-2.141.725-1.12 2.06-1.847 3.224-1.847.284 0 .558.043.81.134.506.184.858.533 1.018 1.01.213.633.064 1.413-.408 2.142zM9.729 3.938a2.293 2.293 0 00-2.291 2.29 2.293 2.293 0 002.29 2.291 2.293 2.293 0 002.291-2.29 2.293 2.293 0 00-2.29-2.292zm0 3.556a1.267 1.267 0 01-1.266-1.266 1.267 1.267 0 012.53 0c0 .698-.567 1.266-1.264 1.266zM18.323 4.817a2.293 2.293 0 00-2.29-2.29 2.293 2.293 0 00-2.291 2.29 2.293 2.293 0 002.29 2.29 2.293 2.293 0 002.291-2.29zm-2.29 1.265a1.267 1.267 0 01-1.266-1.265c0-.698.568-1.265 1.265-1.265.698 0 1.266.567 1.266 1.265s-.568 1.265-1.265 1.265zM22.148 9.46a2.293 2.293 0 002.291-2.29 2.293 2.293 0 00-2.29-2.292 2.293 2.293 0 00-2.291 2.291 2.293 2.293 0 002.29 2.29zm0-3.556c.698 0 1.266.567 1.266 1.265s-.568 1.265-1.266 1.265a1.267 1.267 0 01-1.265-1.265c0-.698.568-1.265 1.265-1.265zM22.916 12.956a2.293 2.293 0 002.29 2.29 2.293 2.293 0 002.291-2.29 2.293 2.293 0 00-2.29-2.291 2.293 2.293 0 00-2.291 2.29zm2.29-1.266a1.267 1.267 0 010 2.53 1.267 1.267 0 01-1.265-1.264c0-.698.568-1.266 1.265-1.266zM22.19 24.058a2.293 2.293 0 00-2.29-2.29 2.293 2.293 0 00-2.291 2.29 2.293 2.293 0 002.29 2.291 2.293 2.293 0 002.291-2.29zm-2.29 1.266a1.267 1.267 0 01-1.266-1.266 1.267 1.267 0 012.53 0c.001.698-.567 1.266-1.264 1.266z" fill="#000"/><path d="M34.972 7.751c.277-1.37-1.556-2.213-2.407-1.079a56.575 56.575 0 00-2.668 3.888 14.2 14.2 0 00-5.167-7.608C21.905.832 18.31-.204 14.606.033c-2.99.193-6.065 1.22-8.66 2.894-2.264 1.46-3.87 3.244-4.19 4.654-.399 1.762.358 3.156 2.002 3.867 1.294.56 3.537.55 4.012 2.19.578 1.993-2.036 3.497-3.361 4.41-2 1.377-4.068 2.8-4.385 5.78-.175 1.641.615 3.477 2.113 4.91 3.152 3.017 7.972 3.372 12.074 2.753a21.026 21.026 0 005.989-1.84c-.205 1.327 1.007 2.825.223 4.025-.384.588.095 1.38.788 1.32 1.36-.118 3.847-.705 5.223-3.305.47-.888.664-2.395.273-3.396 1.26-2.812 2.946-5.388 4.236-8.193a56.317 56.317 0 004.029-12.35zm-1.586-.464c.207-.276.648-.07.58.26a55.156 55.156 0 01-7.035 17.898l-2.23-1a55.45 55.45 0 018.685-17.158zm-7.503 20.339l-2.113-.948.57-1.272 2.113.948-.57 1.272zm-.734-7.614a1.263 1.263 0 01-2.28-.752c0-.698.567-1.266 1.265-1.266a1.267 1.267 0 011.257 1.407c-.082.203-.162.407-.242.61zm-4.536 8.277a19.944 19.944 0 01-6.555 2.188c-3.777.57-8.297.31-11.212-2.48-1.27-1.215-1.944-2.733-1.802-4.06.267-2.51 1.972-3.685 3.946-5.045 1.774-1.222 4.57-3.047 3.745-5.62-.951-2.972-6.834-1.693-5.978-5.464.473-2.086 5.481-6.338 11.915-6.751 3.46-.222 6.813.742 9.442 2.715a13.19 13.19 0 015.01 7.967c.004.022.01.042.016.063a56.023 56.023 0 00-3.137 6.137 2.289 2.289 0 00-4.16 1.32c0 1.429 1.35 2.53 2.749 2.245-.608 1.703-1.134 3.364-1.874 5.012-.814.287-1.539.902-2.013 1.72l-.01.018a.512.512 0 00-.082.035zm4.915 2.923c-1.045 1.974-2.881 2.56-4.072 2.725.552-1.075.073-2.115-.206-3.187-.33-1.264.554-2.826 1.808-3.267l2.706 1.213c.256.685.098 1.883-.236 2.516z" fill="#000"/></svg>