<svg width="50" height="50" viewBox="0 0 50 50" fill="none" xmlns="http://www.w3.org/2000/svg">
<path fill-rule="evenodd" clip-rule="evenodd" d="M25 2.02989C12.3055 2.02989 2.01461 12.3988 2.01461 25.1896C2.01461 35.6886 8.94909 44.558 18.4559 47.3975V43.3723H20.4705V50L19.2317 49.7051C8.20584 47.0809 0 37.102 0 25.1896C0 11.2778 11.1929 0 25 0C38.8071 0 50 11.2778 50 25.1896C50 36.3987 42.7343 45.8954 32.692 49.1641L31.3751 49.5928V37.4836H33.3897V46.7584C41.9359 43.381 47.9854 34.9959 47.9854 25.1896C47.9854 12.3988 37.6945 2.02989 25 2.02989Z" fill="black"/>
<path d="M19.8676 35.7276V26.9833C19.8676 25.8787 18.9722 24.9833 17.8676 24.9833H15.7459C14.0843 24.9833 13.1473 23.0744 14.1637 21.7599L23.8286 9.26016C24.6293 8.22465 26.1923 8.22465 26.993 9.26016L36.6579 21.7599C37.6743 23.0744 36.7373 24.9833 35.0757 24.9833H33.9098C32.8052 24.9833 31.9098 25.8787 31.9098 26.9833V28.4958" stroke="black" stroke-width="2"/>
<path d="M31.468 33.4097C31.468 34.6085 30.5039 35.5771 29.3187 35.5771C28.1335 35.5771 27.1694 34.6085 27.1694 33.4097C27.1694 32.2108 28.1335 31.2422 29.3187 31.2422C30.5039 31.2422 31.468 32.2108 31.468 33.4097Z" stroke="black" stroke-width="0.5"/>
<path d="M25.7097 39.2114C25.7097 40.4103 24.7456 41.3789 23.5604 41.3789C22.3752 41.3789 21.4111 40.4103 21.4111 39.2114C21.4111 38.0126 22.3752 37.0439 23.5604 37.0439C24.7456 37.0439 25.7097 38.0126 25.7097 39.2114Z" stroke="black" stroke-width="0.5"/>
<path d="M23.2931 33.141L29.7991 39.6956" stroke="black" stroke-width="0.5"/>
</svg>
