<?xml version="1.0" encoding="UTF-8"?>
<svg width="25px" height="24px" viewBox="0 0 25 24" version="1.1" xmlns="http://www.w3.org/2000/svg" xmlns:xlink="http://www.w3.org/1999/xlink">
    <!-- Generator: Sketch 54.1 (76490) - https://sketchapp.com -->
    <title>plus</title>
    <desc>Created with Sketch.</desc>
    <defs>
        <polygon id="path-1" points="0 0 18 0 18 17.999925 0 17.999925"></polygon>
    </defs>
    <g id="plus" stroke="none" stroke-width="1" fill="none" fill-rule="evenodd">
        <g id="Group-3" transform="translate(4.000000, 3.000000)">
            <mask id="mask-2" fill="white">
                <use xlink:href="#path-1"></use>
            </mask>
            <g id="Clip-2"></g>
            <path d="M17.25,7.499925 L10.875,7.499925 C10.65,7.499925 10.5,7.349925 10.5,7.124925 L10.5,0.749925 C10.5,0.299925 10.2,-7.49999999e-05 9.75,-7.49999999e-05 L8.25,-7.49999999e-05 C7.8,-7.49999999e-05 7.5,0.299925 7.5,0.749925 L7.5,7.124925 C7.5,7.349925 7.35,7.499925 7.125,7.499925 L0.75,7.499925 C0.3,7.499925 0,7.799925 0,8.249925 L0,9.749925 C0,10.199925 0.3,10.499925 0.75,10.499925 L7.125,10.499925 C7.35,10.499925 7.5,10.649925 7.5,10.874925 L7.5,17.249925 C7.5,17.699925 7.8,17.999925 8.25,17.999925 L9.75,17.999925 C10.2,17.999925 10.5,17.699925 10.5,17.249925 L10.5,10.874925 C10.5,10.649925 10.65,10.499925 10.875,10.499925 L17.25,10.499925 C17.7,10.499925 18,10.199925 18,9.749925 L18,8.249925 C18,7.799925 17.7,7.499925 17.25,7.499925" id="Fill-1" fill="#7231E6" mask="url(#mask-2)"></path>
        </g>
    </g>
</svg>