<svg xmlns="http://www.w3.org/2000/svg" width="301" height="46" fill="none"><g clip-path="url(#clip0)"><path fill="#231F20" d="M77 24.2H65.6V12.5h12.2c4.5 0 6.7 2 6.7 6 0 3.8-2.4 5.7-7.3 5.7zm8.4-11.8a9.7 9.7 0 00-6.6-2.1H62v28h3.4v-12h12.3c3.1 0 5.6-.6 7.3-2a7.2 7.2 0 002.7-6c0-2.5-.8-4.5-2.4-6zm21.7 20a5.7 5.7 0 01-1.6 2.4c-1.5 1.4-3.8 2.2-6.9 2.2-2.7 0-4.9-.7-6.4-2.2a7.6 7.6 0 01-2.2-5.7c0-1.2.2-2.3.6-3.3a6.5 6.5 0 011.7-2.4 9 9 0 016.3-2.1c6 0 9 2.6 9 7.8 0 1.3-.2 2.4-.5 3.3zm.6-10.3c-2-1.9-5-2.8-9-2.8-3.8 0-6.7 1-8.8 2.8a9 9 0 00-2.8 7c0 3 1 5.3 2.9 7a9.6 9.6 0 003.7 2.1c1.4.4 3 .7 5 .7 4 0 7-1 9-2.8a9 9 0 002.8-7c0-3-.9-5.3-2.8-7zM133 33.2c0 3.8-3.3 5.6-10 5.6-2.1 0-3.9 0-5.3-.3a9 9 0 01-3.4-1.3 5 5 0 01-1.6-1.8c-.4-.8-.7-1.7-.8-2.8h3.1c0 1.4.6 2.5 1.7 3.2 1.2.8 3.2 1.3 6.2 1.3 4.7 0 7.1-1.2 7.1-3.6 0-1.4-.8-2.3-2.4-2.8l-5.7-.8c-3.4-.5-5.6-.8-6.5-1.2-1.8-.7-2.8-2-2.8-4 0-1.9.9-3.3 2.5-4.2.8-.4 1.9-.6 3.1-.9 1.2-.2 2.7-.3 4.3-.3 6.5 0 9.7 2 9.7 6.1h-3c0-2.8-2.3-4.3-6.8-4.3-2.3 0-4 .3-5.2.9a2.8 2.8 0 00-1.7 2.7c0 1 .8 1.9 2.3 2.4.9.3 3 .6 6.2.9 2.9.3 4.9.6 6 1.1 2 .8 3 2.2 3 4v.1zm12.3 5.1l-1.2.2h-.8c-2 0-3.5-.3-4.4-.8-1-.6-1.4-1.7-1.4-3.1V21.8h-3.7v-1.9h3.7v-6h2.9v6h5v2l-5-.1v12.4c0 1 .2 1.6.7 1.9.5.3 1.4.5 2.6.5h.6l1-.2v1.9zm19.8-4.2a8.5 8.5 0 01-2.7 1.4c-1 .4-2.1.5-3.4.5-6 0-9-2.4-9-7.4 0-2.3.8-4 2.3-5.4 1.5-1.3 3.7-1.9 6.5-1.9s4.9.7 6.3 2c1.5 1.3 2.2 3 2.2 5.2a7 7 0 01-2.2 5.6zm5-14.2h-2.8v3.2a19 19 0 00-2.7-2.4c-1.6-1-3.7-1.4-6.2-1.4-3.7 0-6.6.9-8.5 2.6-1.9 1.5-2.8 3.8-2.8 6.8 0 1.4.2 2.7.7 3.9a7.9 7.9 0 002 2.9c2 1.6 4.8 2.4 8.4 2.4 4.3 0 7.3-1.1 9.1-3.5v3.3a6 6 0 01-2 4.8c-1.3 1.1-3.4 1.7-6.4 1.7-2.8 0-4.8-.4-6-1.2-1-.6-1.6-1.6-1.9-3h-3c.4 2 1.3 3.5 2.7 4.4A16 16 0 00159 46c7.4 0 11.2-2.8 11.2-8.3V19.9zm15.5 1.9c-.8-.2-1.6-.2-2.4-.2-4.7 0-7 2.6-7 7.7v9h-2.8V19.9h2.8v3.3h.1a5.7 5.7 0 012.3-2.9c1.2-.6 2.9-1 5.1-1h2v2.5zm2.7 6.1c.3-2 1.1-3.7 2.4-4.8a8.5 8.5 0 012.8-1.5c1-.3 2.2-.5 3.5-.5 2.5 0 4.6.7 6.2 2.1 1.6 1.4 2.4 3 2.4 4.7h-17.3zm17.6-5.6c-1-1-2.2-1.8-3.7-2.2s-3.2-.8-5.2-.8a13 13 0 00-8.6 2.6c-2 1.7-3 4-3 7s.9 5.3 2.9 7c2 2 5 3 9 3 1.5 0 2.9-.2 4.2-.6 1.3-.3 2.5-.8 3.4-1.4a8 8 0 003.3-4.6h-3c-1.1 3.1-3.8 4.7-8 4.7-3 0-5.3-.8-6.9-2.3-1.3-1.3-2-3-2-5.1h20.3c0-3.1-.9-5.5-2.7-7.3z"/><path fill="#367FAF" d="M238.8 30.8c0 5.4-4.4 8.1-13.1 8.1-5.3 0-9.1-.9-11.6-2.8-2-1.5-3-3.9-3-7h3.6c0 5 3.7 7.6 11 7.6 3.5 0 6-.5 7.6-1.6 1.3-.9 2-2.3 2-4.3s-1-3.3-2.8-4c-1-.5-3.5-1-7.4-1.6-5-.8-8.2-1.5-9.7-2.3-2.2-1.1-3.2-3-3.2-5.7 0-2.5.9-4.4 2.7-5.6 2-1.3 5.3-2 10-2 8.7 0 13 2.9 13 8.6h-3.6c0-4.3-3.2-6.4-9.6-6.4-3.2 0-5.5.4-7 1.3a4.5 4.5 0 00-2 4c0 1.9.8 3.2 2.6 4 1 .4 3.8 1 8.5 1.8 4.4.6 7.4 1.4 8.9 2.3 2 1 3.1 3 3.1 5.6zm28.7 2.8a13.8 13.8 0 01-4.5 2.3c-1.6.6-3.5.8-5.5.8a15 15 0 01-10.2-3.4 11.4 11.4 0 01-4-9c0-4 1.4-7 4-9.2 2.5-2.2 6-3.3 10.2-3.3 4.3 0 7.6 1.1 10.1 3.4 1.3 1.1 2.3 2.5 2.9 4 .6 1.4 1 3.2 1 5 0 4-1.4 7-4 9.4zm1.9 1.8c1.8-1.3 3.2-2.9 4-4.7 1-1.9 1.4-4 1.4-6.4 0-4.3-1.4-7.8-4.3-10.4a14.6 14.6 0 00-5.6-3.2c-2.2-.7-4.7-1.1-7.5-1.1-5.4 0-9.7 1.3-12.8 4a13.3 13.3 0 00-4.6 10.7c0 4.4 1.5 8 4.7 10.6a19 19 0 0012.8 4c2.1 0 4 0 5.5-.4 1.6-.3 3-.7 4-1.3l5.3 3.6 2.2-2-5-3.4h-.1zm31.8 2.9h-24.1v-28h3.3v25.6h20.9v2.4z"/><path fill="#231F20" d="M39.2 33.6c.4-2.4.3-2.8 2.4-2.4h.5a14 14 0 005-.6c2.6-1 4.1-2.8 1.5-2.4-6 1-6.3-.6-6.3-.6 6.2-8 8.9-18 6.6-20.4C42.7.4 32 3.6 31.8 3.7a25 25 0 00-4-.3A11 11 0 0021.5 5S2.3-1.7 3.2 13.4c.2 3.2 5.5 24.2 11.7 17.9 2.3-2.4 4.5-4.3 4.5-4.3a6.6 6.6 0 003.8.8l.1.8c-1.6 1.5-1.1 1.8-4.3 2.4-3.3.5-1.4 1.6-.1 1.8 1.5.3 5 .8 7.4-2l-.1.3c.6.4.5 3 .6 5 .1 1.9.3 3.6.7 4.7.5 1 1 3.7 5.2 3 3.6-.7 6.3-1.6 6.5-10.2"/><path stroke="#231F20" stroke-width="4.1" d="M39.2 33.6c.4-2.4.3-2.8 2.4-2.4h.5a14 14 0 005-.6c2.6-1 4.1-2.8 1.5-2.4-6 1-6.3-.6-6.3-.6 6.2-8 8.9-18 6.6-20.4C42.7.4 32 3.6 31.8 3.7h0a25 25 0 00-4-.3A11 11 0 0021.5 5S2.3-1.7 3.2 13.4c.2 3.2 5.5 24.2 11.7 17.9 2.3-2.4 4.5-4.3 4.5-4.3a6.6 6.6 0 003.8.8h0l.1.8c-1.6 1.5-1.1 1.8-4.3 2.4-3.3.5-1.4 1.6-.1 1.8 1.5.3 5 .8 7.4-2l-.1.3c.6.4.5 3 .6 5 .1 1.9.3 3.6.7 4.7.5 1 1 3.7 5.2 3 3.6-.7 6.3-1.6 6.5-10.2"/><path fill="#417BA2" d="M48.6 28.2c-6 1-6.4-.6-6.4-.6 6.3-8 9-18 6.7-20.4-6.2-6.8-17-3.6-17.1-3.5a25 25 0 00-4-.3A11 11 0 0021.5 5S2.3-1.7 3.2 13.4c.2 3.2 5.5 24.2 11.7 17.9 2.3-2.4 4.5-4.3 4.5-4.3a6.6 6.6 0 003.8.8l.1.8c-1.6 1.5-1.1 1.8-4.3 2.4-3.3.5-1.4 1.6-.1 1.8 1.5.3 5 .8 7.4-2l-.1.3c.6.4 1 2.8 1 5-.1 2-.2 3.5.3 4.7.5 1.1 1 3.7 5.3 3 3.5-.7 5.3-2.4 5.6-5.2.1-2 .6-1.6.6-3.4l.3-.8c.4-2.7 0-3.6 2.2-3.2h.6a14 14 0 005-.6c2.6-1 4.1-2.8 1.5-2.4z"/><path stroke="#fff" stroke-width="1.4" d="M26.5 29.8c-.1 5 0 10 .6 11.2s1.8 3.6 6 2.8c3.6-.6 4.9-1.9 5.4-4.6.4-2 1.2-7.7 1.3-8.8M21.5 4.8S2.3-1.8 3.1 13.3c.2 3.2 5.4 24.3 11.7 17.9l4.3-4.2M31.8 3.6c-.7.2 10.6-3.5 17 3.5 2.3 2.4-.3 12.5-6.6 20.4"/><path stroke="#fff" stroke-linejoin="bevel" stroke-width="1.4" d="M42.2 27.5s.4 1.7 6.4.7c2.6-.5 1 1.3-1.6 2.3-2.2.9-7 1-7.2-.1-.2-3 2.6-2.1 2.4-2.9-.2-.7-1.4-1.3-2.2-3-.7-1.5-9.8-12.8 2.5-11.1.4 0-3.2-10-14.8-10.1-11.5-.2-11.1 12-11.1 12"/><path stroke="#fff" stroke-width="1.4" d="M23.3 28.6c-1.6 1.5-1.1 1.7-4.4 2.3-3.2.6-1.3 1.6 0 1.9 1.5.3 5 .7 7.3-2 .7-1 0-2.3-1-2.6-.5-.2-1-.4-2 .4h0z"/><path stroke="#fff" stroke-width="1.4" d="M23.2 28.5c-.2-.9.3-2 .9-3.2.8-1.8 2.7-3.7 1.2-9.7-1.2-4.4-8.7-.9-8.7-.3 0 .6.3 3-.2 6-.6 3.6 2.8 6.7 6.7 6.4"/><path fill="#fff" stroke="#fff" stroke-width=".5" d="M21.4 15.2c0 .2.4.8 1 .9.7 0 1.2-.4 1.2-.6 0-.2-.4-.4-1-.5-.7 0-1.2 0-1.2.2z"/><path fill="#fff" stroke="#fff" stroke-width=".2" d="M40.3 14.8c0 .2-.5.8-1 .8-.7.1-1.2-.3-1.3-.5 0-.2.5-.4 1-.5.7-.1 1.2 0 1.3.2h0z"/><path stroke="#fff" stroke-width="1.4" d="M42.5 13.4c.1 1.6-.4 2.7-.5 4.4 0 2.5 1.4 5.3-.8 8.2"/></g><defs><clipPath id="clip0"><path fill="#fff" d="M0 0h301v46H0z"/></clipPath></defs></svg>