<svg width="40" height="33" fill="none" xmlns="http://www.w3.org/2000/svg"><path d="M37.74 0H2.26A2.26 2.26 0 000 2.26v22.58a2.26 2.26 0 002.26 2.26h12.33l-.86 2.58H11.6a.65.65 0 00-.64.64v1.94a.65.65 0 00.64.64H28.4a.65.65 0 00.64-.64v-1.94a.65.65 0 00-.64-.64h-2.12l-.86-2.58h12.33A2.26 2.26 0 0040 24.84V2.26A2.26 2.26 0 0037.74 0zm-10 30.97v.64H12.26v-.64h15.48zm-12.65-1.3l.86-2.57h8.1l.86 2.58H15.1zm23.62-4.83a.97.97 0 01-.97.97H2.26a.97.97 0 01-.97-.97v-1.61h37.42v1.6zm0-2.9H1.29V2.26a.97.97 0 01.97-.97h35.48a.97.97 0 01.97.97v19.68z" fill="#000"/><path d="M36.36 3H3.64a.7.7 0 00-.45.16.5.5 0 00-.19.38v16.92c0 .14.07.28.19.38.12.1.28.16.45.16h32.72a.7.7 0 00.45-.16.5.5 0 00.19-.38V3.54a.5.5 0 00-.19-.38.7.7 0 00-.45-.16zM4.27 4.08h31.46v7.46h-7.58l-.95-2.8a.54.54 0 00-.2-.26.74.74 0 00-.69-.08.62.62 0 00-.26.2l-3.03 4.04-.82-4.53a.51.51 0 00-.17-.29.68.68 0 00-.34-.15.74.74 0 00-.38.03.62.62 0 00-.29.22l-2.25 3.18-1.07-2.3a.57.57 0 00-.26-.25.73.73 0 00-.76.06.53.53 0 00-.2.29l-1.04 4.18-2.39-6.87a.55.55 0 00-.22-.27.72.72 0 00-.76 0 .56.56 0 00-.23.26L9.9 11.1H4.27V4.08zm31.46 15.84H4.27V12.2h6.1c.13 0 .26-.04.37-.1.11-.07.2-.16.23-.27l1.43-3.65 2.54 7.27c.04.1.12.2.23.28.1.06.24.1.38.1h.02a.7.7 0 00.4-.12c.1-.08.17-.19.2-.3l1.12-4.53.78 1.64c.04.1.11.18.2.23.1.06.22.1.34.1.12.02.23 0 .34-.05a.6.6 0 00.25-.2l2-2.83.81 4.46c.02.11.08.21.17.3a.75.75 0 00.71.13.62.62 0 00.3-.22l3.17-4.24.7 2.04c.03.11.11.21.22.28.11.07.25.11.38.11h8.07v7.3z" fill="#000"/></svg>