<svg width="35" height="35" fill="none" xmlns="http://www.w3.org/2000/svg"><path d="M31.58 0H3.42A3.42 3.42 0 000 3.42v28.16A3.42 3.42 0 003.42 35h2.6a.68.68 0 000-1.37h-2.6a2.05 2.05 0 01-2.05-2.05v-13.4H5.9a3.35 3.35 0 005.42 3.52 3.35 3.35 0 00.94-3.52h4.55v4.55a1.36 1.36 0 001.78 1.3 1.97 1.97 0 012.6 1.88 1.97 1.97 0 01-2.6 1.88 1.36 1.36 0 00-1.78 1.3v4.54h-4.65a.68.68 0 000 1.37h19.41A3.42 3.42 0 0035 31.58V3.42A3.42 3.42 0 0031.58 0zm2.05 3.42v13.4H29.1a3.35 3.35 0 00-5.42-3.52 3.35 3.35 0 00-.94 3.52h-4.55v-4.55a1.36 1.36 0 00-1.78-1.3 1.97 1.97 0 01-2.6-1.88 1.97 1.97 0 012.6-1.88 1.36 1.36 0 001.78-1.3V1.37h13.4c1.13 0 2.05.92 2.05 2.05zM11.17 17.38c-.26.35-.33.81-.2 1.23.24.74.02 1.56-.56 2.08a2 2 0 01-2.64 0 1.99 1.99 0 01-.56-2.08 1.37 1.37 0 00-1.3-1.8H1.37V3.42c0-1.12.92-2.04 2.05-2.04h13.4V5.9a3.33 3.33 0 00-4.38 3.18 3.33 3.33 0 004.38 3.18v4.55h-4.55c-.43 0-.84.2-1.1.56zm22.46 14.2c0 1.13-.92 2.05-2.05 2.05h-13.4V29.1a3.33 3.33 0 004.38-3.18 3.33 3.33 0 00-4.38-3.18v-4.55h4.55a1.37 1.37 0 001.3-1.79 1.99 1.99 0 01.56-2.08 2 2 0 012.64 0c.58.52.8 1.34.56 2.08a1.37 1.37 0 001.3 1.8h4.54v13.4z" fill="#000"/><path d="M9.1 33.63a.69.69 0 00-.7.69.69.69 0 00.7.68.69.69 0 00.68-.68.69.69 0 00-.69-.69z" fill="#000"/></svg>