<svg width="40" height="40" xmlns="http://www.w3.org/2000/svg" xmlns:xlink="http://www.w3.org/1999/xlink"><defs><path id="a" d="M0 0h32v31H0z"/></defs><g fill="none" fill-rule="evenodd"><path d="M20.5 10a.5.5 0 0 0 .5-.48V9.5a.5.5 0 1 0-.5.5M17.44 14.25h4.9a2.48 2.48 0 0 1 2.44 2.5c0 1.38-1.1 2.5-2.45 2.5h-4.89v-5zm4.9 6.25A3.7 3.7 0 0 0 26 16.75 3.71 3.71 0 0 0 22.33 13h-5.5a.62.62 0 0 0-.6.63v5.62h-.62a.62.62 0 0 0-.61.63c0 .34.27.62.61.62h.61V23h-.6a.62.62 0 0 0-.62.63c0 .34.27.62.61.62h.61v3.13c0 .34.28.62.61.62.34 0 .61-.28.61-.63v-3.12h4.28c.34 0 .61-.28.61-.63a.62.62 0 0 0-.6-.62h-4.29v-2.5h4.9z" fill="#000"/><g transform="translate(4 5)"><mask id="b" fill="#fff"><use xlink:href="#a"/></mask><path d="M16 1.21c7.86 0 14.75 6.68 14.75 14.29 0 7.61-6.9 14.29-14.75 14.29-7.86 0-14.75-6.68-14.75-14.29C1.25 7.89 8.15 1.21 16 1.21M32 15.5C32 7.17 24.63 0 16 0 7.38 0 0 7.15 0 15.5S7.38 31 16 31c8.62 0 16-7.15 16-15.5z" fill="#000" mask="url(#b)"/></g><path d="M32 20.36c0-5.29-4.1-10.12-9.42-11.34a.61.61 0 0 0-.74.44.6.6 0 0 0 .46.71c4.83 1.11 8.48 5.5 8.48 10.2 0 5.56-5.04 10.44-10.78 10.44-5.74 0-10.78-4.88-10.78-10.45 0-4.7 3.65-9.08 8.48-10.19a.6.6 0 0 0 .46-.71.61.61 0 0 0-.74-.44C12.1 10.24 8 15.07 8 20.36 8 26.55 13.58 32 20 32c6.38 0 12-5.41 12-11.64z" fill="#000"/></g></svg>