<svg width="35" height="36" fill="none" xmlns="http://www.w3.org/2000/svg"><path d="M33.32 29.85l-.14-.05a1.74 1.74 0 01-1.1-1.63v-8.92a9.92 9.92 0 00-9.45-9.9 1.72 1.72 0 00-.75-2.1L25 2.05a.58.58 0 00-.5-.88 2.2 2.2 0 01-1.43-.49 3.5 3.5 0 00-4.14 0 2.34 2.34 0 01-2.86 0 3.5 3.5 0 00-4.14 0c-.4.33-.91.5-1.43.49a.58.58 0 00-.5.88l3.12 5.2a1.72 1.72 0 00-.75 2.1 9.92 9.92 0 00-9.45 9.9v8.92a1.74 1.74 0 01-1.1 1.63l-.14.05A2.67 2.67 0 002.67 35h29.66a2.67 2.67 0 001-5.15zm-19.9-21.1a.58.58 0 01.58-.58h7a.58.58 0 010 1.16h-7a.58.58 0 01-.58-.58zm-.85-7.1a2.34 2.34 0 012.86 0c.6.46 1.32.7 2.07.68.75.01 1.48-.23 2.07-.68a2.34 2.34 0 012.86 0c.34.25.71.44 1.11.56l-2.87 4.8h-6.34l-2.87-4.8c.4-.12.77-.31 1.11-.56zm19.76 32.19H2.67a1.5 1.5 0 01-.56-2.9l.14-.06a2.9 2.9 0 001.83-2.7v-8.93a8.76 8.76 0 018.75-8.75h9.34a8.76 8.76 0 018.75 8.75v8.92a2.9 2.9 0 001.83 2.71l.14.06a1.5 1.5 0 01-.56 2.9z" fill="#000"/><path d="M16.33 19.25h3.5v1.17h-3.5v-1.17zM17.5 21.59h2.33v1.16H17.5V21.6zM11.67 21.59h4.66v1.16h-4.66V21.6zM17.5 23.92h2.33v1.17H17.5v-1.17zM11.67 23.92h4.66v1.17h-4.66v-1.17zM17.5 26.25h2.33v1.17H17.5v-1.17zM11.67 26.25h4.66v1.17h-4.66v-1.17zM17.5 28.59h2.33v1.16H17.5V28.6zM12.83 28.59h3.5v1.16h-3.5V28.6z" fill="#000"/><path d="M24.5 12.25H14a1.17 1.17 0 00-1.17 1.17V14h-.58a1.17 1.17 0 00-1.17 1.17v.58h-.58a1.17 1.17 0 00-1.17 1.17v14a1.17 1.17 0 001.17 1.17H21a1.17 1.17 0 001.17-1.17v-.58h.58a1.17 1.17 0 001.17-1.17v-.58h.58a1.17 1.17 0 001.17-1.17v-14a1.17 1.17 0 00-1.17-1.17zM21 30.92H10.5v-14h1.17v1.17h1.16v-1.17H14v1.17h1.17v-1.17h1.16v1.17h1.17v-1.17h1.17v1.17h1.16v-1.17H21v14zm1.75-1.75h-.58V16.92A1.17 1.17 0 0021 15.75h-8.75v-.58h10.5v14zm1.75-1.75h-.58V15.17A1.17 1.17 0 0022.75 14H14v-.58h10.5v14z" fill="#000"/></svg>