<svg xmlns="http://www.w3.org/2000/svg" width="84" height="96"><defs><clipPath id="a"><path d="M79.12 96H4.88V75.87H0l1.15-8.08a7.7 7.7 0 0 1 6.45-6.55l10.1-1.6a20.8 20.8 0 0 1-9.3-5.93l-1.04-1.1 2.55-2.55a30.38 30.38 0 0 0 7.98-14.1 30.44 30.44 0 0 0 .9-7.37V22.1l4.06-1.35a14.24 14.24 0 0 1-1.2-2.64 25.52 25.52 0 0 1-1.3-8.09 22.1 22.1 0 0 0-1.14-7L18.2 0h13.93l-2.51 5.03a14.6 14.6 0 0 0-1.23 3.6A23.2 23.2 0 0 1 42 4.64a23.2 23.2 0 0 1 13.6 3.99 14.45 14.45 0 0 0-1.22-3.6L51.88 0H65.8l-1.01 3.04a22.04 22.04 0 0 0-1.14 7 25.51 25.51 0 0 1-1.3 8.09 14.3 14.3 0 0 1-1.2 2.63l4.05 1.35v6.48a30.39 30.39 0 0 0 8.89 21.47l2.55 2.56-1.04 1.09a20.74 20.74 0 0 1-9.31 5.93l10.1 1.6a7.7 7.7 0 0 1 6.45 6.55L84 75.87h-4.88V96zM68.3 89.8v3.1h7.74v-3.1zM55.93 61.15V92.9h9.28V62.6zM31.17 89.81v3.1h21.66v-3.1zm-3.1-28.67l-9.27 1.47V92.9h9.28zM7.98 89.81v3.1h7.73v-3.1zm60.32-6.2v3.1h7.74v-3.1zm-37.12 0v3.1h21.66v-3.1zm-23.2 0v3.1h7.73v-3.1zm60.33-7.74v4.65h7.73v-4.65zm-37.13 1.55v3.1h21.66v-3.1zm-23.2-1.55v4.65h7.73v-4.65zm23.2-4.64v3.1h21.66v-3.1zM68.3 63.1v9.68h12.13l-.64-4.54a4.63 4.63 0 0 0-3.87-3.94zm-52.6 0l-7.61 1.2a4.62 4.62 0 0 0-3.87 3.93l-.65 4.55H15.7zm16.57-2.62l-1.1.18v7.47h21.66v-7.48l-1.1-.17a13.57 13.57 0 0 1-3.4 1.87A17.49 17.49 0 0 1 42 63.48a15.7 15.7 0 0 1-9.73-3zm2-5.06v2.7A12.81 12.81 0 0 0 42 60.39a12.81 12.81 0 0 0 7.74-2.28v-2.7a16.86 16.86 0 0 1-15.47 0zm21.65-5.4a17.14 17.14 0 0 1-3.1 3.37v4.13l3.1.49v-8zm-27.84 0V58l3.1-.49v-4.13a17.2 17.2 0 0 1-3.1-3.36zM18.8 51.1h3.1a9.05 9.05 0 0 1-2.18 5.87 17.21 17.21 0 0 0 3.54.36l1.1-.03H25V48a31.69 31.69 0 0 1-8.46-1.24 33.6 33.6 0 0 1-4.43 5.5l-.39.4a17.92 17.92 0 0 0 4.76 3.24l.6-.6a5.97 5.97 0 0 0 1.73-4.2zm48.67-4.34a31.58 31.58 0 0 1-8.45 1.23v9.3h.53c.38.03.77.04 1.14.04a17.46 17.46 0 0 0 3.6-.37 9.04 9.04 0 0 1-2.18-5.86h3.09a5.97 5.97 0 0 0 1.73 4.2l.6.59a17.9 17.9 0 0 0 4.76-3.25l-.39-.39a33.3 33.3 0 0 1-4.43-5.5zm-39.4-15.27v8.77a13.92 13.92 0 1 0 27.85 0v-8.77a30.05 30.05 0 0 1-7.34 1.01L42 35.8l-6.59-3.3a30.07 30.07 0 0 1-7.33-1.01zm36.33 9.25a16.19 16.19 0 0 1-5.38 1.04v3.11a28.59 28.59 0 0 0 6.86-.9 33.39 33.39 0 0 1-1.48-3.25zm-44.8 0a33.41 33.41 0 0 1-1.48 3.25 28.6 28.6 0 0 0 6.87.9v-3.1a16.2 16.2 0 0 1-5.39-1.05zm39.41-9.77v7.72a13.12 13.12 0 0 0 4.4-.9 28.5 28.5 0 0 0-.1-.37c-.08-.24-.15-.48-.2-.72a33.62 33.62 0 0 1-.91-5.73zm-37.21 0a33.62 33.62 0 0 1-.9 5.73l-.2.72-.12.37a13.06 13.06 0 0 0 4.4.9v-7.72zm15.56-3.1V30L42 32.33l4.64-2.32v-2.14h-.59a6.07 6.07 0 0 1-8.1 0zm18.56-1.91a13.57 13.57 0 0 1-6.19 1.87v1.52a27.08 27.08 0 0 0 6.19-1.08zm-27.84 0v2.3a27 27 0 0 0 6.18 1.09v-1.52a13.6 13.6 0 0 1-6.18-1.87zm31.14-2.59l-.11.1-.1.1v4.3h3.1v-3.53l-2.9-.96zm-34.44 0l-2.89.97v3.53h3.1v-4.3l-.1-.09-.1-.1zM42 20.13a3.1 3.1 0 1 0 3.1 3.1 3.1 3.1 0 0 0-3.1-3.1zM56.88 3.1l.27.55a17.78 17.78 0 0 1 1.86 7.9 11.07 11.07 0 0 1-.81 4.23 10.74 10.74 0 0 1-2.36 3.52l-.14.14a10.7 10.7 0 0 1-4.97 2.8l-2.58.65.02.15a1.3 1.3 0 0 1 .02.18 6 6 0 0 1-.22 1.55h.87a11.15 11.15 0 0 0 10.57-7.63 22.46 22.46 0 0 0 1.15-7.11 25.23 25.23 0 0 1 .97-6.93zm-34.41 0a25.22 25.22 0 0 1 .97 6.94 22.5 22.5 0 0 0 1.15 7.1 11.15 11.15 0 0 0 10.57 7.64h.87a6.01 6.01 0 0 1-.22-1.55 1.29 1.29 0 0 1 .02-.18l.01-.15-2.57-.64a10.75 10.75 0 0 1-4.98-2.83l-.13-.12a10.76 10.76 0 0 1-3.18-7.65 17.8 17.8 0 0 1 1.87-8.01l.27-.55zM42 7.74c-8.05 0-12.33 3.56-13.8 5.1a7.68 7.68 0 0 0 2.15 4.28l.12.12a7.65 7.65 0 0 0 3.55 2l2.76.7a6.16 6.16 0 0 1 3.67-2.69v-6.41h3.1v6.41a6.16 6.16 0 0 1 3.67 2.69l2.76-.7a7.63 7.63 0 0 0 3.54-2l.14-.13a7.64 7.64 0 0 0 2.15-4.27c-1.45-1.54-5.7-5.1-13.81-5.1zm20.1 82.07h-3.09v-7.75h3.1v7.75zm-37.12 0H21.9v-7.75H25v7.75zm37.13-13.94H59v-7.74h3.1v7.74zm-37.13 0H21.9v-7.74H25v7.74zM42 51.1a6.2 6.2 0 0 1-6.19-6.2h3.1a3.1 3.1 0 1 0 6.18 0h3.1A6.2 6.2 0 0 1 42 51.1zm7.73-12.39a1.55 1.55 0 1 1 1.55-1.55 1.55 1.55 0 0 1-1.55 1.55zm-15.46 0a1.55 1.55 0 1 1 1.54-1.55 1.55 1.55 0 0 1-1.54 1.55zm9.28-13.94h-3.1v-3.1h3.1v3.1z" fill="none"/></clipPath><linearGradient id="b" x1=".5" y1=".57" x2=".34" y2=".83" gradientUnits="objectBoundingBox"><stop offset="0" stop-color="#9e2fff"/><stop offset="1" stop-color="#7131e5"/></linearGradient></defs><path d="M79.12 96H4.88V75.87H0l1.15-8.08a7.7 7.7 0 0 1 6.45-6.55l10.1-1.6a20.8 20.8 0 0 1-9.3-5.93l-1.04-1.1 2.55-2.55a30.38 30.38 0 0 0 7.98-14.1 30.44 30.44 0 0 0 .9-7.37V22.1l4.06-1.35a14.24 14.24 0 0 1-1.2-2.64 25.52 25.52 0 0 1-1.3-8.09 22.1 22.1 0 0 0-1.14-7L18.2 0h13.93l-2.51 5.03a14.6 14.6 0 0 0-1.23 3.6A23.2 23.2 0 0 1 42 4.64a23.2 23.2 0 0 1 13.6 3.99 14.45 14.45 0 0 0-1.22-3.6L51.88 0H65.8l-1.01 3.04a22.04 22.04 0 0 0-1.14 7 25.51 25.51 0 0 1-1.3 8.09 14.3 14.3 0 0 1-1.2 2.63l4.05 1.35v6.48a30.39 30.39 0 0 0 8.89 21.47l2.55 2.56-1.04 1.09a20.74 20.74 0 0 1-9.31 5.93l10.1 1.6a7.7 7.7 0 0 1 6.45 6.55L84 75.87h-4.88V96zM68.3 89.8v3.1h7.74v-3.1zM55.93 61.15V92.9h9.28V62.6zM31.17 89.81v3.1h21.66v-3.1zm-3.1-28.67l-9.27 1.47V92.9h9.28zM7.98 89.81v3.1h7.73v-3.1zm60.32-6.2v3.1h7.74v-3.1zm-37.12 0v3.1h21.66v-3.1zm-23.2 0v3.1h7.73v-3.1zm60.33-7.74v4.65h7.73v-4.65zm-37.13 1.55v3.1h21.66v-3.1zm-23.2-1.55v4.65h7.73v-4.65zm23.2-4.64v3.1h21.66v-3.1zM68.3 63.1v9.68h12.13l-.64-4.54a4.63 4.63 0 0 0-3.87-3.94zm-52.6 0l-7.61 1.2a4.62 4.62 0 0 0-3.87 3.93l-.65 4.55H15.7zm16.57-2.62l-1.1.18v7.47h21.66v-7.48l-1.1-.17a13.57 13.57 0 0 1-3.4 1.87A17.49 17.49 0 0 1 42 63.48a15.7 15.7 0 0 1-9.73-3zm2-5.06v2.7A12.81 12.81 0 0 0 42 60.39a12.81 12.81 0 0 0 7.74-2.28v-2.7a16.86 16.86 0 0 1-15.47 0zm21.65-5.4a17.14 17.14 0 0 1-3.1 3.37v4.13l3.1.49v-8zm-27.84 0V58l3.1-.49v-4.13a17.2 17.2 0 0 1-3.1-3.36zM18.8 51.1h3.1a9.05 9.05 0 0 1-2.18 5.87 17.21 17.21 0 0 0 3.54.36l1.1-.03H25V48a31.69 31.69 0 0 1-8.46-1.24 33.6 33.6 0 0 1-4.43 5.5l-.39.4a17.92 17.92 0 0 0 4.76 3.24l.6-.6a5.97 5.97 0 0 0 1.73-4.2zm48.67-4.34a31.58 31.58 0 0 1-8.45 1.23v9.3h.53c.38.03.77.04 1.14.04a17.46 17.46 0 0 0 3.6-.37 9.04 9.04 0 0 1-2.18-5.86h3.09a5.97 5.97 0 0 0 1.73 4.2l.6.59a17.9 17.9 0 0 0 4.76-3.25l-.39-.39a33.3 33.3 0 0 1-4.43-5.5zm-39.4-15.27v8.77a13.92 13.92 0 1 0 27.85 0v-8.77a30.05 30.05 0 0 1-7.34 1.01L42 35.8l-6.59-3.3a30.07 30.07 0 0 1-7.33-1.01zm36.33 9.25a16.19 16.19 0 0 1-5.38 1.04v3.11a28.59 28.59 0 0 0 6.86-.9 33.39 33.39 0 0 1-1.48-3.25zm-44.8 0a33.41 33.41 0 0 1-1.48 3.25 28.6 28.6 0 0 0 6.87.9v-3.1a16.2 16.2 0 0 1-5.39-1.05zm39.41-9.77v7.72a13.12 13.12 0 0 0 4.4-.9 28.5 28.5 0 0 0-.1-.37c-.08-.24-.15-.48-.2-.72a33.62 33.62 0 0 1-.91-5.73zm-37.21 0a33.62 33.62 0 0 1-.9 5.73l-.2.72-.12.37a13.06 13.06 0 0 0 4.4.9v-7.72zm15.56-3.1V30L42 32.33l4.64-2.32v-2.14h-.59a6.07 6.07 0 0 1-8.1 0zm18.56-1.91a13.57 13.57 0 0 1-6.19 1.87v1.52a27.08 27.08 0 0 0 6.19-1.08zm-27.84 0v2.3a27 27 0 0 0 6.18 1.09v-1.52a13.6 13.6 0 0 1-6.18-1.87zm31.14-2.59l-.11.1-.1.1v4.3h3.1v-3.53l-2.9-.96zm-34.44 0l-2.89.97v3.53h3.1v-4.3l-.1-.09-.1-.1zM42 20.13a3.1 3.1 0 1 0 3.1 3.1 3.1 3.1 0 0 0-3.1-3.1zM56.88 3.1l.27.55a17.78 17.78 0 0 1 1.86 7.9 11.07 11.07 0 0 1-.81 4.23 10.74 10.74 0 0 1-2.36 3.52l-.14.14a10.7 10.7 0 0 1-4.97 2.8l-2.58.65.02.15a1.3 1.3 0 0 1 .02.18 6 6 0 0 1-.22 1.55h.87a11.15 11.15 0 0 0 10.57-7.63 22.46 22.46 0 0 0 1.15-7.11 25.23 25.23 0 0 1 .97-6.93zm-34.41 0a25.22 25.22 0 0 1 .97 6.94 22.5 22.5 0 0 0 1.15 7.1 11.15 11.15 0 0 0 10.57 7.64h.87a6.01 6.01 0 0 1-.22-1.55 1.29 1.29 0 0 1 .02-.18l.01-.15-2.57-.64a10.75 10.75 0 0 1-4.98-2.83l-.13-.12a10.76 10.76 0 0 1-3.18-7.65 17.8 17.8 0 0 1 1.87-8.01l.27-.55zM42 7.74c-8.05 0-12.33 3.56-13.8 5.1a7.68 7.68 0 0 0 2.15 4.28l.12.12a7.65 7.65 0 0 0 3.55 2l2.76.7a6.16 6.16 0 0 1 3.67-2.69v-6.41h3.1v6.41a6.16 6.16 0 0 1 3.67 2.69l2.76-.7a7.63 7.63 0 0 0 3.54-2l.14-.13a7.64 7.64 0 0 0 2.15-4.27c-1.45-1.54-5.7-5.1-13.81-5.1zm20.1 82.07h-3.09v-7.75h3.1v7.75zm-37.12 0H21.9v-7.75H25v7.75zm37.13-13.94H59v-7.74h3.1v7.74zm-37.13 0H21.9v-7.74H25v7.74zM42 51.1a6.2 6.2 0 0 1-6.19-6.2h3.1a3.1 3.1 0 1 0 6.18 0h3.1A6.2 6.2 0 0 1 42 51.1zm7.73-12.39a1.55 1.55 0 1 1 1.55-1.55 1.55 1.55 0 0 1-1.55 1.55zm-15.46 0a1.55 1.55 0 1 1 1.54-1.55 1.55 1.55 0 0 1-1.54 1.55zm9.28-13.94h-3.1v-3.1h3.1v3.1z" fill="none"/><g clip-path="url(#a)"><path d="M79.12 96H4.88V75.87H0l1.15-8.08a7.7 7.7 0 0 1 6.45-6.55l10.1-1.6a20.8 20.8 0 0 1-9.3-5.93l-1.04-1.1 2.55-2.55a30.38 30.38 0 0 0 7.98-14.1 30.44 30.44 0 0 0 .9-7.37V22.1l4.06-1.35a14.24 14.24 0 0 1-1.2-2.64 25.52 25.52 0 0 1-1.3-8.09 22.1 22.1 0 0 0-1.14-7L18.2 0h13.93l-2.51 5.03a14.6 14.6 0 0 0-1.23 3.6A23.2 23.2 0 0 1 42 4.64a23.2 23.2 0 0 1 13.6 3.99 14.45 14.45 0 0 0-1.22-3.6L51.88 0H65.8l-1.01 3.04a22.04 22.04 0 0 0-1.14 7 25.51 25.51 0 0 1-1.3 8.09 14.3 14.3 0 0 1-1.2 2.63l4.05 1.35v6.48a30.39 30.39 0 0 0 8.89 21.47l2.55 2.56-1.04 1.09a20.74 20.74 0 0 1-9.31 5.93l10.1 1.6a7.7 7.7 0 0 1 6.45 6.55L84 75.87h-4.88V96zM68.3 89.8v3.1h7.74v-3.1zM55.93 61.15V92.9h9.28V62.6zM31.17 89.81v3.1h21.66v-3.1zm-3.1-28.67l-9.27 1.47V92.9h9.28zM7.98 89.81v3.1h7.73v-3.1zm60.32-6.2v3.1h7.74v-3.1zm-37.12 0v3.1h21.66v-3.1zm-23.2 0v3.1h7.73v-3.1zm60.33-7.74v4.65h7.73v-4.65zm-37.13 1.55v3.1h21.66v-3.1zm-23.2-1.55v4.65h7.73v-4.65zm23.2-4.64v3.1h21.66v-3.1zM68.3 63.1v9.68h12.13l-.64-4.54a4.63 4.63 0 0 0-3.87-3.94zm-52.6 0l-7.61 1.2a4.62 4.62 0 0 0-3.87 3.93l-.65 4.55H15.7zm16.57-2.62l-1.1.18v7.47h21.66v-7.48l-1.1-.17a13.57 13.57 0 0 1-3.4 1.87A17.49 17.49 0 0 1 42 63.48a15.7 15.7 0 0 1-9.73-3zm2-5.06v2.7A12.81 12.81 0 0 0 42 60.39a12.81 12.81 0 0 0 7.74-2.28v-2.7a16.86 16.86 0 0 1-15.47 0zm21.65-5.4a17.14 17.14 0 0 1-3.1 3.37v4.13l3.1.49v-8zm-27.84 0V58l3.1-.49v-4.13a17.2 17.2 0 0 1-3.1-3.36zM18.8 51.1h3.1a9.05 9.05 0 0 1-2.18 5.87 17.21 17.21 0 0 0 3.54.36l1.1-.03H25V48a31.69 31.69 0 0 1-8.46-1.24 33.6 33.6 0 0 1-4.43 5.5l-.39.4a17.92 17.92 0 0 0 4.76 3.24l.6-.6a5.97 5.97 0 0 0 1.73-4.2zm48.67-4.34a31.58 31.58 0 0 1-8.45 1.23v9.3h.53c.38.03.77.04 1.14.04a17.46 17.46 0 0 0 3.6-.37 9.04 9.04 0 0 1-2.18-5.86h3.09a5.97 5.97 0 0 0 1.73 4.2l.6.59a17.9 17.9 0 0 0 4.76-3.25l-.39-.39a33.3 33.3 0 0 1-4.43-5.5zm-39.4-15.27v8.77a13.92 13.92 0 1 0 27.85 0v-8.77a30.05 30.05 0 0 1-7.34 1.01L42 35.8l-6.59-3.3a30.07 30.07 0 0 1-7.33-1.01zm36.33 9.25a16.19 16.19 0 0 1-5.38 1.04v3.11a28.59 28.59 0 0 0 6.86-.9 33.39 33.39 0 0 1-1.48-3.25zm-44.8 0a33.41 33.41 0 0 1-1.48 3.25 28.6 28.6 0 0 0 6.87.9v-3.1a16.2 16.2 0 0 1-5.39-1.05zm39.41-9.77v7.72a13.12 13.12 0 0 0 4.4-.9 28.5 28.5 0 0 0-.1-.37c-.08-.24-.15-.48-.2-.72a33.62 33.62 0 0 1-.91-5.73zm-37.21 0a33.62 33.62 0 0 1-.9 5.73l-.2.72-.12.37a13.06 13.06 0 0 0 4.4.9v-7.72zm15.56-3.1V30L42 32.33l4.64-2.32v-2.14h-.59a6.07 6.07 0 0 1-8.1 0zm18.56-1.91a13.57 13.57 0 0 1-6.19 1.87v1.52a27.08 27.08 0 0 0 6.19-1.08zm-27.84 0v2.3a27 27 0 0 0 6.18 1.09v-1.52a13.6 13.6 0 0 1-6.18-1.87zm31.14-2.59l-.11.1-.1.1v4.3h3.1v-3.53l-2.9-.96zm-34.44 0l-2.89.97v3.53h3.1v-4.3l-.1-.09-.1-.1zM42 20.13a3.1 3.1 0 1 0 3.1 3.1 3.1 3.1 0 0 0-3.1-3.1zM56.88 3.1l.27.55a17.78 17.78 0 0 1 1.86 7.9 11.07 11.07 0 0 1-.81 4.23 10.74 10.74 0 0 1-2.36 3.52l-.14.14a10.7 10.7 0 0 1-4.97 2.8l-2.58.65.02.15a1.3 1.3 0 0 1 .02.18 6 6 0 0 1-.22 1.55h.87a11.15 11.15 0 0 0 10.57-7.63 22.46 22.46 0 0 0 1.15-7.11 25.23 25.23 0 0 1 .97-6.93zm-34.41 0a25.22 25.22 0 0 1 .97 6.94 22.5 22.5 0 0 0 1.15 7.1 11.15 11.15 0 0 0 10.57 7.64h.87a6.01 6.01 0 0 1-.22-1.55 1.29 1.29 0 0 1 .02-.18l.01-.15-2.57-.64a10.75 10.75 0 0 1-4.98-2.83l-.13-.12a10.76 10.76 0 0 1-3.18-7.65 17.8 17.8 0 0 1 1.87-8.01l.27-.55zM42 7.74c-8.05 0-12.33 3.56-13.8 5.1a7.68 7.68 0 0 0 2.15 4.28l.12.12a7.65 7.65 0 0 0 3.55 2l2.76.7a6.16 6.16 0 0 1 3.67-2.69v-6.41h3.1v6.41a6.16 6.16 0 0 1 3.67 2.69l2.76-.7a7.63 7.63 0 0 0 3.54-2l.14-.13a7.64 7.64 0 0 0 2.15-4.27c-1.45-1.54-5.7-5.1-13.81-5.1zm20.1 82.07h-3.09v-7.75h3.1v7.75zm-37.12 0H21.9v-7.75H25v7.75zm37.13-13.94H59v-7.74h3.1v7.74zm-37.13 0H21.9v-7.74H25v7.74zM42 51.1a6.2 6.2 0 0 1-6.19-6.2h3.1a3.1 3.1 0 1 0 6.18 0h3.1A6.2 6.2 0 0 1 42 51.1zm7.73-12.39a1.55 1.55 0 1 1 1.55-1.55 1.55 1.55 0 0 1-1.55 1.55zm-15.46 0a1.55 1.55 0 1 1 1.54-1.55 1.55 1.55 0 0 1-1.54 1.55zm9.28-13.94h-3.1v-3.1h3.1v3.1z" fill="url(#b)"/></g></svg>