<svg width="35" height="34" fill="none" xmlns="http://www.w3.org/2000/svg"><path d="M32.08 0H2.92C1.31 0 0 1.3 0 2.898v21.076c0 1.598 1.31 2.898 2.92 2.898h8.484l-1.118 2.122H8.56c-1.136 0-2.06.918-2.06 2.046 0 1.128.924 2.046 2.06 2.046h3.593a.513.513 0 000-1.025H8.559c-.57 0-1.034-.458-1.034-1.02 0-.564.464-1.021 1.034-1.021H26.441c.57 0 1.034.457 1.034 1.02s-.464 1.02-1.034 1.02H14.526a.513.513 0 100 1.026H26.44c1.136 0 2.06-.918 2.06-2.046a2.055 2.055 0 00-2.06-2.046h-1.793l-1.098-2.122h2.512a.513.513 0 000-1.026H2.92a1.886 1.886 0 01-1.895-1.872V2.898c0-1.033.85-1.873 1.895-1.873h29.16c1.045 0 1.895.84 1.895 1.873v21.076c0 1.032-.85 1.872-1.895 1.872h-3.61a.513.513 0 100 1.026h3.61c1.61 0 2.92-1.3 2.92-2.898V2.898C35 1.3 33.69 0 32.08 0zm-8.586 28.994H11.445l1.118-2.122h9.832l1.099 2.122z" fill="#7D8D93"/><path d="M3.844 3.098h2.973a.513.513 0 100-1.025H3.844c-1.02 0-1.85.824-1.85 1.837v19.02c0 1.013.83 1.837 1.85 1.837h27.312c1.02 0 1.85-.824 1.85-1.837V3.91c0-1.013-.83-1.837-1.85-1.837H9.267a.513.513 0 100 1.025h21.889a.82.82 0 01.824.812v19.02a.82.82 0 01-.824.812H3.844a.82.82 0 01-.824-.812V3.91a.82.82 0 01.824-.812z" fill="#7D8D93"/><path d="M26.558 13.42c0-4.994-4.064-9.058-9.058-9.058S8.442 8.426 8.442 13.42s4.064 9.058 9.058 9.058 9.058-4.064 9.058-9.058zm-17.09 0c0-4.429 3.603-8.032 8.032-8.032s8.032 3.603 8.032 8.032-3.603 8.032-8.032 8.032-8.032-3.603-8.032-8.032z" fill="#7D8D93"/><path d="M17.5 12.499a2.566 2.566 0 002.564-2.564A2.566 2.566 0 0017.5 7.372a2.566 2.566 0 00-2.563 2.563A2.566 2.566 0 0017.5 12.5zm0-4.101c.848 0 1.538.69 1.538 1.537a1.54 1.54 0 01-1.538 1.538 1.54 1.54 0 01-1.538-1.538c0-.848.69-1.537 1.538-1.537zM20.93 18.863c.381-.408.565-.97.518-1.579a4.617 4.617 0 00-.493-1.72.513.513 0 00-.914.464c.151.299.342.773.385 1.335.053.608-.327 1.09-.943 1.078l-3.965.002c-.82.047-.982-.402-.945-1.076.02-.32.072-1.17.713-1.917.213-.248 1.004-1.063 2.209-1.052.364.002.72.078 1.056.225a.513.513 0 00.41-.94 3.687 3.687 0 00-1.484-.31c-1.589 0-2.606.985-2.97 1.41-.864 1.009-.934 2.147-.958 2.525-.066 1.399.578 2.169 1.971 2.16l3.96-.001c.574.003 1.086-.212 1.45-.604z" fill="#7D8D93"/></svg>