<svg width="40" height="36" fill="none" xmlns="http://www.w3.org/2000/svg"><path d="M35.46 35.61H4.54A4.55 4.55 0 010 31.07V4.86C0 2.36 2.04.32 4.54.32h30.92C37.96.32 40 2.36 40 4.86v26.21c0 2.5-2.04 4.54-4.54 4.54zM4.54 1.67a3.2 3.2 0 00-3.19 3.19v26.21a3.2 3.2 0 003.2 3.2h30.9a3.2 3.2 0 003.2-3.2V4.86a3.2 3.2 0 00-3.2-3.19H4.56z" fill="#000"/><path d="M33.9 25.29H23.27a.68.68 0 110-1.35H33.9a.68.68 0 010 1.35zM33.9 30.18H23.27a.68.68 0 110-1.35H33.9a.68.68 0 010 1.35zM33.9 15.5H23.27a.68.68 0 110-1.34H33.9a.68.68 0 010 1.35zM33.9 20.4H23.27a.68.68 0 110-1.35H33.9a.68.68 0 010 1.35zM39.32 9.37H.68a.68.68 0 110-1.35h38.64a.68.68 0 110 1.35zM9.75 6.96a2.1 2.1 0 110-4.21 2.1 2.1 0 010 4.21zm0-2.85a.75.75 0 100 1.5.75.75 0 000-1.5zM4.88 6.96a2.1 2.1 0 110-4.2 2.1 2.1 0 010 4.2zm0-2.85a.75.75 0 100 1.5.75.75 0 000-1.5zM14.62 6.96a2.1 2.1 0 110-4.2 2.1 2.1 0 010 4.2zm0-2.85a.75.75 0 100 1.5.75.75 0 000-1.5zM18.16 30.18H5.9a.68.68 0 01-.67-.68V14.83c0-.37.3-.67.67-.67h12.27c.38 0 .68.3.68.67V29.5c0 .38-.3.68-.68.68zM6.57 28.83h10.92V15.5H6.57v13.32z" fill="#000"/></svg>