<svg width="52" height="52" fill="none" xmlns="http://www.w3.org/2000/svg"><path d="M38.08 27.73h-5.15V22.6c0-1-.8-1.79-1.78-1.8h-1.63c-.99.01-1.79.8-1.79 1.8v5.14H22.6c-1 0-1.79.8-1.8 1.79v1.63c.01.98.8 1.78 1.8 1.78h5.14v5.15c0 .98.8 1.78 1.79 1.78h1.63c.98 0 1.78-.8 1.78-1.78v-5.15h5.15c.98 0 1.78-.8 1.78-1.78v-1.63c0-.99-.8-1.79-1.78-1.79zm0 3.47h-6.01a.87.87 0 00-.87.87l-.05 6.06-1.68-.05v-6.01a.87.87 0 00-.87-.87l-6.07-.05.06-1.68h6c.49 0 .88-.4.88-.87l.05-6.07 1.68.06v6c0 .49.39.88.87.88h6l.06.05-.05 1.68z" fill="#414141"/><path d="M32.93 8.83V6.07h.44a3.03 3.03 0 100-6.07H27.3a3.03 3.03 0 100 6.07h.43v2.76a21.58 21.58 0 00-11.46 5.04h-7.6a.87.87 0 100 1.73h5.8c-1 1.06-1.88 2.23-2.64 3.47h-7.5a.87.87 0 100 1.73h6.55c-.55 1.11-1 2.27-1.34 3.47H2.6a.87.87 0 100 1.73h6.5c-.23 1.14-.37 2.3-.41 3.47H.87a.87.87 0 100 1.73h7.82c.04 1.16.18 2.32.41 3.46H2.6a.87.87 0 100 1.74h6.94c.34 1.19.8 2.35 1.34 3.46H4.33a.87.87 0 100 1.74h7.5c.76 1.24 1.64 2.4 2.64 3.46h-5.8a.87.87 0 100 1.74h7.6A21.66 21.66 0 1032.93 8.83zM26 3.03c0-.71.58-1.3 1.3-1.3h6.07a1.3 1.3 0 010 2.6H27.3a1.3 1.3 0 01-1.3-1.3zm3.47 3.04h1.73v2.62a22.1 22.1 0 00-1.73 0V6.07zm.86 44.2a19.93 19.93 0 110-39.87 19.93 19.93 0 010 39.86z" fill="#414141"/><path d="M43.2 17.46l-.05-.03a18.16 18.16 0 00-25.64 0l-.05.03-.03.05a18.16 18.16 0 000 25.64l.03.05.05.03a18.16 18.16 0 0025.64 0l.05-.03c.02-.01.02-.03.03-.05a18.16 18.16 0 000-25.64l-.03-.05zm1.86 13.74h1.7a16.37 16.37 0 01-4.2 10.13l-1.2-1.2a.87.87 0 10-1.23 1.23l1.2 1.2c-2.8 2.51-6.37 4-10.13 4.2v-1.7a.87.87 0 00-1.73 0v1.7a16.37 16.37 0 01-10.13-4.2l1.19-1.2a.87.87 0 00-1.23-1.22l-1.19 1.19c-2.52-2.8-4-6.37-4.2-10.13h1.69a.87.87 0 100-1.73H13.9c.2-3.76 1.68-7.34 4.2-10.13l1.2 1.19a.87.87 0 001.22-1.23l-1.2-1.19c2.8-2.52 6.38-4 10.14-4.2v1.69a.87.87 0 001.73 0V13.9c3.76.2 7.33 1.68 10.13 4.2l-1.2 1.2a.87.87 0 001.23 1.22l1.2-1.2c2.51 2.8 4 6.38 4.2 10.14h-1.7a.87.87 0 000 1.73z" fill="#414141"/></svg>