<svg width="26" height="26" viewBox="0 0 26 26" fill="none" xmlns="http://www.w3.org/2000/svg">
<path d="M13 26C20.1797 26 26 20.1797 26 13C26 5.8203 20.1797 0 13 0C5.8203 0 0 5.8203 0 13C0 20.1797 5.8203 26 13 26Z" fill="#039BE5"/>
<path d="M5.94862 12.7181L18.4828 7.88532C19.0645 7.67515 19.5726 8.02724 19.3841 8.9069L19.3852 8.90582L17.251 18.9602C17.0929 19.6731 16.6693 19.8464 16.0767 19.5106L12.8267 17.1153L11.2591 18.6255C11.0858 18.7988 10.9395 18.9451 10.6037 18.9451L10.8345 15.6377L16.8578 10.1961C17.12 9.96532 16.7993 9.83532 16.4537 10.065L9.01012 14.7515L5.80129 13.7505C5.10471 13.5295 5.08954 13.0539 5.94862 12.7181Z" fill="white"/>
</svg>
