<svg width="21" height="21" fill="none" xmlns="http://www.w3.org/2000/svg"><path d="M18.76 4.017h.648a.41.41 0 000-.82h-1.557a.41.41 0 00-.41.41v1.558a.41.41 0 00.82 0v-.451a9.649 9.649 0 011.92 5.786c0 5.338-4.343 9.68-9.681 9.68-5.338 0-9.68-4.342-9.68-9.68S5.162.82 10.5.82c.395 0 .792.024 1.181.071a.41.41 0 00.099-.814A10.649 10.649 0 0010.5 0a10.431 10.431 0 00-7.425 3.075A10.431 10.431 0 000 10.5c0 2.805 1.092 5.441 3.075 7.425A10.431 10.431 0 0010.5 21c2.805 0 5.441-1.092 7.425-3.075A10.431 10.431 0 0021 10.5c0-2.367-.79-4.639-2.24-6.483z" fill="#0020A9"/><path d="M4.446 6.19a.41.41 0 00-.565.127 7.859 7.859 0 00-1.167 5.005 7.847 7.847 0 002.25 4.714 7.805 7.805 0 005.536 2.29c2.005 0 4.01-.764 5.536-2.29 3.052-3.053 3.052-8.02 0-11.072a7.847 7.847 0 00-4.707-2.249A7.86 7.86 0 006.33 3.872a.41.41 0 00.437.694 6.97 6.97 0 018.69.978 7.017 7.017 0 010 9.912 7.017 7.017 0 01-9.913 0c-2.299-2.299-2.707-5.958-.97-8.7a.41.41 0 00-.128-.566z" fill="#0020A9"/><path d="M15.829 10.917h.505a.41.41 0 000-.82h-.505a.41.41 0 100 .82zM4.256 10.493c0 .227.184.41.41.41h.505a.41.41 0 000-.82h-.505a.41.41 0 00-.41.41zM10.916 5.171v-.505a.41.41 0 00-.82 0v.505a.41.41 0 00.82 0zM10.084 15.829v.505a.41.41 0 00.82 0v-.505a.41.41 0 00-.82 0zM8.445 7.866a.41.41 0 00-.58.58l1.39 1.389a1.414 1.414 0 001.245 2.077 1.414 1.414 0 001.245-2.077l2.803-2.803a.41.41 0 00-.58-.58l-2.803 2.803a1.403 1.403 0 00-1.33 0l-1.39-1.39zm2.647 2.634a.593.593 0 11-1.186-.001.593.593 0 011.186.001zM5.544 5.544a.412.412 0 000-.58.413.413 0 00-.58 0 .413.413 0 000 .58.413.413 0 00.58 0zM13.34 1.225a.411.411 0 00.41-.41.413.413 0 00-.41-.41.413.413 0 00-.41.41.412.412 0 00.41.41z" fill="#0020A9"/></svg>