<svg width="50" height="50" fill="none" xmlns="http://www.w3.org/2000/svg"><path d="M25 39.06a1.56 1.56 0 100-3.12 1.56 1.56 0 000 3.12z" fill="#000"/><path d="M47.66 7.81h-5.47c0-.86-.7-1.56-1.56-1.56H37.5v-3.9c0-1.3-1.05-2.35-2.34-2.35H14.84a2.35 2.35 0 00-2.34 2.34v3.91H9.37c-.86 0-1.56.7-1.56 1.56v3.9c0 1.3 1.05 2.35 2.35 2.35v12.5c0 2.16 1.75 3.9 3.9 3.9h21.88c2.15 0 3.9-1.74 3.9-3.9v-12.5c1.3 0 2.35-1.05 2.35-2.34V9.37h5.47c.43 0 .78.36.78.79V32.8H1.56V10.16c0-.43.35-.79.78-.79h3.13a.78.78 0 100-1.56H2.34A2.35 2.35 0 000 10.16v29.68c0 1.3 1.05 2.35 2.34 2.35h16.41v3.9c0 1.3-1.05 2.35-2.34 2.35H12.5a.78.78 0 100 1.56h25a.78.78 0 100-1.56h-3.9a2.35 2.35 0 01-2.35-2.35v-3.9h16.4c1.3 0 2.35-1.05 2.35-2.35V10.16c0-1.3-1.05-2.35-2.34-2.35zm-33.6-5.47c0-.43.35-.78.78-.78h20.32c.43 0 .78.35.78.78v3.91h-1.56V3.91a.78.78 0 00-.79-.79H16.41a.78.78 0 00-.79.79v2.34h-1.56v-3.9zM32.81 4.7v1.56H17.2V4.69H32.8zm5.47 21.87c0 1.3-1.05 2.35-2.34 2.35H14.06a2.35 2.35 0 01-2.34-2.35v-12.5h10.15v1.56c0 .44.35.79.79.79h4.68c.44 0 .79-.35.79-.79v-1.56h10.15v12.5zM23.44 14.84v-3.12h3.12v3.12h-3.12zm17.18-3.12c0 .43-.34.78-.78.78H28.12v-1.56a.78.78 0 00-.78-.78h-4.68a.78.78 0 00-.79.78v1.56H10.16a.78.78 0 01-.79-.78v-3.9h31.26v3.9zM19.54 48.44c.5-.66.78-1.47.78-2.35v-3.9h9.38v3.9c0 .89.3 1.7.8 2.35H19.53zm28.9-8.6c0 .43-.34.78-.77.78H2.34a.78.78 0 01-.78-.78v-5.47h46.88v5.47z" fill="#000"/></svg>