<svg width="50" height="50" viewBox="0 0 50 50" fill="none" xmlns="http://www.w3.org/2000/svg">
<path d="M9.1665 40.3975C10.5472 40.3975 11.6665 41.5167 11.6665 42.8975C11.6665 44.2782 10.5472 45.3975 9.1665 45.3975C7.78577 45.3975 6.6665 44.2782 6.6665 42.8975C6.6665 41.5167 7.78577 40.3975 9.1665 40.3975ZM9.1665 43.7308C9.62671 43.7308 9.99984 43.3577 9.99984 42.8975C9.99984 42.4373 9.62671 42.0641 9.1665 42.0641C8.7063 42.0641 8.33317 42.4373 8.33317 42.8975C8.33317 43.3577 8.7063 43.7308 9.1665 43.7308Z" fill="black"/>
<path d="M28.3333 45.3968C27.4129 45.3968 26.6667 44.6506 26.6667 43.7301C26.6667 42.8097 27.4129 42.0635 28.3333 42.0635C29.2538 42.0635 30 42.8097 30 43.7301C30 44.6506 29.2538 45.3968 28.3333 45.3968Z" fill="black"/>
<path d="M38.3333 45.3968C37.4129 45.3968 36.6667 44.6506 36.6667 43.7301C36.6667 42.8097 37.4129 42.0635 38.3333 42.0635C39.2538 42.0635 40 42.8097 40 43.7301C40 44.6506 39.2538 45.3968 38.3333 45.3968Z" fill="black"/>
<path d="M0.0258331 29.4366C0.0241661 29.4075 0.0241661 29.3783 0.0258331 29.3491L3.09 17.8575C2.65313 17.7299 2.40229 17.2723 2.5299 16.8353C2.53323 16.8237 2.53688 16.8121 2.54083 16.8008L3.37417 14.3008C3.48771 13.9598 3.80719 13.73 4.16667 13.7308H15V8.73079C15 8.27059 15.3731 7.89746 15.8333 7.89746H19.1667C19.6269 7.89746 20 8.27059 20 8.73079C20 9.191 19.6269 9.56413 19.1667 9.56413H16.6667V35.3975H46.6667V9.56413H42.5C42.0398 9.56413 41.6667 9.191 41.6667 8.73079C41.6667 8.27059 42.0398 7.89746 42.5 7.89746H47.5C47.9602 7.89746 48.3333 8.27059 48.3333 8.73079V35.3975H49.1667C49.6269 35.3975 50 35.7706 50 36.2308V39.5641C50 40.0243 49.6269 40.3975 49.1667 40.3975H46.6667V42.8975C46.6667 43.3577 46.2935 43.7308 45.8333 43.7308H43.3333C43.3442 46.5032 41.1054 48.7595 38.333 48.7704C35.639 48.7809 33.4328 46.6671 33.3002 44.0037C33.2754 44.4775 33.183 44.9555 33.0149 45.4251C32.0868 48.018 29.2324 49.3677 26.6395 48.4395C24.6518 47.7281 23.3275 45.8419 23.3333 43.7308H14.9333C14.4759 46.9156 11.5233 49.1266 8.33844 48.6692C5.77865 48.3016 3.76761 46.2905 3.4 43.7308H0.833336C0.373127 43.7308 0 43.3577 0 42.8975V29.5641C0.00479126 29.5209 0.0134354 29.4783 0.0258331 29.4366ZM46.6667 38.7308H48.3333V37.0641H46.6667V38.7308ZM1.91667 28.7308H7.8875L9.16667 26.8141V17.8975H4.8075L1.91667 28.7308ZM38.3333 47.0641C40.1743 47.0641 41.6667 45.5717 41.6667 43.7308C41.6667 41.8899 40.1743 40.3975 38.3333 40.3975C36.4924 40.3975 35 41.8899 35 43.7308C35 45.5717 36.4924 47.0641 38.3333 47.0641ZM28.3333 47.0641C30.1743 47.0641 31.6667 45.5717 31.6667 43.7308C31.6667 41.8899 30.1743 40.3975 28.3333 40.3975C26.4924 40.3975 25 41.8899 25 43.7308C25 45.5717 26.4924 47.0641 28.3333 47.0641ZM9.16667 47.0641C11.4678 47.0641 13.3333 45.1986 13.3333 42.8975C13.3333 40.5963 11.4678 38.7308 9.16667 38.7308C6.86552 38.7308 5 40.5963 5 42.8975C5.00271 45.1975 6.86667 47.0613 9.16667 47.0641ZM1.66667 35.3975H4.16667V32.8975H1.66667V35.3975ZM1.66667 31.2308H5C5.46021 31.2308 5.83334 31.6039 5.83334 32.0641V36.2308C5.83334 36.691 5.46021 37.0641 5 37.0641H1.66667V42.0641H3.4C3.8574 38.8792 6.81 36.6683 9.9949 37.1257C12.5547 37.4933 14.5657 39.5043 14.9333 42.0641H23.625C24.5531 39.4711 27.4075 38.1215 30.0004 39.0496C31.952 39.7482 33.1987 41.5379 33.3007 43.486C33.4377 40.8452 35.6166 38.7409 38.2936 38.7305C40.4231 38.7221 42.3263 40.0583 43.0416 42.0641H45V37.0641H15.8333C15.3731 37.0641 15 36.691 15 36.2308V15.3975H4.7675L4.49 16.2308H10C10.4602 16.2308 10.8333 16.6039 10.8333 17.0641V27.0641C10.833 27.2287 10.7844 27.3895 10.6933 27.5266L9.02667 30.0266C8.87209 30.2584 8.61188 30.3975 8.33334 30.3975H1.66667V31.2308Z" fill="black"/>
<path d="M30.8335 1.23047C36.3563 1.23047 40.8335 5.70766 40.8335 11.2305C40.8335 11.653 40.7268 21.6821 31.4227 30.9863C31.0972 31.3116 30.5697 31.3116 30.2443 30.9863C20.9402 21.6821 20.8335 11.653 20.8335 11.2305C20.8335 5.70755 25.3107 1.23047 30.8335 1.23047ZM30.8335 29.2038C39.0402 20.5813 39.1668 11.3313 39.1668 11.2305C39.1668 6.62807 35.4359 2.89714 30.8335 2.89714C26.2311 2.89714 22.5002 6.62807 22.5002 11.2305C22.5002 11.3246 22.5968 20.5521 30.8335 29.2038Z" fill="black"/>
<path d="M30.8335 6.23047C33.5938 6.23318 35.8308 8.47016 35.8335 11.2305C35.8335 13.9919 33.595 16.2305 30.8335 16.2305C28.072 16.2305 25.8335 13.9919 25.8335 11.2305C25.8335 8.46901 28.072 6.23047 30.8335 6.23047ZM30.8335 14.5638C32.6744 14.5638 34.1668 13.0714 34.1668 11.2305C34.1668 9.38953 32.6744 7.89714 30.8335 7.89714C28.9926 7.89714 27.5002 9.38953 27.5002 11.2305C27.5002 13.0714 28.9926 14.5638 30.8335 14.5638Z" fill="black"/>
</svg>
