<svg width="50" height="50" viewBox="0 0 50 50" fill="none" xmlns="http://www.w3.org/2000/svg">
<g clip-path="url(#clip0)">
<path d="M24.196 26.6731V27.0767C22.8412 27.4688 21.9817 28.7982 22.1796 30.1944C22.3776 31.5911 23.5732 32.6286 24.9833 32.6286C25.6779 32.6286 26.2407 33.1914 26.2407 33.8861C26.2407 34.5804 25.6779 35.1436 24.9833 35.1436C24.289 35.1436 23.7262 34.5804 23.7262 33.8861C23.7262 33.4513 23.3737 33.0988 22.9389 33.0988C22.5037 33.0988 22.1516 33.4513 22.1516 33.8861C22.1535 35.1463 22.9862 36.2538 24.196 36.6056V37.1049C24.196 37.5401 24.5485 37.8923 24.9833 37.8923C25.4185 37.8923 25.7706 37.5401 25.7706 37.1049V36.6056C27.1257 36.2138 27.9857 34.8845 27.7877 33.4878C27.5897 32.0912 26.3941 31.0536 24.9833 31.0536C24.2963 31.0556 23.735 30.5051 23.7235 29.8181C23.712 29.1307 24.2548 28.5621 24.9418 28.541C24.9556 28.5418 24.9694 28.5429 24.9833 28.5429C24.9975 28.5429 25.0113 28.5418 25.0252 28.541C25.7025 28.5637 26.24 29.1188 26.2407 29.7962C26.2407 30.231 26.5933 30.5835 27.0281 30.5835C27.4628 30.5835 27.8154 30.231 27.8154 29.7962C27.8138 28.5364 26.9808 27.4285 25.7706 27.0767V26.6731C25.7706 26.2383 25.4185 25.8857 24.9833 25.8857C24.5485 25.8857 24.196 26.2383 24.196 26.6731Z" fill="black"/>
<path d="M30.3054 18.0346C31.5021 18.0284 32.6531 18.4936 33.5096 19.3294C34.3469 20.1955 34.8159 21.3522 34.8186 22.5566C34.8186 22.991 35.1703 23.3428 35.6047 23.3428C36.0388 23.3428 36.3909 22.991 36.3909 22.5566C36.3717 21.3518 36.8418 20.1905 37.6941 19.3382C38.546 18.4859 39.7074 18.0154 40.9126 18.0346C42.1104 18.0288 43.2633 18.4936 44.1222 19.329C44.7776 20.0336 45.3097 21.6578 45.46 22.226C45.5607 22.6089 45.9297 22.8573 46.3222 22.8065C46.7147 22.7558 47.0088 22.4213 47.0088 22.0257C47.0065 13.1177 41.6395 5.0874 33.4096 1.6779C25.1798 -1.73122 15.7067 0.150947 9.40548 6.44751C5.2621 10.5709 2.94091 16.1805 2.9586 22.0257C2.95821 22.4213 3.25192 22.7558 3.64442 22.8069C4.03692 22.8576 4.40636 22.6093 4.50708 22.2264C4.65701 21.6602 5.1856 20.0463 5.83759 19.3374C6.70217 18.5048 7.85508 18.0381 9.05565 18.0346C10.2543 18.0284 11.4072 18.4936 12.266 19.3294C13.1037 20.1951 13.5738 21.3518 13.5773 22.5566C13.5773 22.9914 13.9298 23.344 14.3646 23.344C14.7994 23.344 15.1519 22.9914 15.1519 22.5566C15.1554 21.3561 15.6225 20.2028 16.4555 19.3378C17.3697 18.4851 18.4699 18.0346 19.6617 18.0346C20.6335 18.0346 21.6373 18.3375 22.3262 18.8807V22.4955C18.3823 23.6619 15.6759 27.2847 15.6759 31.3974C15.6759 35.5104 18.3823 39.1332 22.3262 40.2996V44.2227C22.3262 44.5295 22.1409 44.7351 21.8341 44.7351C21.5277 44.7351 21.342 44.5295 21.342 44.2227V42.3774C21.342 41.9426 20.9733 41.6324 20.5386 41.6324H16.848C16.4132 41.6324 16.028 41.9426 16.028 42.3774V44.2227C16.028 47.4627 18.5945 50.0007 21.8345 50.0007C25.0744 50.0007 27.6409 47.4627 27.6409 44.2227V40.2996C31.5851 39.1332 34.2911 35.5104 34.2911 31.3974C34.2911 27.2847 31.5851 23.6619 27.6409 22.4955V18.8961C28.4155 18.3341 29.3485 18.0323 30.3054 18.0346ZM15.3588 18.208C15.3468 18.2187 15.3357 18.2299 15.3249 18.2414C14.9532 18.6343 14.6306 19.0706 14.3646 19.5416C14.0982 19.0706 13.7757 18.6343 13.4039 18.2414C13.3985 18.2357 13.3928 18.2299 13.387 18.2245C11.0516 15.9421 7.34532 15.8645 4.9165 18.0473C6.38848 10.6436 11.8174 4.65146 19.0404 2.45791C26.2635 0.264739 34.1074 2.2261 39.4483 7.56121C42.318 10.4167 44.2682 14.0654 45.0486 18.0377C43.9123 17.0186 42.4384 16.4565 40.9118 16.46C39.3037 16.46 37.8117 17.0643 36.5966 18.208C36.585 18.2187 36.5739 18.2299 36.5631 18.2414C36.1914 18.6343 35.8688 19.0706 35.6024 19.5416C35.336 19.0706 35.0135 18.6343 34.6421 18.2414C34.6364 18.2357 34.631 18.2299 34.6252 18.2245C33.4696 17.0889 31.9131 16.455 30.2931 16.46C28.685 16.46 27.193 17.0643 25.9779 18.208C25.9663 18.2187 25.9548 18.2299 25.944 18.2414C25.5723 18.6343 25.2497 19.0706 24.9833 19.5416C24.7173 19.0706 24.3948 18.6343 24.023 18.2414C24.0176 18.2357 24.0119 18.2299 24.0065 18.2245C22.8509 17.0889 21.294 16.455 19.674 16.46C18.0659 16.46 16.5739 17.0643 15.3588 18.208ZM23.9008 21.0051C24.0976 21.373 24.1188 21.7563 24.1533 22.1495C24.0688 22.1568 23.9992 22.1653 23.9008 22.1749V21.0051ZM26.0659 44.2227C26.0659 46.5796 24.1914 48.4257 21.8341 48.4257C19.4771 48.4257 17.6023 46.5796 17.6023 44.2227V43.207H19.7674V44.2227C19.7674 45.3641 20.6927 46.2894 21.8341 46.2894C22.9758 46.2894 23.9008 45.3641 23.9008 44.2227V40.6198C24.6204 40.7006 25.3466 40.7006 26.0659 40.6198V44.2227ZM32.6919 31.3974C32.6911 33.7159 31.647 35.9109 29.8491 37.3745C28.0515 38.8384 25.6903 39.4154 23.4199 38.946C23.3514 38.9195 23.2795 38.903 23.2065 38.8968C19.2895 37.9684 16.7469 34.1822 17.3689 30.2052C17.9909 26.2283 21.5688 23.3997 25.5819 23.7122C29.5953 24.0244 32.6923 27.372 32.6919 31.3974ZM25.8137 22.1499C25.8483 21.7563 25.8691 21.3734 26.0659 21.0055V22.1753C25.9675 22.1657 25.8983 22.1572 25.8137 22.1499Z" fill="black"/>
</g>
<defs>
<clipPath id="clip0">
<rect width="50" height="50" fill="white"/>
</clipPath>
</defs>
</svg>
