<svg width="26" height="26" fill="none" xmlns="http://www.w3.org/2000/svg"><circle cx="13" cy="13" r="13" fill="#009BDD"/><path d="M6.85 9H5.1c-.5 0-.6.24-.6.5 0 .46.6 2.76 2.76 5.8 1.45 2.07 3.49 3.2 5.34 3.2 1.11 0 1.25-.25 1.25-.68v-1.57c0-.5.1-.6.46-.6.26 0 .7.13 1.74 1.13 1.19 1.2 1.38 1.72 2.05 1.72h1.75c.5 0 .75-.25.6-.74-.15-.5-.72-1.2-1.47-2.05-.4-.49-1.02-1-1.2-1.26-.26-.34-.2-.49 0-.78 0 0 2.13-3 2.35-4.03.11-.37 0-.64-.53-.64h-1.75a.76.76 0 00-.76.5s-.9 2.16-2.15 3.57c-.41.41-.6.54-.82.54-.1 0-.27-.13-.27-.5V9.64c0-.44-.13-.64-.5-.64H10.6c-.28 0-.45.2-.45.4 0 .42.64.52.7 1.7v2.58c0 .57-.1.67-.32.67-.6 0-2.04-2.18-2.9-4.67C7.47 9.2 7.3 9 6.85 9z" fill="#fff"/></svg>