<svg width="48" height="42" fill="none" xmlns="http://www.w3.org/2000/svg"><path d="M38.26 24a2.54 2.54 0 100 5.08 2.54 2.54 0 000-5.08zm0 3.7a1.16 1.16 0 110-2.32 1.16 1.16 0 010 2.31z" fill="#000"/><path d="M45.18 17.54h-.69V8.08a4.39 4.39 0 00-4.38-4.39H21.09L8.27.03h-.01L8.25.01h-.03L8.2 0h-.04-.03L8.09 0H7.98l-.03.01h-.04L7.9.04a.77.77 0 00-.1.03l-.02.01a.61.61 0 00-.04.02L7.7.11a.64.64 0 00-.04.02l-.02.01a.67.67 0 00-.03.03L7.6.2a.75.75 0 00-.03.03l-.01.02-.03.03-.02.02-.02.03-.01.03-.02.03-.02.03v.03l-.02.04V.5L7.4.51v.01L6.6 3.7H4.4A4.39 4.39 0 000 8.06v24.02a.7.7 0 001.38 0V11.27c.79.74 1.85 1.2 3 1.2h35.73v-.01a3 3 0 013 3v4.85h-7.62a.7.7 0 00-.12 0l-.01.01-.06.01a.72.72 0 00-.06.02l-.01.01-.04.02h-.02l-.03.03-.03.01-.02.02-.04.02-.01.02a.68.68 0 00-.04.03l-.02.02-.02.03a.67.67 0 00-.04.06l-3.7 5.53a.69.69 0 00-.08.17v.02l-.02.05v.08l-.01.04V26.63l.01.04v.02l.02.05v.01a.65.65 0 00.08.17l3.7 5.54a.7.7 0 00.04.06l.02.02a.67.67 0 00.1.1h.02a.7.7 0 00.07.05h.01a.68.68 0 00.13.05l.03.01.05.01h.02a.7.7 0 00.08 0h7.62v4.86a3 3 0 01-3 3H4.39a3 3 0 01-3-3v-2.77a.7.7 0 00-1.39 0v2.79A4.39 4.39 0 004.4 42H40.1a4.39 4.39 0 004.38-4.38v-4.85h.7c1.14 0 2.07-.93 2.07-2.08V19.61c0-1.14-.93-2.07-2.08-2.07zM8.58 1.55l12.21 3.5 8.19 2.33H7.12l1.46-5.83zM43.1 12.27a4.37 4.37 0 00-3-1.2H4.38a3 3 0 010-6h1.88l-.58 2.31H4.4a.7.7 0 000 1.39h34.79a.7.7 0 100-1.39h-5.16l-8.08-2.3h14.17a3 3 0 013 3v4.19zm2.77 18.42a.7.7 0 01-.7.7h-9.32l-3.23-4.85 3.23-4.85h9.35c.24 0 .46-.04.67-.12v9.12zm-.7-10.38H44.5v-1.39h.7a.7.7 0 010 1.39z" fill="#000"/></svg>