<svg width="35" height="35" fill="none" xmlns="http://www.w3.org/2000/svg"><path d="M3.14 17.5c0 7.92 6.44 14.36 14.36 14.36 7.92 0 14.36-6.44 14.36-14.36 0-7.92-6.44-14.36-14.36-14.36A14.37 14.37 0 003.14 17.5zm27.35 0A13 13 0 0117.5 30.49 13 13 0 014.51 17.5 13 13 0 0117.5 4.51 13 13 0 0130.49 17.5z" fill="#7D8D93"/><path d="M31.02 6.39A17.55 17.55 0 0021.08.37a.68.68 0 00-.28 1.33 16.19 16.19 0 0112.83 15.8A16.14 16.14 0 1114.61 1.62a.68.68 0 00-.24-1.34A17.52 17.52 0 000 17.5c0 4.67 1.82 9.07 5.13 12.37C8.43 33.18 12.83 35 17.5 35c4.67 0 9.07-1.82 12.37-5.13a17.53 17.53 0 001.15-23.49z" fill="#7D8D93"/><path d="M17.58 1.37h.05A.68.68 0 0017.65 0h-.05a.68.68 0 000 1.37zm-.75 5.17c0 .18.07.36.2.48.12.13.3.2.48.2a.69.69 0 00.68-.68.69.69 0 00-1.16-.48c-.13.12-.2.3-.2.48zm.67 21.24a.69.69 0 00-.7.68.68.68 0 10.7-.68zm10.96-9.58a.69.69 0 00.68-.7.69.69 0 00-1.36 0c0 .19.07.36.2.5.12.12.3.2.48.2zM6.54 16.8a.69.69 0 00-.68.7.69.69 0 001.16.47.69.69 0 000-.96.69.69 0 00-.48-.2zm5.49-9.48a.69.69 0 00-.69.68.69.69 0 00.69.69.69.69 0 00.68-.69.69.69 0 00-.68-.68zm10.94 18.99a.69.69 0 00-.68.69.69.69 0 00.68.68.69.69 0 00.69-.68.69.69 0 00-.69-.69zM27 12.71a.69.69 0 00.68-.68.69.69 0 00-.68-.69.69.69 0 00-.69.69.69.69 0 00.69.68zM8 22.29a.69.69 0 00-.68.68.69.69 0 00.68.69.69.69 0 00.69-.69.69.69 0 00-.69-.68zm.01-10.96a.69.69 0 00-.68.68.69.69 0 00.68.69.69.69 0 00.49-1.17.69.69 0 00-.49-.2zm18.98 12.34a.69.69 0 00.68-.68.69.69 0 00-.68-.69.69.69 0 00-.69.69.69.69 0 00.69.68zm-4-14.97a.69.69 0 00.68-.69.69.69 0 00-1.17-.48.69.69 0 000 .97c.13.12.3.2.49.2zM12.01 26.3a.68.68 0 100 1.37.68.68 0 000-1.37zm11.12-15.39l-4.39 4.4a2.5 2.5 0 00-2.47-.01l-2.1-2.1a.68.68 0 00-.97.97l2.1 2.1a2.53 2.53 0 104.4 0l4.4-4.39a.68.68 0 00-.97-.97zm-5.63 7.75a1.16 1.16 0 110-2.32 1.16 1.16 0 010 2.32zm2.98 4.58h-5.94a.68.68 0 000 1.37h5.94a.68.68 0 100-1.37z" fill="#7D8D93"/></svg>