<svg width="40" height="40" fill="none" xmlns="http://www.w3.org/2000/svg"><g clip-path="url(#clip0)"><path d="M39.62 28.86a4.03 4.03 0 00-5.38-1.28l-6.53 3.56a2.47 2.47 0 00-2.38-1.87H20c-.31-.63-.96-1.83-1.6-2.3-3.8-3.44-10.39-.37-11.44.15H5.12V25.6H0v1.17h3.95v9H0v1.17h5.12V35.4h3.43l14.62 4.55L40 29.4l-.38-.54zM23 38.68L8.73 34.24H5.12v-5.95h2.14c3.02-1.56 7.81-2.79 10.38-.44l.06.05c.63.44 1.56 2.54 1.57 2.55h6.06a1.3 1.3 0 010 2.58h-7.98v1.17h7.98c1.09 0 2.01-.72 2.34-1.7l7.13-3.9a2.81 2.81 0 013.48.5L23 38.67zm-2.99-14.02c6.79 0 12.31-5.52 12.31-12.3C32.32 5.55 26.8.03 20.01.03A12.33 12.33 0 007.7 12.35c0 6.79 5.52 12.31 12.31 12.31zm3.72-1.8c.83-.9 1.46-2 1.94-3.12.54.32 1.06.69 1.54 1.1-1.02.87-2.2 1.55-3.48 2.01zm4.34-2.83c-.61-.54-1.28-1-1.98-1.4.58-1.71.91-3.66.97-5.7h4.07a11.1 11.1 0 01-3.06 7.1zm3.06-8.26h-4.07c-.05-1.9-.35-3.7-.85-5.33.74-.43 1.43-.95 2.08-1.53a11.1 11.1 0 012.84 6.86zm-3.67-7.7c-.52.47-1.07.88-1.65 1.24-.21-.54-.45-1.05-.71-1.53a9.69 9.69 0 00-1.37-1.93c1.39.5 2.65 1.26 3.73 2.23zm-6.86-2.8c1.29.25 2.5 1.32 3.47 3.07.26.48.5 1 .7 1.53-1.3.62-2.7.97-4.17 1.05V1.27zm0 6.82c1.6-.07 3.13-.45 4.55-1.1.44 1.46.69 3.08.73 4.78H20.6V8.09zm0 4.85h5.28c-.05 1.84-.34 3.6-.84 5.15-1.4-.62-2.9-.98-4.44-1.05v-4.1zm0 5.27c1.4.08 2.77.41 4.03.98-.17.41-.36.8-.56 1.17-.97 1.75-2.18 2.82-3.47 3.07v-5.22zm-7.8 2.63c.5-.41 1-.78 1.55-1.1.18.41.37.81.57 1.19.42.74.88 1.39 1.37 1.92a11.15 11.15 0 01-3.48-2.01zm6.62 2.6c-1.29-.26-2.5-1.33-3.47-3.08-.2-.37-.39-.76-.56-1.16a11.1 11.1 0 014.03-.99v5.22zm0-6.4c-1.54.07-3.05.43-4.44 1.05-.5-1.55-.79-3.3-.84-5.15h5.28v4.1zm0-5.27h-5.28c.05-1.7.3-3.32.73-4.78 1.42.65 2.96 1.03 4.55 1.1v3.68zm0-10.5v5.65a11.07 11.07 0 01-4.17-1.05c.2-.54.44-1.05.7-1.53.97-1.75 2.19-2.82 3.47-3.07zm-3.13.58c-.74.8-1.47 1.92-2.08 3.46-.58-.36-1.13-.77-1.65-1.23a11.15 11.15 0 013.73-2.23zm-4.56 3.06c.65.58 1.34 1.1 2.08 1.53-.5 1.62-.8 3.43-.84 5.33H8.89a11.1 11.1 0 012.84-6.86zm1.24 8.03c.05 2.03.38 3.97.96 5.69-.7.4-1.36.87-1.98 1.4a11.1 11.1 0 01-3.06-7.1h4.08zm18.1 13.72v-5.94h1.17v5.94h-1.17zm-2.73-3.13h1.17v4.22h-1.18v-4.22zm-2.82 4.22v-2.58h1.17v2.58h-1.17z" fill="#1F1F20"/></g><defs><clipPath id="clip0"><path fill="#fff" d="M0 0h40v40H0z"/></clipPath></defs></svg>