<svg width="26" height="26" viewBox="0 0 26 26" fill="none" xmlns="http://www.w3.org/2000/svg">
<path d="M13 26C20.1797 26 26 20.1797 26 13C26 5.8203 20.1797 0 13 0C5.8203 0 0 5.8203 0 13C0 20.1797 5.8203 26 13 26Z" fill="#FF0000"/>
<g clip-path="url(#clip0)">
<path d="M20.1865 9.56153C20.014 8.94686 19.5058 8.46282 18.8604 8.29855C17.6907 8 13 8 13 8C13 8 8.30937 8 7.13959 8.29855C6.49423 8.46282 5.98593 8.94686 5.81344 9.56153C5.5 10.6756 5.5 13 5.5 13C5.5 13 5.5 15.3244 5.81344 16.4385C5.98593 17.0531 6.49423 17.5372 7.13959 17.7015C8.30937 18 13 18 13 18C13 18 17.6907 18 18.8604 17.7015C19.5058 17.5372 20.014 17.0531 20.1865 16.4385C20.5 15.3244 20.5 13 20.5 13C20.5 13 20.5 10.6756 20.1865 9.56153Z" fill="white"/>
<path d="M11.4658 15.1104L15.3863 13.0001L11.4658 10.8896V15.1104Z" fill="#FF0000"/>
</g>
<defs>
<clipPath id="clip0">
<rect width="15" height="10" fill="white" transform="translate(5.5 8)"/>
</clipPath>
</defs>
</svg>
